<?xml version="1.0" encoding="utf-8"?>
<!-- Generator: Adobe Illustrator 21.0.0, SVG Export Plug-In . SVG Version: 6.00 Build 0)  -->
<svg version="1.1" id="Layer_1" xmlns="http://www.w3.org/2000/svg" xmlns:xlink="http://www.w3.org/1999/xlink" x="0px" y="0px"
	 viewBox="0 0 466.5 481.5" style="enable-background:new 0 0 466.5 481.5;" xml:space="preserve">
<style type="text/css">
	.st0{display:none;fill:#FEFEFE;}
	.st1{fill:#89C5D0;}
	.st2{fill:#6BA0A8;}
	.st3{fill:#5A5A5A;}
	.st4{fill:#CBF1FE;}
	.st5{fill:#8AC5D0;}
	.st6{fill:#F57280;}
	.st7{fill:#FEFEFE;}
	.st8{fill:#3C3C3C;}
	.st9{fill:#252525;}
	.st10{fill:#3B3C3C;}
	.st11{fill:#3C3E3E;}
	.st12{fill:#97BEC7;}
	.st13{fill:#88C3CD;}
	.st14{fill:#87C2CD;}
	.st15{fill:#7AAEB7;}
	.st16{fill:#6FA4AC;}
	.st17{fill:#EBEFF0;}
	.st18{fill:#3A3A3A;}
	.st19{fill:#373737;}
	.st20{fill:#383838;}
	.st21{fill:#393939;}
</style>
<g>
	<g>
		<path class="st0" d="M466.4,241.1c0,79.1,0,158.2,0.1,237.3c0,2.6-0.5,3.1-3.1,3.1c-153.5-0.1-306.9-0.1-460.4,0
			c-2.6,0-3.1-0.5-3.1-3.1C0.1,320,0.1,161.5,0,3.1C0,0.5,0.5,0,3.1,0C156.5,0.1,310,0.1,463.4,0c2.6,0,3.1,0.5,3.1,3.1
			C466.4,82.4,466.4,161.8,466.4,241.1z"/>
		<path class="st1" d="M64.4,101.1c13.5-11.2,27.3-22,40.3-33.8c6.7-6.1,13.6-7.8,22.2-7.4c12.6,0.6,25.2,0.1,37.8,0.2
			c18.7,0.1,37.3-0.8,56-1.5c2.1-0.1,3.8,0.3,5.6,1.5c7.8,4.9,15.7,9.7,23.5,14.6c1.4,0.8,2.5,2.1,3.6,3.2
			c10.8,10.9,21.5,21.9,32.4,32.6c2.4,2.4,3.5,5,3.9,8.1c1.7,13.8,3.9,27.6,5,41.4c0.7,8,0.1,16.2-0.7,24.2
			c-0.6,6.8-0.6,13.7-1,20.5c-1,14.4-1.2,28.9-1.9,43.3c-0.2,4.2-0.7,8.4-0.6,12.7c-0.3,0.9-1,1.4-1.9,1.6
			c-4.5,1.3-9.1,2.5-13.7,3.4c-0.6,0.1-1.2,0-1.8-0.4c-1.1-1.5-0.8-3.1-0.5-4.7c0.8-5.7,1.4-11.4,2.5-17c1.6-8.6,1.3-17,0.3-25.6
			c-1.2-10-1.8-20.1-3-30.1c-0.6-5.1-2.6-9.9-4.4-14.6c-1.6-4.1-5.8-5.2-9.4-6.8c-1.7-0.7-2,1.4-2.4,2.6c-2.3,6.4-4.6,12.9-6.9,19.4
			c-1.4,3.9-2.4,7.9-4.2,11.6c-3.5,7-2.6,14.3-1.9,21.6c0.2,2.6,0.6,5.2,0.6,7.8c0,5.8,2,11,4.5,16c2.8,5.6,5.5,11.2,8,16.9
			c0.9,2.1,2.1,3.9,3.7,5.6c-0.1,2.1-2,1.7-3.3,2.2c-3.1,1.1-6.6,0.9-9.4,3c-0.7,1.8-0.5,3.7-0.5,5.6c0,18.9,0,37.9,0,56.8
			c0,6.5-0.3,6.9-6.6,9c-10.7,3.4-21.2,7.4-31.8,10.9c-1.7,0.5-3.3,1.2-5.1,1.2c-5.1-0.5-10.1-1.4-15.1-2.3
			c-9.2-1.6-18.3-1.8-27.5-0.7c-0.4,0-0.8,0.1-1.1,0.1c-13.5-1.5-25.7,3.7-38.2,7.2c-2.2,0.6-4.1,1.7-5.9,3.1
			c-2.3,1.8-4.6,3.6-6.6,5c16-4.6,32.9-6.6,49.9-8.5c10.6-1.2,21.3-2.1,31.9-3.3c2.7-0.3,5.1,0.2,7.6,1c4.6,0.2,9.1,0.8,12.9,3.9
			c1,0.8,2.1,1.4,3.2,1.9c2.1,1.1,4.4,2.2,6.4,3.6c1.2,0.9,2.6,1.3,3.8,2.2c0.9,0.9,1.1,2.1,1.2,3.3c0.1,1.7,0.1,3.4,0.1,5
			c-0.1,1.1-0.1,2.2-0.9,3.1c-1.4,0.8-2.8,0.4-3.9-0.2c-8.7-4.1-17.7-4-27-2.7c-15.1,2.1-30.2,3-45.3,5.2c-9.9,1.4-19.3,5-28.9,7.7
			c-9.6,2.7-19.3,4.9-29.3,6c-4.5,0.5-5.1,0.2-6.5-4.2c-4.9-15.3-9.3-30.8-14.6-46c-10.3-30-14.6-61.3-21.5-92.1
			c-1.6-6.9-2.6-14-4.5-20.8c-2.4-8.7-0.3-17.1,0.7-25.5C48.3,174,55.8,140.1,62.6,106C63,104.2,63.6,102.6,64.4,101.1z"/>
		<path class="st2" d="M64.4,101.1c-1.9,9.7-3.7,19.5-5.6,29.2c-3.8,20.2-8.6,40.2-11,60.7c-1.3,11.1-3.5,22-4.9,33.1
			c-0.5,4.1,1.2,8,2,12c5.9,28.8,11.4,57.6,18.1,86.2c3.7,15.8,9.5,31.1,14.4,46.7c2.6,8.4,5.3,16.8,7.9,25.3c0.6,2,1.3,2.4,3.7,2.2
			c18.6-1.6,36-8.1,53.8-12.9c5.6-1.5,11.3-1.7,16.9-2.3c10.6-1.3,21.2-2.1,31.7-3.7c11.4-1.7,22.4-1.2,33,3.6
			c4.1,7.7,1.2,17.6-6.2,21.4c-0.7,0-1.2-0.2-1.4-1c0.5-2.8,2.5-5.4,0.4-8.5c-3.4-5.2-3.5-5.4-9.6-4.4c-12.3,2-24.6,4.4-36.9,6.2
			c-3.3,0.5-4.6,1.9-4.3,5.2c0.2,2.4,0,4.7,0,7.1c0,4.9,0.2,5,4.8,4c7-1.7,14.1-3.4,21.1-4.8c3.3-0.7,6.4-2.1,9.9-1.7
			c0.9,0.2,1.5,1,2.5,1.1c2.9,0.5,5.7,1.9,8.8,0.7c14.3,5.1,28.6,10.4,43.2,14.5c8.5-3,16.4-7.2,24.6-10.8
			c12.6-5.6,25.1-11.5,37.8-17.1c2.9-1.3,4.7-3.1,5.4-6.1c0.7-3,1.6-6,2.5-9c0.5-1.8,1.4-3.3,3.3-3.7c6.5-1.5,13.1-3,19.8-3.9
			c0.4,0,0.7,0.2,1,0.3c0.8,2.3-0.3,4.4-1,6.4c-1.7,4.9-1.7,9.6,0.5,14.4c0.5,1,0.7,2.1,1,3.2c0.1,0.6,0.1,1.2,0,1.8
			c-2.4,3.5-1.9,7.1-0.8,11c2.3,7.8,4.4,15.6,6.8,23.3c1.1,3.4,2.7,5.5,6.4,5.4c0.4,0.2,0.7,0.4,1,0.7c2.7,7.1,4.6,14.4,6.2,21.8
			c0.8,3.5-0.2,7.1-1,10.6c-0.4,1.8-1.5,2.9-3.5,2c-13-2.1-26-4.2-39-6.5c-45.6-7.8-90.6-18.7-135.9-28.5
			c-12.9-2.8-25.3-8.2-37.8-12.9c-5-1.9-9.5-2.1-14.7-0.5c-14.2,4.2-28.6,7.6-42.8,11.9c-5.1,1.5-9.6,0.1-14.3-0.5
			c-7.4-1-14.7-2.5-22.1-3.7c-2.2-0.4-3.8-1.2-5.1-3.2c-7-10.9-14.2-21.7-21.4-32.5c-1-1.5-1.7-3-2.3-4.7c-7.2-22-14.4-44-21.6-66
			c-0.6-1.8-0.6-3.5-0.2-5.4c2.4-9.5,5.8-18.8,7.1-28.6c2.1-16.2,3.9-32.4,5.7-48.6c1.1-9.5,2.6-19,2.1-28.6
			c-0.9-19.7-1.4-39.4-2.1-59c-0.1-2.6,0.5-4.7,2.1-6.8c9.1-11.6,18-23.3,27.1-34.8C55.3,107.6,60,104.5,64.4,101.1z"/>
		<path class="st3" d="M351.2,370.8c-6.3,1.2-12.7,2.5-19,3.6c-2.4,0.5-4.2,1.4-4.4,4.2c0,0.7-0.5,1.4-0.6,2.1
			c-0.8,8.4-5.5,12.6-13.2,15.8c-19.3,8-38.2,17-57.2,25.6c-1.4-2.1-1.1-4.5-1.1-6.9c0-43.2-0.1-86.3,0.1-129.5
			c0-4.9-1-8.4-5.9-10.3c-1.5-0.6-3.3-1.4-3.5-3.5c4.5-1.2,9-2.4,13.5-3.6c4.1-2.7,8.6-3.4,13.4-3.4c5.8-1.2,11.6-2.5,17.3-4.3
			c13.9-3.3,27.8-6.6,41.7-10c18.2-4.4,36.5-8.9,54.7-13.5c2.7-0.7,4.5,0,6.9,1.2c6.3,3.3,7.8,8.1,7.7,15.1
			c-0.4,35.3-0.2,70.5-0.2,105.8c0,1.5,0.1,3,0.1,4.5c1.3,2.3-0.3,3.3-1.9,4.3c-1.5,0.8-3.2,1.2-4.7,2c-5.1,2.4-9.9,5.4-15.5,6.5
			c-5-1.3-9.9-3.1-14.8-4.8c-3.2-1.1-6.4-1.7-9.8-0.8C353.6,371.3,352.3,371.7,351.2,370.8z"/>
		<path class="st2" d="M379.6,375.9c5.2-1.7,10-4.3,14.9-6.7c1.9,0.6,3.4,0,4.5-1.6c1.2-1,2.6-1.9,2.4-3.8c2.7-4.3,5.5-8.5,8-12.9
			c1.1-1.9,2.4-2.8,4.7-2.7c5.7,0.2,11.4,0.1,17.1,0.2c1.4,1.4,1.3,3.2,1,4.9c-0.4,2.7-0.5,5.4-0.9,8.1c-0.1,0.4-0.3,0.8-0.5,1.2
			c-6.4,2.6-7.7,7.7-6.7,13.9c1.4,8.9,0.1,18.1,2,27c0.7,3.3,1.8,5.5,5.1,6.4c0.4,0.3,0.6,0.6,0.8,1.1c0.8,3.8,0.8,7.6,1.1,11.5
			c0.6,9.6,0.9,19.3,1.6,29c0.2,2.6,1,5.6-1.8,7.5c-7.8,3.2-15.5,4.4-23.8,1c-4.6-1.9-9.6-2.6-14.4-3.9c-0.6-2.4,0.8-4.3,1.7-6.3
			c1.2-2.6,1.6-5.1,1.1-8c-3.1-17-6.1-34.1-8.5-51.2c-0.5-3.8-3.4-5.9-5.7-8.5C381.6,380.2,379.1,378.9,379.6,375.9z"/>
		<path class="st1" d="M379.6,375.9c1.5,3.5,4.5,5.6,7.1,8.1c1.8,1.8,2.9,3.7,3.2,6.1c1.8,14.5,4.7,28.8,7,43.2
			c0.4,2.2,0.7,4.4,1.4,6.5c1.9,6.1-1.5,11-3.7,16.2c-2.5,7.8-8.1,11.9-16.1,13.1c-2.5,0.4-4.9,1.6-7.4,2.3
			c-1.4,0.4-2.9,0.6-4.2-0.3c1.1-0.1,2.3-0.2,2.5-1.7c0.4-4.2,2-8.4,0.7-12.7c-1.9-6.6-3.6-13.3-5.4-20c1.8-1.7,4-1.1,6-1
			c7.4,0.4,12.8-4.3,18.9-7.2c1.4-0.6,1.2-2,0.8-3.3c-3.3-12.4-7.2-24.6-10.6-37c-0.6-2.1-1.8-2.8-3.9-2.3c-6.1,1.4-12.2,2.6-18.2,4
			c-1.5,0.4-2.6,1.4-3.5,2.7c-0.7,1-1.2,2.3-2.8,2.1c-5.4-7.9-3.4-15.9-0.1-23.8c6.4-2.6,12.3-0.6,18.3,1.6
			C372.8,373.6,376.2,374.7,379.6,375.9z"/>
		<path class="st4" d="M430.4,362.4c0.1-0.2,0.1-0.4,0.2-0.6c1.7-2.6,4.1-3.5,7.1-2.9c4.4,0.8,9,0.6,13,2.8
			c0.7,14.7,1.6,29.4,1.5,44.2c-1.2,1.6-3.1,2-4.9,2.5c-3.4,0.9-6.6,2.1-9.9,3.1c-2.2,0.7-4.4,0.9-6.2-1l0,0
			c-1.2-1.5-1.5-3.4-1.7-5.2c-1.1-13.2-0.9-26.4-0.1-39.7C429.5,364.3,429.7,363.3,430.4,362.4z"/>
		<path class="st1" d="M431.2,410.4c2.6,0.9,5,0.5,7.6-0.4c4.4-1.5,9-2.8,13.5-4.1c0.5,11.1,0.9,22.3,1.5,33.4
			c0.1,2.7-0.9,4.9-2,7.3c-3.9,8.1-10.8,11-18.9,12.4c1.5-3.1,1.1-6.5,0.6-9.5c-1.1-6.3-0.3-12.6-1.1-18.9
			C431.2,423.8,431.5,417.1,431.2,410.4z"/>
		<path class="st5" d="M450.7,361.6c-3.7-0.5-7.4-0.7-11-1.6c-3.4-0.8-6.3-0.1-9.1,1.7c-0.6-4.5,1.1-8.9,0.6-13.5
			c8.5-1.8,13.1,4.8,18.9,8.8C451.5,358,450.6,360.1,450.7,361.6z"/>
		<path class="st6" d="M161.8,165.1c0-20.7,0-41.4,0-62.1c0-2.1,0.4-3.4,2.7-4c14.1-3.3,28.2-6.6,42.3-10.1c2.5-0.6,2.9,0,2.9,2.3
			c-0.1,41.8-0.1,83.5,0,125.3c0,2.2-0.8,3.1-2.8,3.5c-13.9,3.2-27.8,6.4-41.6,10c-3.3,0.9-3.5-0.2-3.5-2.9
			C161.9,206.5,161.8,185.8,161.8,165.1z"/>
		<path class="st7" d="M133.1,232.1c0.2,3.7-1.6,7-2.7,10.3c-3.8,11-7.9,22-11.7,33.1c-0.9,2.7-1.9,3-4.1,1.5
			c-2.1-1.3-4.3-2.5-6.5-3.6c-0.9-0.5-1.8-1-2.1-2c-2.1-6.6-5-13-5.6-20.1c-1.1-12.9-2.5-25.7-3.6-38.6c-0.4-5,1.1-9.9,1.7-14.8
			c0.7-6.3,2.2-12.5,2.6-18.8c0.5-6.8,5.9-9.7,9.7-13.9c1.3-1.4,1.8,0.7,2.2,1.5c2.6,5.2,5.1,10.6,7.6,15.9
			c2.8,5.9,5.2,11.9,8.3,17.6c2.2,4.2,2.7,8.7,3,13.3C132.2,219.7,132.7,225.9,133.1,232.1z"/>
		<path class="st7" d="M273.2,264.9c-4.5,1.1-8.9,2.2-13.4,3.4c-1.7,0.1-2.4-1-3-2.3c-4.3-9.1-8.6-18.2-12.9-27.4
			c-1.2-2.5-0.9-5.4-1.2-8.1c-0.7-6.3-1-12.6-1.6-19c-0.2-2.2,0.2-4.2,0.9-6.2c4.6-12.8,9.1-25.5,13.6-38.4c0.8-2.3,1.6-3.1,3.8-1.6
			c2.2,1.4,4.6,2.6,6.9,3.8c0.9,0.5,1.8,1,2.1,2c2.1,6.5,4.9,12.8,5.5,19.7c1.1,13,2.7,26,3.6,39c0.5,6.8-1.6,13.5-2.4,20.3
			C274.6,255.1,273.8,260,273.2,264.9z"/>
		<path class="st8" d="M246.3,271.9c2.7,1.6,5.3,3.2,8.1,4.6c1.8,0.9,2.5,2.1,2.5,4.1c-0.1,47.2-0.1,94.3-0.1,141.5
			c-13.8-4.7-27.6-9.4-41.4-14c-0.9-0.3-1.7-0.5-1.9-1.5c0.3-1.4,1.6-2.2,2.5-3.2c0.6-0.7,1.4-0.9,2.2-1.2c1.7-1.6,3.4-3.3,5.2-4.8
			c1.1-0.9,1.4-1.9,1.4-3.2c-0.1-4.4-0.1-8.7-0.1-13.1c0.1-1,0.2-2,0.2-3c2-0.5,3.3,0.9,4.7,1.9c4.8,3.5,9.8,6.7,14.8,10.2
			c0.9-2.3-0.5-3.4-1.7-4.7c-1.2-1.3-1.3-2.4,0.1-3.9c2.6-2.8,2.8-4.8,0.8-7.9c-1-1.5-1-2.6,0.1-4c0.8-0.9,1.2-2,1-3.1
			c-0.9-4.5,0.1-8.9,0.1-13.3c0-2.9-1-3-3.4-2c-8.8,3.7-17.7,7.2-26.5,11c-1.1,0.5-2.3,0.9-3.6,0.8c-3.8-2.6-8-3.7-12.6-3.8
			c-1.3-0.4-2.7-0.7-0.8-2.2c1.6-1.3,3.6-0.7,5.3-1.3c13.6-4.6,27.3-9.2,40.9-13.7c2.2-0.8,1.6-2.6,1.6-4c0-20.8,0-41.5,0.1-62.3
			C245.6,274.4,244.9,272.9,246.3,271.9z"/>
		<path class="st6" d="M209.6,255.8c0,6.7,0,13.4,0,20.2c0,1.8-0.3,2.9-2.4,3.4c-14,3.2-28,6.5-41.9,10c-3.2,0.8-3.6-0.3-3.5-3
			c0.1-12.8,0.1-25.7,0-38.5c0-2.3,0.4-3.4,3-4.1c14-3.2,27.9-6.7,41.9-10.2c2.6-0.6,3.1,0.2,3,2.6
			C209.6,242.8,209.6,249.3,209.6,255.8z"/>
		<path class="st7" d="M167.1,304.1c7.2-1.3,14-2.5,20.8-3.7c8.4-1.4,16.9-2.7,25.3-4.3c2.1-0.4,2.4-0.1,1.9,2
			c-1,4.2-1.7,8.5-2.7,12.8c-0.6,2.5-7.9,8-10.9,8.1c-8.2,0.1-16.2,0.1-24.2-3C171.4,313.6,169.9,309,167.1,304.1z"/>
		<path class="st2" d="M203.1,355.8c-1.6,0.7-3.4,1.2-4.9,2c-1.7,0.9,0.4,0.9,0.4,1.5c-10.1-2.2-20,0.8-30,1.5
			c-9,0.6-18,1.7-26.9,3.1c-11.3,1.8-22.6,3-33.5,6.6c-0.6,0.2-1.2,0.1-3,0.3c6.4-4.9,11.1-10,18.2-11.7c5.2-1.2,10.4-2.6,15.4-4.4
			c4.7-1.7,9.4-2.2,14.3-2c4.5,0.2,8.9-0.4,13.4-0.7C178.9,351.1,191,353.6,203.1,355.8z"/>
		<path class="st9" d="M211.2,363.1c5.2-3.3,11.1-4.8,16.6-7.3c4.7-2.2,9.7-3.8,14.4-6c2.8-1.3,3.6-0.5,3.4,2.3
			c-0.3,2.9,0.6,5.9-0.8,8.8c-0.6,1.3,0.8,3.1,0.9,4.9c0.1,2.6-0.7,4.5-2.6,6c1.9,1.4,2.8,3.1,2.6,5.7c-0.2,2.1,0,4-2.5,4.9
			c-1.6,0.6-1.1,1.5-0.2,2.5c2.7,2.7,2.7,2.7,2.4,7.2c-7-4.7-13.8-9.3-20.6-13.9c0-1.7,0-3.5,0-5.2c1.7-1.2,4.3,0.5,5.9-1.9
			c-1.9-2.5-4.4-1.3-6.7-1c-1.6,0.2-2.6-0.7-3.7-1.7c0.6-4.2,0.6-4.2-4.4-3.3c-0.6,0.1-1.2,0.1-1.8-0.2
			C213.1,364.2,212.1,363.6,211.2,363.1z"/>
		<path class="st10" d="M223.9,370c2.6-2.8,5.1-1.4,7.7,0c0.6,0.3,1.2,0.9,0.7,1.4c-2.2,1.9-4.6,2.8-7.5,1.5
			C224.6,371.9,224.7,370.8,223.9,370z"/>
		<path class="st11" d="M214,364.7c2.1-0.3,3.7-2.1,6-1.5c1.1,0.3,2.6,0.6,2.8,2c0.2,1.3-1.1,1.4-2,1.8c-0.4,0.2-0.5,0.8-0.7,1.2
			C218.1,367.1,216.1,365.9,214,364.7z"/>
		<path class="st4" d="M351.3,394.6c2.4-5.2,7-6.4,12-7.2c4.4-0.7,8.8-1.5,13.1-2.7c2.8-0.8,3.4,0.4,4.1,2.6
			c3.7,12.9,7.4,25.8,11.2,38.6c0.5,1.8,0.2,2.7-1.5,3.5c-4.4,2.1-8.6,4.5-13.1,6.4c-4,1.7-8.4,0.3-12.6,0.8
			c-0.2-0.1-0.4-0.1-0.6-0.2c-1.2-0.9-1.4-2.3-1.8-3.6c-2.9-10.9-6.8-21.6-10.3-32.3c-0.5-1.4-0.9-2.9-0.8-4.4
			C351.2,395.6,351.3,395.1,351.3,394.6z"/>
		<path class="st1" d="M266.9,421.7c8.7-4,17.6-7.6,25.9-12.2c7.1-4,13,0.1,19.3,1.3c2.9,0.5,5.7,1.8,8.6,2.4c2,0.4,2.7,1.3,2.7,3.2
			c-0.1,6.1,0,12.2,0,18.3c0,1.8-0.3,2.4-2.4,1.9c-18-4.7-36-9.4-54-14C267.1,422.3,267,422,266.9,421.7z"/>
		<path class="st12" d="M202.9,405c-10.8,1.8-21.3,4.6-31.9,7c-5.6,1.3-5.5,1.4-5.5-4.3c0-3.4,0.2-6.7-0.1-10.1
			c-0.2-2.5,1.1-3.4,3.1-3.7c10.6-1.8,21.2-3.6,31.8-5.4c3.8-0.6,7.6-1,11.3-1.9c1.9-0.4,2.8,0.1,3.7,1.5c0.8,1.2,1.6,2.5,2.4,3.7
			c2.5,3.7,2.3,5.7-0.7,9.4c-3.1,2.8-7.3,2.1-10.9,3.5C205.2,405.2,204.1,405.3,202.9,405z"/>
		<path class="st12" d="M351.1,396.1c4.4,11,7.8,22.2,11.2,33.5c0.7,2.2,1.1,4.6,1.7,6.9c-3.8,0.8-5.7-0.6-6.9-4.5
			c-3-9.2-5.3-18.6-8.1-27.9C347.9,400.7,349.2,398.4,351.1,396.1z"/>
		<path class="st13" d="M216.4,403.6c-1,1-2,2-3.1,3c-1.1,1.6-2.5,1.6-4.2,1c-1.5-0.5-3.1-0.7-4.7-1c-1.1-2.3,1.1-1.5,1.9-2.1
			c2.4-0.9,5.1-1.1,7.6-1.9C214.7,402.4,216.3,401.6,216.4,403.6z"/>
		<path class="st14" d="M317.6,398.8c2.3-1.7,3.7-3.1,5.6-2.5c0.6,0.2,0.7,2.3-0.1,3C321.4,400.7,320.1,398.9,317.6,398.8z"/>
		<path class="st15" d="M216.4,403.6c-3.6-1.5-6.5,1-9.8,1.4c-0.2-0.3-0.7-0.3-0.8-0.7c3.6-1.7,7.6-1.8,11.3-2.9
			c0.3,0.2,0.6,0.5,0.8,0.8C217.5,402.6,217,403.1,216.4,403.6z"/>
		<path class="st16" d="M205.9,404.3c0.2,0.2,0.5,0.5,0.8,0.7c-1,0.1-2.2,0-2.2,1.5c-1,0-1.5-0.5-1.5-1.5
			C203.7,404,204.9,404.4,205.9,404.3z"/>
		<path class="st17" d="M399,367.6c-0.7,2.9-2,4-4.5,1.6C396.1,368.7,397.4,367.6,399,367.6z"/>
		<path class="st12" d="M430.4,362.4c0.1,5.5-0.1,10.9-0.5,16.4c-0.6,9.7,0.2,19.4,1.2,29c0.1,0.9,0,1.7,0,2.6c-5.1-0.5-5.1-1-6-6
			c-2-10.5-1.4-21.2-2-31.8C422.6,365.3,423.2,365.1,430.4,362.4z"/>
		<path class="st18" d="M237.3,373.8c1.9,0.7,4.9,1.8,4.7,3.4c-0.2,2.3-3.5,2.6-5.4,2.8c-1.9,0.2-4.8-1.4-4.7-3.3
			C232.1,374.6,235.3,374.7,237.3,373.8z"/>
		<path class="st19" d="M244,366.3c-3.2,2.3-6.2,3.5-9.6,1c-1.3-0.9-1.5-1.4,0-2.3C237.8,362.9,240.9,362.7,244,366.3z"/>
		<path class="st20" d="M234.9,360.7c-3.5,2.7-6.6,3.7-9.8,0C228.3,357.9,231.4,358.1,234.9,360.7z"/>
		<path class="st21" d="M235.1,356.4c2.9-1.5,5.4-3.2,8.4-1c1.1,0.8,1.3,1.2,0.1,2.1C240.7,359.3,238,358.8,235.1,356.4z"/>
	</g>
</g>
</svg>
