<?xml version="1.0" encoding="utf-8"?>
<!-- Generator: Adobe Illustrator 21.0.0, SVG Export Plug-In . SVG Version: 6.00 Build 0)  -->
<svg version="1.1" id="Layer_1" xmlns="http://www.w3.org/2000/svg" xmlns:xlink="http://www.w3.org/1999/xlink" x="0px" y="0px"
	 viewBox="0 0 246.7 192" style="enable-background:new 0 0 246.7 192;" xml:space="preserve">
<style type="text/css">
	.st0{display:none;fill:#FEFEFE;}
	.st1{fill:#89C5D0;}
	.st2{fill:#6BA0A8;}
	.st3{fill:#6BA1A9;}
	.st4{fill:#BAC8C9;}
	.st5{fill:#E3E3E3;}
	.st6{fill:#6F6F6F;}
	.st7{fill:#97BEC7;}
	.st8{fill:#CBF1FE;}
	.st9{fill:#747474;}
	.st10{fill:#939393;}
	.st11{fill:#959595;}
	.st12{fill:#8D8D8D;}
	.st13{fill:#949494;}
	.st14{fill:#8A8A8A;}
	.st15{fill:#737373;}
	.st16{fill:#767676;}
	.st17{fill:#7F7F7F;}
	.st18{fill:#828282;}
	.st19{fill:#F5727F;}
	.st20{fill:#FEFEFE;}
	.st21{fill:#F57280;}
	.st22{fill:#82BDC7;}
	.st23{fill:#B9C6C7;}
	.st24{fill:#7CB5BF;}
</style>
<g>
	<g>
		<path class="st0" d="M123.4,192c-40.8,0-81.5,0-122.3,0c-0.9,0-1.1-0.2-1.1-1.1C0,127.6,0,64.4,0,1.1C0,0.2,0.2,0,1.1,0
			c81.5,0,163,0,244.5,0c0.9,0,1.1,0.2,1.1,1.1c0,63.3,0,126.5,0,189.8c0,0.9-0.2,1.1-1.1,1.1C204.9,192,164.1,192,123.4,192z"/>
		<path class="st1" d="M109.3,113.8c8.2,2.1,16.5,3.8,24.2,7.5c2.3,1.1,3.8,2.3,4.3,4.8c0.4,1.9,1.1,3.6,1.7,5.5
			c-1.8,1.2-3.2,2.8-4.7,4.4c-0.8,0.8-1.7,1.3-2.7,1.7c-4.2,1.6-8.5,3.2-12.7,4.9c-3,1.1-6.2,1.6-9.4,2.4c-0.3,0.1-0.6,0.1-0.8-0.1
			c-0.5-0.9-0.5-2-0.5-3c-0.1-1.6-0.4-1.8-1.9-1.6c-1.9,0.3-3.9,0-5.8,0.4c-0.5,0.1-1,0.1-1.5,0.4c-1.4,1-2.7,1.9-4.1,2.9
			c-0.6,0.4-0.7,0.9-0.5,1.7c0.2,0.7,0.7,1.4,0.3,2.2c-1.5,0.4-3,0.5-4.5,0.5c-0.7,0-1.1-0.6-1.2-1.2c-0.5-2.1-1.8-2.7-3.8-2.7
			c-2.3-0.1-4.7-0.4-7-0.8c-0.7-0.1-1.3,0.1-2,0.3c-4.9,1.7-9.8,3.2-14.6,4.9c-0.7,0.2-1.4,0.6-2.2,0.5c-0.1-0.1-0.2-0.1-0.3-0.3
			c0-0.8-0.4-1.5-0.7-2.3c-0.9-2.5-1.9-4.9-2.9-7.3c-0.4-0.9-0.8-1.1-1.8-0.7c-9.8,3.9-19.5,7.9-29.3,11.7c-0.9,0.4-1.1,0.9-0.7,1.7
			c0.3,0.6,0.5,1.2,0.7,1.8c0.1,0.4,0.4,0.8-0.1,1.2c-1.2,0.6-2.5,0.4-3.8,0.5c-3.3,0.3-6.6,0.6-9.9,0.8c-1.1,0.1-2.1,0.2-3,0.9
			c-1.2-4.1-2.5-8.1-2.8-12.3c-0.1-0.7-0.1-1.4-0.3-2c-0.5-1.5,0.2-2.6,0.8-3.8c3.2-6,6.3-12,9.5-18c0.2-0.4,0.5-0.8,0.8-1.2
			c4.6-4.8,9.2-9.7,13.7-14.6c1.2-1.3,2.5-2.6,3.7-3.9c1-1.1,1.2-2.5,1.7-3.8c2.5-6.6,4.8-13.3,7.2-19.9c0.2-0.6,0.6-1.1,0.9-1.7
			c5.5-8.1,10.9-16.2,16.3-24.4c0.5-0.4,1-0.2,1.5-0.1c2,0.5,4,1,6,1.6c0.8,0.2,1.3,0,1.8-0.7c2-3.4,4-6.8,6-10.2
			c0.3-0.6,0.4-1.2,0.4-1.8c0-1.6,0.1-1.6,1.6-1.5c0.3,0,0.6,0,0.8,0.1c0.2,0,0.3,0,0.5,0.1c0.7,1.2,0,2.5,0,3.8c0,2.9-1,5.5-2.4,8
			c-2.2,3.9-4.2,7.9-6.4,11.8c-0.4,0.8-1.1,1.5-1.8,2.1c-1.7,1.3-3.3,2.8-5.1,4c-1.6,1.2-2.8,2.7-3.8,4.4c-0.4,0.7-0.5,1.3-0.3,2.1
			c1.6,5.7,3,11.5,4.6,17.3c0.3,1.1,0.2,1.9-0.4,2.8c-1.3,2.1-2.6,4.1-3.8,6.3c-1.2,2.2-2.8,3.9-4.7,5.3c-2.5,1.9-4.8,4.1-7.4,6
			c6.7-1,13.4-2.1,20-3c0.9-0.1,1.7-0.5,2.4-1c2.7-1.7,5.3-3.4,8-5.1c0.9-0.5,1.4-1.3,1.8-2.2c0.9-1.8,1.9-3.5,2.9-5.2
			c0.7-1.2,1.1-1.2,1.8,0c2.2,3.7,4.5,7.4,6.7,11.2c0.9,1.6,2,3,3.3,4.2c1.5,1.4,2.9,2.9,4.4,4.4c0.7,0.7,0.9,1.3,0.7,2.3
			c-0.8,4.9-1.6,9.8-2.6,14.6c-0.3,1.3-0.2,1.3,1,1.1c3-0.4,6.1-0.7,9.1-1.3c2.4-0.5,4.8-1,7.3-1.5c0.6-0.1,1.1-0.4,1.6-0.7
			c3-1.7,6-3.5,9.1-5.2c-0.3-0.4-0.8-0.4-1.2-0.5c-3.9-1-7.8-1.9-11.8-2.9c-1.7-0.4-1.9-0.7-2.1-2.4c-0.1-1.3-0.3-2.5-0.4-3.8
			C109.2,115.2,109.1,114.5,109.3,113.8z"/>
		<path class="st2" d="M109.3,113.8c0.4,1.9,0.5,3.8,0.7,5.7c0.2,1.9,0.2,2,2,2.5c4.3,1.1,8.7,2.1,13,3.2c0.2,0,0.3,0.1,0.7,0.3
			c-1.6,0.9-3,1.8-4.4,2.6c-2,1.2-4,2.4-6.1,3.5c-1.5,0.8-3.2,0.6-4.7,1.1c-4.5,1.3-9.1,1.5-13.7,2.3c-0.7,0.1-0.8,0-0.7-0.7
			c0.9-4.8,1.7-9.6,2.6-14.3c0.3-1.7,0.3-2.9-1.2-4.1c-4.6-3.8-7.7-8.8-10.6-13.9c-1.2-2.1-2.4-4.1-3.8-6.3
			c-1.1,1.9-2.2,3.6-3.1,5.5c-0.8,1.7-2,3-3.7,3.9c-2.3,1.3-4.6,2.8-6.8,4.3c-1.3,0.9-2.8,1-4.2,1.2c-5.2,0.8-10.4,1.6-15.6,2.4
			c-1.1,0.2-2.2,0.3-3.5,0.4c1.2-1.3,2.5-2.2,3.8-3.2c2-1.7,4.1-3.4,6.2-5.1c1.6-1.3,2.3-3.2,3.4-4.9c1.2-1.8,2.2-3.7,3.3-5.5
			c0.3-0.4,0.4-0.8,0.2-1.3c-1.6-5.8-3.1-11.7-4.7-17.5c-0.3-1.2-0.2-2,0.4-3.1c1.4-2.7,3.8-4.4,6.1-6c3.1-2.1,5-4.9,6.6-8.1
			c1.8-3.5,3.6-7,5.5-10.5c1-1.8,0.8-3.9,1.1-5.8c0.2-1,0.2-2.1,0.3-3.2c0.7-0.1,0.9,0.1,0.9,0.8c0.3,4.8,0.6,9.6,0.9,14.5
			c0.1,0.9-0.2,1.6-0.8,2.2c-3.9,4.3-7.8,8.6-11.6,12.9c-0.3,0.3-0.5,0.7-0.5,1.2c0.4,3.7,0.8,7.3,1.1,10.9c0.1,0.8,0.4,0.9,1.1,1
			c4.6,0.3,9.2,0.6,13.8,0.9c0.6,1.3,0.4,2.7,0.2,4c-0.2,1.5-0.1,3-0.1,4.6c0,0.3,0.1,0.6,0.2,0.8c0.6,0.8,3.7,1.9,4.6,1.6
			c2-0.6,3.9-1.3,5.8-2.2c6.2-3.1,12.4-6.2,18.7-9.2c4-1.9,7.9-3.9,11.9-5.9c0.4-0.2,0.8-0.5,1.3-0.4c0.4,0.3,0.3,0.8,0.6,1.2
			c1.3-0.6,2.7-1.2,4-1.9c6.5-3.2,13-6.3,19.5-9.5c4.6-2.2,9.1-4.4,13.7-6.6c0.4-0.2,0.8-0.5,1.2-0.2c-0.2,0.7-0.5,1.4-0.7,2.1
			c-0.8,1-2,1.4-3.1,2c-7.8,4.3-15.7,8.5-23.5,12.7c-6.5,3.5-13,7-19.5,10.5c-7,3.8-14,7.6-21.1,11.4c-0.2,0.1-0.4,0.2-0.4,0.5
			c0.6,0.5,1.5,0.7,2.2,1.1c2.6,1.2,5.2,2.4,7.8,3.6c0.7,0.3,1.3,0.3,1.9-0.1c5.8-3.2,11.7-6.3,17.7-9.3c9.6-4.8,19.1-9.6,28.7-14.4
			c6.2-3.1,12.6-5.6,19-8.3c0.8-0.3,1.4-0.8,2.1-1.4c2.3-2,4.2-4.4,5.3-7.3c0.2-0.4,0.3-0.9,0.8-1.2c0.1,0,0.2,0,0.2,0
			c2.2,1,2.2,1,1.5,3.4c-1,3.5-2.1,7-3,10.4c-0.2,0.9-0.7,1.4-1.5,1.8c-17.6,8.8-35.1,17.7-52.7,26.5c-6.2,3.1-12.5,6.3-18.7,9.5
			C108.3,113.7,109,113.4,109.3,113.8z"/>
		<path class="st3" d="M8.1,157.2c0.2-1.4,1.4-1.1,2.2-1.2c3.4-0.3,6.8-0.5,10.2-0.8c1.5-0.1,2.9-0.3,4.4-0.4
			c0.5,0.2,0.6,0.7,0.8,1.1c0.5,1.3,1,2.6,1.6,3.9s0.5,1.3,1.8,0.8c6.9-2.8,13.9-5.6,20.8-8.3c2.3-0.9,4.5-2,6.8-2.6
			c1,0,1.9-0.8,2.9-0.7c1.9-0.3,3.6-1.2,5.4-1.8c3.3-1.1,6.6-2.2,9.8-3.3c1.6-0.5,3.1-1.1,4.8-0.7c2.7,0.5,5.4,0.7,8.1,0.9
			c0.6,0.1,0.9,0.3,1.1,0.9c1.1,2.7,1.1,2.7,4,2.5c0.7,0,1.4,0,2.2,0c0.1,0,0.1,0.1,0.2,0.1c0.3,0.2,0.3,0.5,0.4,0.8
			c0.3,1.7,1.8,2.4,2.9,3.3c0.3,0.2,0.7,0.1,1-0.1c2.8-1.2,5.6-2.7,8.4-4c0.8-0.3,1.2-0.8,1-1.7c-0.1-0.4-0.1-0.8,0.1-1.2
			c0,0,0.1-0.1,0.1-0.1c8.2-1.5,15.9-4.8,23.6-7.8c0.5-0.2,0.9-0.5,1.3-0.9c1.2-1.2,2.4-2.4,3.6-3.7c0.5-0.5,1-0.9,1.8-0.9
			c0.6,1.8,1.3,3.7,1.9,5.5c0.2,0.4,0.1,0.7-0.1,1.1c-0.8,1.2-1.5,2.5-2.3,3.8c-0.2,0.9-1,1.2-1.7,1.6c-3.8,2-7.8,3.5-11.8,4.9
			c-3.9,1.3-7.8,2.8-11.8,4c-2.8,0.9-5.8,1.1-8.7,1.6c-2.4,0.5-4.8,0.8-7.2,1.2c-0.8,0.1-1.3,0.4-1.8,1.1c-0.8,1.2-1.9,2.2-1.9,3.8
			c0,0.5,0,1,0,1.6c0,0.6-0.1,1.3-0.2,1.9c0,0.4-0.2,0.8,0.2,1.2c1.1,0.4,2.3,0.1,3.4,0.2c1.1,0.1,2.1-0.1,3.2,0.1
			c0.1,0,0.2,0.1,0.3,0.2c0.5,1.1,0.5,2.2,0.5,3.3c0.1,1.7,0.3,1.8,2,1.6c1.9-0.2,3.9-0.3,5.8-0.4c1.2-0.1,2.4-0.2,3.6-0.3
			c0.5,0,0.9-0.3,1.2-0.7c1.1-2,1.9-4.1,2.9-6.1c0.1-0.2,0.2-0.4,0.1-0.6c-0.4-1.2,0.5-1.5,1.3-1.6c5.2-0.8,9.7-3.3,14.1-5.9
			c0.8-0.4,1.5-0.9,2.3-1.3c2.3-1,3.9-2.7,5.4-4.6c0.5-0.6,0.8-1.3,1.7-1.4c-0.3,2.8-0.6,5.6-0.9,8.3c-0.1,0.5-0.4,0.8-0.7,1
			c-5.3,4-10.6,8-15.8,12.1c-0.7,0.6-1.6,0.6-2.3,0.8c-8.1,1.8-16.2,3.5-24.3,5.2c-0.3,0.1-0.7,0.2-1.1,0.1
			c-3.2-1.4-6.5-0.7-9.7-0.6c-3.7,0.1-7.3,0.5-11,0.6c-7.9,0.2-15.7,1-23.5,1.9c-7.2,0.8-14.4,1.5-21.5,2.2
			c-1.8,0.2-3.6,0.4-5.5,0.6c-0.5,0.1-1,0-1.4-0.4c-4.2-3.6-8.4-7.3-12.6-10.9c-0.6-0.5-0.9-1.1-1.1-1.8
			C9.8,163.3,8.9,160.3,8.1,157.2z"/>
		<path class="st4" d="M2.3,187.1c2.4-1.6,4.5-3.1,6.7-4.5c0.5-0.3,1.2-0.4,1.8-0.4c3.2-0.2,6.4-0.3,9.5-0.5
			c5.5-0.4,11-0.8,16.4-1.1c2.7-0.2,5.3-0.3,8-0.5c6.1-0.4,12.2-0.8,18.2-1.2c3.1-0.2,6.1-0.3,9.2-0.5c5.6-0.4,11.1-0.8,16.7-1.1
			c2.8-0.2,5.6-0.3,8.3-0.5c5.9-0.4,11.8-0.8,17.8-1.2c4.2-0.2,8.3-0.6,12.5-0.1c2,0.2,4.1,0.1,6.1,0.2c3.1,0.2,6.1,0.2,9.2,0.3
			c5.8,0.3,11.5,0.5,17.3,0.7c3.5,0.1,7.1,0.3,10.6,0.5c5.8,0.2,11.6,0.5,17.4,0.7c3.5,0.1,7.1,0.3,10.6,0.5
			c5.8,0.3,11.6,0.5,17.4,0.7c3.5,0.1,7.1,0.3,10.6,0.5c5.7,0.2,11.4,0.6,17.1,0.7c0.3,0,0.6-0.1,0.7,0.3c0.1,0.4-0.3,0.4-0.6,0.4
			c-0.4,0.1-0.9,0.2-1.3,0.2c-5.4,0.3-10.8,0.5-16.1,0.8c-4.4,0.3-8.8,0.5-13.2,0.7c-6,0.3-11.9,0.6-17.9,1
			c-4.4,0.2-8.8,0.5-13.1,0.7c-4.5,0.2-9,0.6-13.5,0.7c-5.4,0.2-10.7,1.4-16.1,2.3c-6.4,1-12.8,2.1-19.2,3.2c-0.4,0.1-0.7,0-1.1,0
			c-31.8,0-63.7,0-95.5,0c-3,0-6-0.5-8.9-0.7s-5.9-0.6-8.9-0.9c-3.7-0.4-7.4-0.8-11.1-1.1C6.3,187.5,4.5,187.5,2.3,187.1z"/>
		<path class="st5" d="M238.5,21.9c0.7-0.1,1.4,0.1,2.1,0.2c0.2,0,0.5,0.1,0.5,0.4c0,0.4-0.5,0.1-0.6,0.3c-3.4,1.4-7.1,2.2-10.7,3.2
			c-18.8,5.3-37.7,10.5-56.5,15.8c-16.4,4.6-32.8,9.2-49.3,13.7c-1.8,0.5-3.6,0.8-5.3,1.4c-0.5,0.1-1,0.2-1.4,0.5
			c-0.1,0-0.2,0-0.3,0c-0.4,0.1-0.8,0.1-1.2,0.2c-0.4,0.1-0.8,0.2-1.2,0.5c-0.1,0-0.2,0-0.3,0c-0.4,0.1-0.7,0.1-1.1,0.2
			c-0.5,0.2-1,0.2-1.5,0.5c-0.3,0-0.7,0.1-0.9,0.3c-0.3,0-0.7,0.1-1,0.1c-0.4,0.2-0.8,0.2-1.2,0.4c-0.4,0-0.8,0.1-1.2,0.4
			c-0.4,0.1-0.8,0.4-1.3,0.3c-0.5,0.2-1.2,0.1-1.6,0.5c-2.4,0.7-4.9,1.4-7.3,2.1c-0.8,0.2-0.5-0.3-0.4-0.7c0.6-2,1.2-4,1.8-6
			c2.3-7.6,4.7-15.3,7.1-22.9c0.2-0.5,0-1,0.4-1.5c2.9,0.2,5.8-0.3,8.7-0.5c3.6-0.2,7.2-0.5,10.9-0.8c3.8-0.3,7.6-0.6,11.3-0.9
			c3.6-0.3,7.2-0.5,10.7-0.8c3.7-0.3,7.3-0.6,11-0.9c3.6-0.3,7.2-0.5,10.7-0.8c3.7-0.3,7.4-0.6,11.1-0.9c3.5-0.3,7.1-0.5,10.6-0.8
			c3.7-0.3,7.5-0.6,11.2-0.9c3.6-0.3,7.2-0.5,10.7-0.8c3.7-0.3,7.3-0.6,11-0.8c2.6-0.2,5.2-0.4,7.9-0.5c0.9,0,1.8-0.3,2.7-0.3
			C236,22,237.3,21.9,238.5,21.9z"/>
		<path class="st5" d="M107.7,26.2c1.3-5.7,2.6-11.5,3.9-17.2c0.3-1.3,0.6-2.6,0.9-3.9c0.2-0.8,0.5-1,1.3-0.8
			c3.6,0.6,7.3,1,10.9,1.6c4.3,0.6,8.5,1.2,12.8,1.8c3.6,0.5,7.2,1,10.8,1.5c3.7,0.5,7.4,1.1,11.2,1.6c3.6,0.5,7.3,1,11,1.5
			c3.7,0.5,7.4,1.1,11.1,1.6c3.1,0.4,6.3,0.9,9.4,1.3c3.6,0.5,7.3,1.1,10.9,1.6c3.1,0.4,6.3,0.9,9.4,1.3c3.6,0.5,7.3,1.1,10.9,1.6
			c3.1,0.4,6.3,0.9,9.4,1.3c2,0.3,4.1,0.6,6.1,0.9c-1.4,0.5-2.8,0.1-4.2,0.4c-1.2,0.3-2.5,0.2-3.7,0.2c-2.6,0.1-5.2,0.3-7.8,0.4
			c-5.8,0.2-11.6,0.3-17.4,0.6c-2.5,0.2-5,0.1-7.5,0.2c-3.8,0.1-7.5,0.2-11.2,0.4c-5.6,0.2-11.2,0.2-16.7,0.6
			c-2.4,0.2-4.8,0.1-7.2,0.2c-3.6,0.1-7.2,0.2-10.8,0.4c-5.7,0.2-11.5,0.3-17.2,0.6c-2.5,0.2-5,0.1-7.5,0.2
			c-3.7,0.1-7.4,0.4-11.1,0.3c-2,0-4.1,0.3-6.1,0.2C108.7,26.5,108.2,26.6,107.7,26.2z"/>
		<path class="st6" d="M118.5,56.7c18.4-5.1,36.7-10.2,55.1-15.3c22-6.1,44-12.3,66-18.4c0.3-0.1,0.6-0.1,0.9-0.1
			c-0.2,0.5-0.8,0.6-1.2,0.8c-24.6,11.9-49.1,23.8-73.7,35.7c-0.2,0.1-0.4,0.2-0.6,0.3c-2.3,1.1-4.7,2.2-7,3.3
			c-6.7,3.2-13.3,6.5-20,9.7c-3.4,1.7-6.8,3.3-10.2,4.9c-1.5,0.7-1.5,0.7-1.7-1c-0.4-0.2-0.5-0.6-0.5-1c-0.5-3.8-1.2-7.6-1.8-11.3
			c-0.1-0.6-0.1-1.2,0.1-1.8c-0.3-1.9-0.6-3.8-0.9-5.7c-0.1-0.6-0.3-0.9-1-0.6c-1,0.3-2,0.5-3,0.8C118.7,57,118.4,57.1,118.5,56.7z"
			/>
		<path class="st1" d="M182.2,61.5c-1.3,3.8-3.6,6.9-6.8,9.4c-1.1,0.9-2.7,1.3-4.1,1.9c-11.3,4.5-22.1,10.1-33,15.6
			c-6.3,3.2-12.7,6.3-18.9,9.5c-3.6,1.8-7.2,3.9-10.7,5.8c-0.7,0.4-1.2,0.4-2,0.1c-3.1-1.5-6.3-2.9-9.5-4.3
			c-0.4-0.2-0.8-0.4-1.5-0.7c1.3-0.7,2.4-1.4,3.5-2c5.6-3,11.2-6,16.8-9c8.4-4.6,16.9-9.2,25.3-13.7c4.2-2.3,8.4-4.5,12.6-6.8
			c3.4-1.8,6.8-3.7,10.2-5.5c4.2-0.8,8.5-1.6,12.7-2.5c0.6-0.1,1.1-0.1,1.6,0.2C179.8,60.1,181,60.8,182.2,61.5z"/>
		<path class="st1" d="M123.8,62.4c0.7,4.5,1.6,8.9,2.1,13.4c0,0.2,0.1,0.4,0.2,0.7c-9,4.6-18.1,9-27.1,13.4c-3.1,1.5-6,3.2-9.3,4.2
			c-1.4,0.4-2.7,0.5-4.1-0.1c-2.3-1.1-2.3-1-2.3-3.5c0-2.4,0.4-4.8,0.2-7.3c1.8-0.7,3.4-1.7,5.1-2.6c10.3-5.3,20.7-10.6,31-15.9
			C121,64.1,122.5,63.5,123.8,62.4z"/>
		<path class="st7" d="M141.9,147.1c-1.3,1.5-2.5,3-3.8,4.4c-0.9,0.9-2.1,1.3-3.1,1.9c-3,1.7-6,3.4-9,5c-2.1,1.1-4.5,1.5-6.8,2.1
			c-0.7,0.2-1.3,0.3-2.1,0.6c0.7,0.5,0.5,1,0.2,1.6c-1,2-2,4.1-3,6.1c-0.3,0.6-0.6,0.8-1.3,0.8c-3.3,0.2-6.7,0.4-10,0.7
			c-1.1,0.1-1.7-0.2-1.8-1.4c-0.1-1.3-0.2-2.6-0.3-3.9c0.4-0.4,1-0.3,1.5-0.3c1.5,0.1,2.9-0.2,4.3-0.7c2.8-1,5.6-1.9,8.4-2.8
			c1.1-0.4,1.1-0.5,0.2-1.2c-1.1-0.9-2.2-1.8-3.1-2.8c-0.5-0.5-1-0.6-1.7-0.4c-3,1.1-5.9,2.2-8.9,3.3c-0.7,0.3-0.8,0.7-0.8,1.4
			c0.1,1.2,0.5,2.3,0,3.5c-2.1,0-4.2,0-6.3,0c-0.4,0-0.8,0.1-1.1-0.2c0.2-0.5,0.2-1,0-1.4c0.1-0.6,0.2-1.3,0.2-1.9
			c0.2-0.6,0.2-1.1,0-1.7c0.1-2,1.4-3.4,2.7-4.6c1-0.9,2.6-0.7,4-0.9c4.1-0.7,8.3-1.1,12.4-2.2c4.6-1.2,9-3,13.5-4.5
			c3.5-1.2,6.9-2.5,10.2-4.1c0.9-0.5,1.8-0.9,2.6-1.7c0.8,0.9,1.4,1.8,2.3,2.6C142.2,145.2,142.3,146.1,141.9,147.1z"/>
		<path class="st6" d="M107.7,26.2c8.7-0.3,17.3-0.5,26-0.8c9.5-0.3,19-0.6,28.5-1c7-0.2,14-0.5,20.9-0.7c9.5-0.3,19-0.6,28.5-1
			c7-0.2,14-0.5,20.9-0.7c0.4,0,0.8,0,1.2,0c0.4,0,0.9-0.4,1.2,0.2c-6.4,0.5-12.9,1-19.3,1.5c-9.8,0.8-19.6,1.6-29.4,2.3
			c-6.8,0.5-13.6,1-20.4,1.5c-8.8,0.7-17.5,1.4-26.2,2.1c-5.7,0.4-11.5,0.8-17.2,1.3c-4.7,0.4-9.3,0.8-14,1.1
			c-0.7,0-1.7,0.7-2.3-0.4C106.9,29.9,107.2,28,107.7,26.2z"/>
		<path class="st8" d="M77.9,38.9C75.9,39,75.8,39,75.8,41c0,0.4-0.1,0.8-0.3,1.1c-2.1,3.6-4.2,7.1-6.3,10.7c-0.4,0.7-0.9,1-1.7,0.7
			c-2.2-0.6-4.5-1.2-6.7-1.8c-0.3-0.1-0.7-0.2-1-0.1c1.9-3.2,4.9-5.3,7.5-7.8c1.6-1.5,3.3-3,4.9-4.6c0.5-0.4,0.9-0.7,1.6-0.7
			C75.1,38.8,76.5,38.4,77.9,38.9z"/>
		<path class="st9" d="M234.9,22.3c-0.4-0.4-0.8-0.1-1.2-0.2c1.4-0.4,2.8-0.1,4.1-0.3c0.2,0,0.4,0,0.7,0.1
			C237.4,22.3,236.1,22.3,234.9,22.3z"/>
		<path class="st10" d="M118.5,56.7c0.2,0.1,0.3,0.1,0.5,0.2c-0.5,0.3-1.1,0.4-1.7,0.5C117.4,56.6,118,56.8,118.5,56.7z"/>
		<path class="st11" d="M114.6,58.1c0.1-0.7,0.8-0.5,1.2-0.7c0.1,0.1,0.2,0.1,0.3,0.2C115.7,57.9,115.2,58,114.6,58.1z"/>
		<path class="st12" d="M111.8,58.8c0.3-0.7,1-0.4,1.4-0.7c0.1,0,0.2,0.1,0.2,0.2C112.9,58.6,112.4,58.8,111.8,58.8z"/>
		<path class="st13" d="M108.6,59.5c0.3-0.3,0.8-0.3,1.2-0.4c0.1,0,0.1,0.1,0.1,0.2c0,0-0.1,0.1-0.1,0.1c-0.3,0.3-0.8,0.2-1.2,0.4
			C108.5,59.7,108.5,59.6,108.6,59.5C108.6,59.5,108.6,59.5,108.6,59.5z"/>
		<path class="st14" d="M104.6,60.7c0.4-0.5,1-0.5,1.6-0.5C105.7,60.6,105.1,60.7,104.6,60.7z"/>
		<path class="st15" d="M116.1,57.7c-0.1-0.1-0.2-0.2-0.3-0.2c0.4-0.1,0.8-0.3,1.2,0C116.8,57.7,116.4,57.5,116.1,57.7z"/>
		<path class="st16" d="M113.4,58.4c-0.1-0.1-0.2-0.1-0.2-0.2c0.4-0.1,0.7-0.3,1.1,0C114.1,58.4,113.8,58.3,113.4,58.4z"/>
		<path class="st17" d="M109.8,59.3c0-0.1,0-0.2,0-0.2c0.3,0,0.7-0.5,1,0C110.5,59.4,110.2,59.3,109.8,59.3z"/>
		<path class="st18" d="M108.6,59.5c0,0.1,0,0.1,0,0.2c-0.4,0.1-0.8,0.2-1.1,0.3C107.7,59.5,108.2,59.5,108.6,59.5z"/>
		<path class="st19" d="M56.8,150c-3.2,1-6.2,2.4-9.3,3.6c-6.3,2.5-12.6,5-18.8,7.5c-0.7,0.3-1,0.2-1.3-0.5c-0.7-2-1.6-3.9-2.4-5.8
			c-0.4-1.1-0.8-2.2-1.2-3.2c-0.3-0.7-0.2-1.1,0.5-1.4c10.2-4.1,20.4-8.1,30.5-12.2c0.6-0.2,0.9-0.3,1.2,0.4
			c1.2,3.1,2.5,6.2,3.8,9.4c0.1,0.3,0.2,0.7,0,1C58.8,149.3,57.8,149.6,56.8,150z"/>
		<path class="st20" d="M72.7,113.9c5.2-0.6,10,0,14.8,1.6c0.5,0.2,0.9,0.4,1.2,0.9c1.8,2.8,3.7,5.6,5.4,8.4
			c0.7,1.1,0.6,2.6,1.1,3.8c1,2.4,0.2,4.3-1.2,6.3c-1.8,2.7-3.5,5.6-5.2,8.3c-0.2,0.3-0.2,0.7-0.6,0.7c-0.4,0-0.5-0.5-0.6-0.8
			c-4-7.7-7.9-15.5-11.9-23.2C74.8,117.9,73.8,115.9,72.7,113.9z"/>
		<path class="st20" d="M52.2,125.8c-0.2,0.9-0.3,1.7-0.5,2.6c-0.1,0.6-0.4,0.9-1,1.1c-8.5,3.4-17,6.8-25.4,10.2
			c-0.8,0.3-1.3,0-2-0.4c-2.2-1.3-2-1.3-1.8-3.7c0.2-2,1.1-3,2.9-3.9c7.2-3.4,14.4-6.9,21.6-10.4c0.6-0.3,1-0.3,1.5,0.2
			c1.3,1.1,2.7,2.1,4,3.2C51.9,124.9,52.4,125.2,52.2,125.8z"/>
		<path class="st21" d="M74.4,142.4c0.1,0.4-0.2,0.5-0.5,0.5c-3.2,1.3-6.5,2.6-9.7,3.9c-0.5,0.2-0.6,0.1-0.8-0.4
			c-1.3-3.3-2.6-6.6-4-9.9c-0.2-0.5-0.1-0.7,0.4-0.9c3.2-1.3,6.4-2.5,9.7-3.8c0.4-0.2,0.7-0.2,0.8,0.3c1.3,3.3,2.7,6.7,4,10
			C74.4,142.3,74.4,142.4,74.4,142.4z"/>
		<path class="st8" d="M95.2,147.6c-0.2-0.6-0.3-1.2-0.5-1.7c-0.6-1.2-0.2-1.9,0.9-2.6c1.3-0.8,2.5-1.7,3.7-2.6
			c1-0.8,2.2-0.5,3.2-0.6c1.8-0.2,3.7-0.1,5.5-0.3c0.6-0.1,0.9,0.1,0.9,0.8c0.1,1.4,0.3,2.9,0.4,4.3l0,0c-0.3,0.4-0.8,0.6-1.3,0.7
			c-3.7,0.9-7.4,1.7-11.2,2.2C96.2,147.7,95.7,147.8,95.2,147.6L95.2,147.6z"/>
		<path class="st22" d="M56.8,150c0.9-0.6,1.9-0.9,2.9-1.2c0,0.1,0,0.1,0,0.2C58.8,149.5,57.8,149.9,56.8,150z"/>
		<path class="st23" d="M35.6,169.6c0.1-1.1,0.2-2.1,0.4-3.2c0.1-0.7,0.4-1.2,1.2-1.4c8.2-3,16.4-6.1,24.5-9.1
			c1.1-0.4,1.9-0.4,2.6,0.6c0.3,0.4,0.7,0.8,1.1,1.1c1.3,1.3,1.1,1.2,0.1,2.8c-1.7,2.8-4.5,3.8-7.2,4.9c-5.8,2.4-11.6,4.9-17.4,7.3
			c-0.8,0.3-1.4,0.4-2.1-0.2c-0.8-0.7-1.8-1.2-2.7-1.8C35.8,170.4,35.4,170.1,35.6,169.6z"/>
		<path class="st7" d="M95.2,147.6c2.2-0.4,4.5-0.7,6.7-1.1c2.5-0.5,5-1.1,7.4-1.7c0,0.2,0,0.5,0,0.7c0.1,2.1,0.1,2-1.7,2.9
			c-2.6,1.2-5.2,2.4-7.8,3.7c-0.6,0.3-1,0.2-1.6-0.2C96.7,150.8,95.4,149.6,95.2,147.6z"/>
		<path class="st24" d="M93.8,159.8c0.4,0.6,0.4,1.1,0,1.7C93.8,160.9,93.8,160.4,93.8,159.8z"/>
		<path class="st24" d="M93.5,163.4c0.3,0.5,0.3,1,0,1.4C93.5,164.4,93.5,163.9,93.5,163.4z"/>
		<path class="st8" d="M100.9,165.1c-0.2-1.3-0.3-2.6-0.4-3.9c-0.1-0.6,0-0.9,0.7-1.2c3.2-1.1,6.4-2.4,9.6-3.5
			c0.4-0.1,0.8-0.3,1.2,0.1c1.4,1.3,2.8,2.5,4.2,3.7c0.5,0.4,0.8,0.7-0.2,1c-2.6,0.8-5.2,1.6-7.8,2.6
			C105.8,164.8,103.4,165.3,100.9,165.1L100.9,165.1z"/>
	</g>
</g>
</svg>
