<?xml version="1.0" encoding="utf-8"?>
<!-- Generator: Adobe Illustrator 21.0.0, SVG Export Plug-In . SVG Version: 6.00 Build 0)  -->
<svg version="1.1" id="Layer_1" xmlns="http://www.w3.org/2000/svg" xmlns:xlink="http://www.w3.org/1999/xlink" x="0px" y="0px"
	 viewBox="0 0 1042.5 600" style="enable-background:new 0 0 1042.5 600;" xml:space="preserve">
<style type="text/css">
	.st0{display:none;fill:#FEFEFE;}
	.st1{fill:#6267A0;}
	.st2{fill:#505688;}
	.st3{fill:#6368A0;}
	.st4{fill:#283059;}
	.st5{fill:#FEA5A6;}
	.st6{fill:#9598C7;}
	.st7{fill:#B77F8C;}
	.st8{fill:#505689;}
	.st9{fill:#F5727F;}
	.st10{fill:#FEFEFE;}
	.st11{fill:#F57280;}
	.st12{fill:#CBCBFE;}
	.st13{fill:#F4717F;}
</style>
<g>
	<g>
		<path class="st0" d="M0.1,347.2c0-114.6,0-229.2-0.1-343.7C0,0.8,0.4,0,3.4,0c345.1,0.1,690.3,0.1,1035.4,0c3,0,3.7,0.5,3.7,3.6
			c-0.1,197.7-0.1,395.3,0,593c0,3-0.8,3.4-3.5,3.4c-121-0.1-242-0.1-363-0.1c-0.8-2.2,0.4-4.2,1.1-6.1
			c9.8-25.1,16.9-51.1,24.2-76.9c1.5-4.4,2.9-8.8,3.9-13.3c1.3-5.7,3.9-10.7,7-15.6c9.5-15.1,18.5-30.5,27.9-45.6
			c1.9-3,2.3-5.7,0.3-8.6c-4.2-8.8-8.3-17.7-12.6-26.4c-2.3-7.1-7-11.3-14.3-13.5c-10.7-3.3-21-7.6-31.3-11.9
			c-4.4-1.8-7.8-1.8-11,1.7c-10,6.8-19.5,14.2-29.3,21.3c-8.4,6.1-16.5,12.4-25,18.4c-2.3,1.7-4.5,3.5-6.1,6
			c-0.7,1.1-1.5,2.8-3.4,1.7c-0.7-1.4,0.1-2.7,0.5-3.9c2.5-6.9,4.9-13.8,7.4-20.7c14.1-40.4,28.9-80.6,43.1-120.9
			c0.7-2,1.1-4.2,3.9-4.3c1,0,2,0.1,2.9,0.5c11.6,4.3,23.3,8.2,34.8,12.6c11.2,4.3,22.5,8.2,33.8,12.2c25.5,9,51.2,17.8,76.6,27.2
			c12,4.4,24,8.6,35.9,13.1c4.8,1.8,5.2,1.6,6.8-3c8.2-22.5,15.9-45.2,24.5-67.6c8.9-23.2,15.6-47.2,24.8-70.3
			c6.9-17.3,12.4-35.1,19-52.5c1.3-3.4,1.1-3.8-2.5-5.1c-16.6-5.9-33-12.3-49.7-17.9c-25.7-8.6-51-18.2-76.6-27.2
			c-30.7-10.9-61.5-21.5-92.1-32.8c-15.3-5.7-30.7-11.5-46.2-16.6c-22.4-7.5-44.4-15.9-66.7-23.8c-15.7-5.5-31.2-11.4-46.9-16.7
			c-6.2-2.1-12.3-4.8-18.5-7.1c-2.6-1-3.9-0.5-4.7,2.2c-7.4,23.5-16.5,46.3-24.7,69.6c-5.6,15.9-11.8,31.6-17.1,47.6
			c-8.4,25.2-17.9,50.1-26.8,75.2c-0.9,2.4-0.5,3.5,2,4.4c20.1,7.4,40.4,14.5,60.6,22c29,10.8,58.6,20.1,87.5,31.2
			c8.6,3.3,17.4,6.3,26.1,9.3c1.6,0.6,3.4,0.9,4.5,2.5c0.6,1.4,0,2.7-0.4,4c-16.6,47.6-34,94.9-50.7,142.4
			c-6.3,18-13,35.9-19.3,53.9c-0.7,2-0.8,4.5-3.4,5.4c-1.8-1-2-2.8-2.5-4.4c-3.4-12-6.8-24-10.3-36c-5.5-19.7-11.3-39.4-17-59
			c-2.3-7.9-4.9-15.8-6.8-23.8c-3.2-13.9-10.7-25.8-17.2-38.1c-7.8-14.8-15.9-29.5-23.8-44.2c-10.6-19.8-21.1-39.7-31.9-59.4
			c-2.3-4.2-4.2-8.5-6.7-12.6c-1.1-1.8-2.4-3.1-4.2-4.1c-22.1-11.4-44-23-66.1-34.3c-8.8-4.5-17.7-8.7-26.2-13.8
			c-5.1-3.1-10.8-2.8-16.3-3.1c-12.8-0.8-25.6-1.2-38.4-2.3c-10.2-0.8-20.2-0.1-30.3,2.5c-18.7,4.9-37.6,9.1-56.4,13.5
			c-2.9,0.7-5.6,0.8-8.5,0.2c-21.9-3.9-43.8-7.8-65.6-11.7c-3.3-0.6-6.2-0.2-9.2,1.6c-21.8,12.9-44.1,25.1-65.9,37.8
			c-9.7,3.8-15.3,10.8-18.4,20.9c-2.9,9.6-7.4,18.8-11.1,28.2c-3.3,8.4-3.9,17.5-5.5,26.3c-5.2,27.8-10.2,55.7-15.2,83.6
			C2.2,345,2.2,346.9,0.1,347.2z"/>
		<path class="st1" d="M52.4,183.7c19.6-11.2,39.4-22,58.6-33.9c8.4-5.2,16.1-6.2,25.5-4.3c19.2,4,38.7,7,58.1,10.6
			c2.3,0.4,4.4,0.2,6.6-0.3c22.7-5.4,45.3-10.7,68-16.1c6.7-1.6,13.4-0.1,20.1,0.2c15.6,0.6,31.1,1.8,46.7,2.6
			c1.9,0.1,3.6,0.5,5.3,1.4c31.8,16.5,63.5,33,95.3,49.4c2,1,3.3,2.4,4.4,4.4c24.8,46.3,49.6,92.6,74.3,139c3.7,7,4.8,14.9,7,22.4
			c7.2,24.6,14.3,49.3,21.5,74c0.2,0.6,0.2,1.2,0.3,1.8c-6.3,3.1-11.2,8.1-14.8,13.9c-9.3,15.2-17.1,31.4-26.5,46.5
			c-10.6,17-15,36.1-21.2,54.6c-5.2,15.4-9.9,30.9-14.9,46.4c-0.4,1.3-0.9,2.6-2,3.5c-102.4,0-204.8,0-307.2,0
			c-14.7-18.6-31.8-35.2-47.2-53.1c-4.5-5.2-7-11.8-10.2-17.8c-13.6-25.5-27.2-51.1-41-76.6c-1.8-3.3-3.1-6.8-4.1-10.4
			C45.5,408.5,36,375,26.4,341.7c-0.7-2.5-0.8-4.8-0.3-7.4c7.5-43.1,15.2-86.1,22.6-129.2C49.9,198,51.1,190.8,52.4,183.7z"/>
		<path class="st2" d="M52.4,183.7c2,2.2,0.2,4.6-0.1,6.7c-4.5,27.1-9.3,54.3-14,81.4c-3.8,21.5-7.5,43-11.5,64.5
			c-0.6,3.1,0.8,5.6,1.6,8.2c9.3,33.2,18.6,66.3,28.1,99.5c2,7.1,6.5,13.1,9.8,19.7c4.4,8.8,9.3,17.3,14,26
			c9.6,17.9,19.2,35.8,28.7,53.8c1.9,3.6,5.1,6.1,7.7,9.1c9,10.3,18.5,20.2,27.8,30.3c3.7,4,7.3,8.2,10.8,12.4
			c1.1,1.3,1.9,2.9,2.2,4.7c-51.4,0-102.8,0-154.2,0.1c-2.8,0-3.2-0.7-3.2-3.3c0.1-83.2,0.1-166.3,0.1-249.5
			c2.5-5.1,2.6-10.8,3.6-16.2c5.7-30.7,11.2-61.4,16.7-92.1c0.6-3.4,2.2-6.4,3.4-9.5C28.3,218,33,206.6,37.4,195
			c1-2.7,2.5-4.7,5.2-6C45.9,187.4,49.1,185.5,52.4,183.7z"/>
		<path class="st3" d="M670.7,382.8c3.1-3.6,6.3-4.1,11-2.2c12.1,5.1,24.5,9.7,36.9,14.2c3.8,1.4,6.4,3.4,7.7,7.2
			c0.6,1.8,1.5,3.4,2.2,5.1c-4.7,2.2-8.3,5.8-12.5,8.8c-1.4,1-2.6,2.3-4.3,2.9c-0.4,0.1-0.7,0-1.1,0c-8.7-5.6-18.8-5.3-28.5-6.9
			c-4.1-0.7-8.2-1.1-12.2-1.8c-2.9-0.5-4,0.6-4.9,3.1c-7,19.4-14.2,38.7-21.5,57.9c-1.8,4.8-3.5,9.6-5.4,14.4c-1.1,2.7-0.5,4,2,5.3
			c9,4.8,18.1,9.5,27.1,14.4c0.8,0.7,2.3,0.9,2.1,2.5c-3.3,3.7-4.5,8.5-6.6,12.9c-5.5,11.9-10.7,23.9-16.3,35.7
			c-4.1,8.7-5.3,18.2-8,27.2c-1.2,4-2.1,8.2-3.1,12.3c-0.4,1.5-0.7,2.9-2,3.9c-39.5,0-78.9,0-118.4,0c-0.5-1.3,0.5-2.1,1.3-2.9
			c10-10.3,19.4-21.1,29.2-31.6c7.5-8.1,15.5-16,22.3-24.7c4.4-5.6,6.9-12.4,9.9-18.9c3.1-6.8,6.4-13.5,9.6-20.3
			c7.8-16.3,15.5-32.7,23.6-48.9c2.9-5.8,5.4-11.8,8.3-17.6c1.6-3.1,3.6-5.7,6.4-7.6c1.8-1.2,3.3-2.6,5.1-3.8
			c12.8-8.3,23.4-19,32.2-31.4C665.2,388.9,668.2,386.1,670.7,382.8z"/>
		<path class="st2" d="M670.7,382.8c-1.3,4.6-5.3,7.3-8,11c-3.4,4.7-7.2,9.2-10.9,13.7c-4.1,5.2-9.8,8.5-14.8,12.4
			c-4.2,3.3-8.6,6.3-12.8,9.6c-4.3,3.4-5.6,8.8-7.9,13.4c-4.3,8.6-8.2,17.4-12.3,26c-10.7,22.1-21.4,44.2-32,66.4
			c-1.9,4-4.5,7.5-7.4,10.7c-10.2,11.1-20.5,22.1-30.8,33.1c-6.3,6.8-12.6,13.8-18.8,20.7c-16.7,0-33.5,0-50.2,0
			c3.4-10.9,6.9-21.8,10.3-32.8c4.5-14.1,9.4-28.1,13.5-42.4c3.3-11.4,8.9-21.6,14.6-31.8c6.7-11.9,13.6-23.8,20.1-35.9
			c4.7-8.7,10.5-16.3,18.3-22.3c1.2-0.9,1.8-0.9,2.7,0.1c3.5,12,7,24,10.5,35.9c0.5,1.5,1,3,1.6,4.6c1.2,1.8,0.1,3.4-0.4,5
			c-7.2,20.9-14.6,41.7-22.2,62.4c-1,2.8-2,5.7-2.9,8.5c-0.4,1.2-0.9,2.4,0.2,3.5c2.3,1.7,3.9,0.8,5.3-1.3c3.6-5.5,7.2-11.1,10.2-17
			c6.4-12.6,11.8-25.7,19.3-37.7c12.4-19.9,24.6-40,37.3-59.7c1.7-2.6,2.6-5.6,4.9-7.9C626.5,412.3,649.8,399.1,670.7,382.8z"/>
		<path class="st2" d="M633.3,599.9c3-11.8,6-23.6,9-35.4c1.7-6.5,5.2-12.4,7.8-18.5c5.3-12.1,10.8-24.1,16.2-36.1
			c0.6-1.4,1.2-2.4,3-2.2c0.8-0.6,1.6-0.5,2.5-0.3c9.5,2.6,19,5.4,28.5,8.2c0.7,0.2,1.4,0.6,1.9,1.2c-1.9,9.2-5.1,17.9-7.5,27
			c-5.1,19.1-11.9,37.7-18.7,56.2C661.7,599.9,647.5,599.9,633.3,599.9z"/>
		<path class="st4" d="M629.6,270c-16.7-6-33.5-12-50.2-17.9c-27.5-9.8-55.1-19.6-82.7-29.4c-15.9-5.7-31.8-11.5-47.7-17.2
			c-1.2-0.4-2.9-0.2-1.9-2.8c6-14.7,11-29.8,16.3-44.7c11.4-32.1,22.5-64.2,34.2-96.2c6.7-18.4,13.4-36.8,19.6-55.4
			c0.6-1.9,1.1-3,3.8-2c13.6,5.2,27.3,10.2,41,15.1c25.9,9.4,51.9,18.7,77.9,28c29.5,10.5,58.9,20.9,88.4,31.4
			c23.2,8.2,46.4,16.4,69.5,24.9c27.5,10,55,19.9,82.6,29.5c13.5,4.7,26.9,9.9,40.5,14.5c2.8,0.9,3.2,1.5,2.2,4.4
			c-5.4,14.4-10.2,29.1-15.6,43.5c-10.5,28.1-20,56.6-30.2,84.9c-6.9,19.1-13.7,38.2-20.6,57.2c-1.2,3.2-2.6,6.4-3.6,9.6
			c-0.7,2-1.6,2-3.3,1.4c-12.2-4.4-24.5-8.6-36.7-12.9c-12.5-4.5-24.8-9-37.3-13.5c-30.1-10.8-60.2-21.6-90.2-32.3
			c-7.7-2.8-15.5-5.4-23.2-8.1c-3.6,0.2-6.6-1.9-9.9-2.9c-6.9-2.1-13.6-4.7-20.4-7.2C631.1,271.4,630.3,270.8,629.6,270z"/>
		<path class="st5" d="M629.6,270c10.9,3.9,21.8,7.8,32.7,11.8c-1.8,0.1-2.1,1.5-2.5,2.8c-11.8,33-23.5,66.1-35.3,99.1
			c-2.7,7.6-5.5,15.2-8.3,22.8c-2.8,4.2-6.5,7.5-10.3,10.8c-1.4,1.2-2.8,2.5-4.4,3.5c-13.7,8.6-22.3,20.7-27.8,36.1
			c-6.2,17.2-14.4,33.8-21,50.9c-5.5,14.3-11.7,28.4-17.8,42.5c-0.9,2.1-0.6,5.5-4.3,5.6c-3.1-0.5-1.7-2.3-1.2-3.8
			c8.3-23.4,16.7-46.7,25-70.1c0.8-2.1,1.8-4.1,1.9-6.4c5-11.9,9-24.3,13.3-36.5c18.2-50.6,36.3-101.3,54.4-152
			C625.9,281.4,627.7,275.7,629.6,270z"/>
		<path class="st6" d="M702.1,516.7c-8.3-1.5-16.2-4.5-24.3-6.6c-2.9-0.8-5.7-1.6-8.5-2.5c-0.8-0.5-1.5-0.9-2.3-1.4
			c8-17.2,15.4-34.6,23.2-51.9c3.9-8.6,7.6-17.4,11.4-26.1c1.9-4.5,4.4-8.4,9.6-9.7c0.3-0.1,0.6-0.1,1-0.2c0.8-0.2,1.5-0.1,2.2,0.3
			c8.9,5.1,18.5,9.1,27.1,14.8c2.4,3,2,5.7,0,9c-10.2,16.3-19.9,32.8-30.1,49.1c-3.5,5.7-4.6,12-6.6,18.1
			C703.7,512,702.9,514.4,702.1,516.7z"/>
		<path class="st7" d="M530.5,555.8c2.8-1.9,3.1-5.1,4.3-7.9c5.2-12.1,10.6-24,15.3-36.3c6-15.4,12.5-30.5,18.9-45.8
			c3-7.2,6.5-14.3,9.2-21.6c2-5.5,4.7-10.1,9.5-13.8c9.9-7.4,19.5-15.3,28.4-24c-2.5,7.1-5,14.2-7.5,21.3c-0.4,1.1-1.1,2.2-0.9,3.5
			c-1.5,5.8-5.5,10.2-8.5,15.2c-11.3,18.3-23.2,36.3-34,54.9c-7.2,12.3-13.1,25.5-19.5,38.3c-2.8,5.6-6.5,10.6-9.7,15.9
			C534.2,558.5,532.4,556.3,530.5,555.8z"/>
		<path class="st8" d="M741.2,433.5c-8.8-3.4-16.7-8.6-25.1-12.7c-1.4-0.7-2.8-1.6-4.2-2.4c4.2-4.1,9.3-7.2,13.8-10.9
			c0.8-0.7,1.8-0.7,2.8-0.3C732.8,415.9,737,424.7,741.2,433.5z"/>
		<path class="st9" d="M305.9,407.2c0.4,1.8-1.7,1.6-3,1.8c-8.9,1.7-17.9,3.2-26.8,4.8c-14.1,2.5-28.2,4.9-42.3,7.5
			c-3,0.6-4-0.3-4.5-3.3c-3.8-22.2-7.8-44.4-11.6-66.6c-4.7-26.8-9.3-53.5-13.9-80.3c-3.3-19.1-6.7-38.3-10.1-57.4
			c-0.9-4.9-1-4.9,4-5.8c22.8-4,45.7-7.8,68.5-11.9c3.8-0.7,3.1,2.1,3.5,3.7c2.1,11.6,4.1,23.3,6.1,34.9
			c6.2,35.6,12.5,71.2,18.7,106.8c3.7,21.2,7.5,42.4,11.2,63.6C305.7,405.6,305.7,406.1,305.9,407.2z"/>
		<path class="st10" d="M96.8,359.1c1.4-19,1.4-37.2,2.5-55.4c0.7-11.3,2.8-22.5,4.1-33.8c0.2-1.9,1.1-2.2,2.7-2.1
			c3.6,0.2,7.2,0.5,10.8,0.6c1.4,0,2.2,0.9,3.1,1.9c6.5,7.6,13,15.2,19.5,22.7c0.9,1.1,1.4,2.4,1.8,3.6c8,22.2,16.1,44.3,24,66.5
			c2.5,7,1.9,14.6,2.5,21.9c2.1,23.4,3.8,46.8,5.9,70.2c0.8,8.5-1.5,16.6-2.8,24.8c-0.2,1.3-1.1,1.8-2.1,2.3
			c-5.2,2.4-9.6,2.7-15.1-0.6c-9.1-5.3-15.5-12.4-21.7-20.8c-13.8-18.4-20.2-39.4-25.3-61.2c-2.8-11.9-5.8-23.7-9.4-35.4
			C96.5,362.4,96.8,360.3,96.8,359.1z"/>
		<path class="st10" d="M420.2,358.5c-0.6,17.1-1,35.6-2.1,54c-0.7,10.9-2.7,21.8-4,32.7c-0.2,2-1,2.7-3.1,2.5
			c-3.5-0.4-7-0.5-10.5-0.6c-1.5,0-2.2-0.9-3-1.9c-6.4-7.5-12.8-15-19.2-22.5c-1-1.2-1.6-2.5-2.1-3.9c-8-22.2-16-44.4-24-66.5
			c-1.8-5-1.5-10.4-1.9-15.5c-2-22.4-3.7-44.8-5.5-67.1c-0.4-4.2-0.9-8.4-1.2-12.7c-0.6-7.6,2-14.8,3.4-22.1
			c0.4-2.1,2.8-1.7,4.2-2.5c4.1-2.3,7.5-1.2,11.7,0.9c10.3,5.2,17.1,13.2,23.6,22.5c10.9,15.8,18.4,32.5,22.3,51.3
			c3,14.1,7.2,28,11,42C420.4,351.7,420.5,354.3,420.2,358.5z"/>
		<path class="st11" d="M322.3,502.2c0.5,2.1-0.5,3-3.1,3.4c-23.3,3.9-46.6,8-69.9,12.2c-2.1,0.4-2.5-0.1-2.8-2
			c-3.9-22.8-7.9-45.6-12-68.4c-0.5-2.7-0.3-3.8,2.9-4.3c23.3-3.9,46.6-8.2,69.8-12.3c1.6-0.3,2.7-0.4,3.1,1.9
			c3.9,22.6,7.9,45.1,11.8,67.7C322.3,500.8,322.2,501.3,322.3,502.2z"/>
		<path class="st10" d="M246.9,553.6c19.6-4.9,38.8-9.6,58.1-14.4c13.2-3.3,26.4-6.5,39.6-9.9c2.5-0.7,3.2-0.3,3,2.4
			c-0.8,8.1-1.4,16.2-1.9,24.3c-0.1,1.9-0.7,3.2-2.1,4.5c-6.2,5.8-12.4,11.6-18.9,17.1c-2.7,2.3-5.5,3.4-9.2,3.4
			c-9.9-0.1-19.7,0-29.6,0.2c-2,0-3.9-0.4-5.8-1.3c-6.1-3-12.1-5.9-18.3-8.6c-3.4-1.5-5.8-3.6-7.7-6.7
			C252.1,560.9,249.5,557.5,246.9,553.6z"/>
		<path class="st12" d="M711.1,418.6c-6.2,3.3-8.4,9.5-11,15.4c-10.1,23-20.2,46-30.4,69c-0.6,1.3-0.8,3-2.7,3.3
			c-9.6-5.1-19.1-10.2-28.8-15.2c-2.1-1.1-2.4-2-1.6-4.3c9.4-24.8,18.6-49.7,27.8-74.6c1-2.6,1.8-3.6,5-3.1
			c9.8,1.7,19.7,2.8,29.6,4.1C703.5,413.8,707.5,415.7,711.1,418.6z"/>
		<path class="st10" d="M788.1,179.3c22.9,0.1,39.5,17.9,39.2,38.1c-0.2,14.2-7.9,24.1-20.6,29.8c-19.7,8.9-42.1,0.3-51-19.6
			c-9.7-21.7,3-42.6,25.5-47.6C783.7,179.5,786.1,179.1,788.1,179.3z"/>
		<path class="st10" d="M625.1,164.6c-3.8-1.4-7.5-2.6-11.1-3.9c-5.4-1.9-10.7-3.9-16.2-5.8c-3.3-1.1-3.8-0.4-5.6,5.2
			c-1,2.9,0.9,3,2.7,3.7c9.7,3.4,19.3,7,28.9,10.4c1.4,0.5,1.9,1.1,1.2,2.7c-1.6,3.9-2.9,7.9-4.2,11.9c-0.6,1.7-1.4,1.9-3.1,1.3
			c-15.8-5.7-31.7-11.4-47.5-17c-2-0.7-2.3-1.5-1.6-3.5c5-13.8,9.9-27.7,14.8-41.6c2-5.5,3.9-11,5.6-16.6c1-3.3,2-4.7,6.1-3.2
			c15,5.6,30.3,10.7,45.4,16.1c1.8,0.6,3,1.2,1.9,3.7c-1.6,3.6-2.7,7.4-4,11.2c-0.7,2-1.6,2.2-3.5,1.5c-9.1-3.4-18.3-6.6-27.5-9.8
			c-1.4-0.5-3-1.9-4.4-0.2c-1.4,1.8-1.7,4.1-2,6.3c-0.2,1.2,1.3,1,2,1.2c7.3,2.7,14.6,5.3,21.8,7.9c1,0.4,2.1,0.7,3.2,1.1
			c2.7,1,3.8,2.4,2.1,5.4c-1.7,3.1-2,6.9-3.7,10.1C626.1,163.6,626.1,164.6,625.1,164.6z"/>
		<path class="st10" d="M522.7,128.1c-1.9-0.2-1.8,1.2-2.1,1.9c-2.1,5.8-4.3,11.6-6.2,17.5c-1.5,4.7-1.7,4.9-6.2,3.4
			c-3.9-1.4-7.7-2.8-11.6-4.1c-1.8-0.6-2.3-1.4-1.7-3.2c5.8-16,11.5-32.1,17.4-48.1c1.5-4.1,3-8.1,4.2-12.3c0.7-2.3,1.6-2.5,3.8-1.6
			c4.3,1.8,8.8,3.2,13.2,4.8c1.7,0.6,2.3,1,1.3,3.3c-2.8,6.6-4.9,13.4-7.3,20.1c-0.6,1.6,0.4,1.9,1.5,2.3c6.5,2.3,13,4.7,19.5,7
			c2.3,0.8,3.3-0.2,4.1-2.4c2-6.1,4.4-12.1,6.5-18.2c0.7-2.2,1.7-2.5,3.7-1.7c4.2,1.7,8.5,3.2,12.9,4.6c2,0.6,2.5,1.5,1.8,3.5
			c-7.1,19.8-14.2,39.6-21.3,59.4c-0.9,2.6-2.1,3.2-4.7,2.1c-4-1.7-8.2-3.1-12.3-4.4c-1.9-0.6-2.3-1.3-1.6-3.2
			c2.4-6.3,4.4-12.7,6.8-19c1-2.5,0.8-3.9-2-4.8c-6.2-2-12.2-4.3-18.3-6.5C523.5,128.4,522.9,128.2,522.7,128.1z"/>
		<path class="st10" d="M730.5,157.2c-0.6,2.4-0.9,4.3-1.6,6c-4,9.6-7.1,19.5-10.5,29.2c-1.2,3.5-2.6,6.9-3.8,10.4
			c-1,3,0.1,3.9,2.7,4.8c8.1,2.7,16,5.6,24.1,8.2c2,0.6,2.4,1.5,1.7,3.2c-1.4,3.9-2.8,7.7-4.2,11.6c-0.6,1.9-1.6,2.1-3.4,1.5
			c-14.6-5.3-29.3-10.5-44-15.7c-1.7-0.6-2-1.2-1.3-2.9c4.3-11.8,8.5-23.7,12.8-35.6c2.9-8.1,6-16.2,8.7-24.4c0.9-2.6,1.9-2.9,4.3-2
			c4.1,1.7,8.3,3,12.5,4.5C729.3,156.5,730.5,156.5,730.5,157.2z"/>
		<path class="st10" d="M686.1,197.2c-1.2,3.2-2.2,6.3-3.4,9.3c-2.3,6-2.3,6-8.4,3.8c-13.1-4.7-26.2-9.4-39.4-14.1
			c-2.2-0.8-3-1.2-1.9-4c3.4-8.6,6.2-17.4,9.3-26.1c4-11,8.1-22,12-33.1c0.8-2.3,1.5-2.7,4-2.1c4.5,1.1,8.4,3.8,13,4.4
			c1.8,0.3,2.3,1.5,1.6,3.3c-5.1,13.3-10,26.6-14.4,40.2c-2.2,6.8-2.2,6.8,4.5,9.3c7,2.6,13.9,5,20.9,7.5
			C684.7,196.1,685.8,196.1,686.1,197.2z"/>
		<path class="st9" d="M853.5,201.4c4.2,1.5,8.7,3.1,13.1,4.8c1.5,0.6,0.6,1.7,0.3,2.5c-3,8.6-6.1,17.3-9.2,25.9
			c-1.5,4.2-3.4,8.3-4.6,12.6c-0.9,3.3-2.3,3.7-5.2,2.4c-3-1.4-6.3-2.4-9.5-3.4c-1.9-0.6-2.2-1.3-1.5-3.2c4.9-13.3,9.7-26.7,14.5-40
			C851.7,202.1,851.9,201,853.5,201.4z"/>
		<path class="st13" d="M829.4,263.8c1.3-3.5,2.9-8,4.6-12.4c0.5-1.3,1.4-0.5,2.2-0.3c2.7,1,5.3,2,8,2.9c5.9,2.1,6,2.1,3.5,8
			c-1.3,3-1.1,7.8-3.9,8.8c-2.4,0.8-5.9-1.7-8.9-2.8c-1.5-0.5-3-1.2-4.4-1.8C829.7,265.9,828.9,265.7,829.4,263.8z"/>
		<path class="st4" d="M772.4,214.7c0.1-9.9,8.3-17.8,18.4-17.7c9.3,0.1,16.9,8.2,16.9,17.9c0,9.7-8.6,18.1-18.3,18
			C780,232.8,772.3,224.6,772.4,214.7z"/>
	</g>
</g>
</svg>
