<?xml version="1.0" encoding="utf-8"?>
<!-- Generator: Adobe Illustrator 21.0.0, SVG Export Plug-In . SVG Version: 6.00 Build 0)  -->
<svg version="1.1" id="Layer_1" xmlns="http://www.w3.org/2000/svg" xmlns:xlink="http://www.w3.org/1999/xlink" x="0px" y="0px"
	 viewBox="0 0 510.8 506.2" style="enable-background:new 0 0 510.8 506.2;" xml:space="preserve">
<style type="text/css">
	.st0{display:none;fill:#FEFEFE;}
	.st1{fill:#6368A0;}
	.st2{fill:#505688;}
	.st3{fill:#9598C7;}
	.st4{fill:#F57280;}
	.st5{fill:#FEFEFE;}
	.st6{fill:#CBCBFE;}
</style>
<g>
	<g>
		<path class="st0" d="M255.4,506.2c-84.1,0-168.2,0-252.3,0.1c-2.6,0-3.1-0.5-3.1-3.1C0.1,336.5,0.1,169.8,0,3.1C0,0.5,0.5,0,3.1,0
			c168.2,0.1,336.4,0.1,504.6,0c2.6,0,3.1,0.5,3.1,3.1c-0.1,166.7-0.1,333.4,0,500.1c0,2.6-0.5,3.1-3.1,3.1
			C423.6,506.2,339.5,506.2,255.4,506.2z"/>
		<path class="st1" d="M120,483.6c-11.8-2-23.6-4-35.3-6c-1.6-0.3-2.4-1.2-3.1-2.8c-1.4-3.2-1.7-6.8-4.2-9.5c-1.8-2-1-4.5-0.9-6.8
			c0.2-16.7,4.6-32.8,8.7-48.8c2.8-10.7-0.4-20.2-3.6-29.9c-0.7-2.2-2.8-3.4-4.3-5.1c-0.8-0.9-2-1.8-1.4-3.2c0.5-1.1,2-1,3-1
			c4.1-0.3,8.2-0.9,12.3-1.1c7.4-0.3,13.5-4.2,20-7.1c13.8-6.2,27.4-12.6,41.3-18.5c11.5-4.9,23.9-7.3,35.8-10.8
			c3.2-0.9,5-2.5,5.4-5.8c0.2-1.4-0.3-1.9-1.6-1.5c-0.8,0.2-1.7,0.5-2.5,0.8c-20.6,6.8-41.2,13.8-61.8,20.5
			c-2.5,0.8-4.8,2.2-6.9,3.7c-11.3,8-23.8,13.6-36.9,17.7c-1.4,0.5-2.8,1-4.2,1.5c-6.9,2.5-11.9-0.9-12.3-8.4
			c21.3-9.9,42.6-20,64-29.8c5.6-2.6,10.6-5.9,15-10.2c9.6-9.3,19.4-18.4,29.1-27.5c1.6-1.4,2.4-3,2.9-5c5.3-22.5,10.6-45,16-67.5
			c0.9-3.6,0.4-7.2,0.3-10.8c-0.6-26.6-1.3-53.1-2-79.6c-0.2-8.6-0.4-17.2-0.8-25.8c-0.1-2.9,0.6-5.1,2.6-7.4
			c10-11.7,19.9-23.4,29.6-35.2c3.4-4.1,7.7-6.8,12.1-9.2c10.1-5.4,18-12.7,22.9-23.1c0.5-1.1,1.5-2,2-3.2c2.3-6.2,6.8-7.1,12.9-6.8
			c29.4,1.5,58.9,2.6,88.3,3.9c8.5,0.4,17,0.9,25.4,1.2c1.4,0.1,2.6,0.3,3.8,1.3c28.8,23.9,57.7,47.7,86.6,71.5
			c0.2,0.2,0.3,0.4,0.4,0.6c0.8,7.6-0.5,15.2-0.9,22.8c-0.3,6.3-0.7,12.7-1,19c-0.5,11.8-1.2,23.6-1.9,35.4
			c-0.9,16.4-1.6,32.8-2.6,49.2c-0.4,6.9-1.2,13.9-1,20.9c0.1,4.6-1.1,8.8-3.3,12.9c-16.3,31.1-34.1,61.3-51.7,91.6
			c-6,10.4-8.8,21.6-12,32.9c-3.1,10.9-6.1,21.9-9,32.8c-1.3,4.8-2.2,5.3-7,5.5c-22,1.1-44.1,1.1-66.1,3.5c-8.7,1-17.4,1.5-26.1,2.2
			c-6.7,0.6-12.8,3.4-19.1,5.2c-5.4,1.5-10.8,3.3-16.1,5c-3.6,1.2-4.3,0.5-4.6-3.4c-0.3-3.8,1-6.5,4.2-8.9
			c11.4-8.9,23.7-16.2,37.9-19.8c3.5-0.9,7-1.5,10.7-1.7c15.2-0.5,30.4-0.7,45.6-1.5c4-0.2,6.9-2.7,10-4.7c1.4-0.9,1.1-2.4,0.8-3.7
			c-1.9-7.5-4.1-14.9-6.2-23c-1.9,3.1-2.9,6-4,8.8c-1.3,3.3-3.5,4.8-6.9,5.5c-11.2,2-22.3,4.2-33.5,6.1c-8.7,1.5-17,3.9-25.3,6.7
			c-23.7,7.9-47.2,16.6-71.2,23.3c-18.4,5.2-37,9.4-56.2,10.9c-2.5,0.2-3.9-0.6-4.2-3c-0.9-6.2-0.5-12.4-0.3-18.7
			c0.1-2.1,1.9-2.8,3.6-3.2c4.6-1.2,9.2-2.2,13.9-3.3c22.9-5.6,45.9-11.2,68.8-16.8c25.4-6.2,50.7-12.4,76.1-18.6
			c4.3-1,4.3-1.1,2.6-5.1c-1.6-4-2.9-8.2-4.9-12.5c-1.6,1.4-1.8,3.1-2.4,4.6c-1,2.6-2.8,4-5.5,4.5c-48.3,9.8-96.2,21.7-144.7,30.9
			c-1.4,0.3-2.7,0.5-4.1,0.8c-2.5,0.6-4.4-0.3-4.7-2.9c-0.8-6.4-5.9-7.3-10.7-8.7c-2-0.6-2.9,0.6-3.7,2.2
			c-2.6,5.5-5.2,11.1-8.4,16.3c-0.3,0.3-0.6,0.5-1,0.6c-5.3-0.5-9.9-3.2-14.8-4.8c-2.7-0.8-3.8-0.8-4.7,2.1
			c-3.9,12.2-8,24.3-12.1,36.4c-1,2.9-0.6,4.6,2.1,6.5c4.7,3.1,9.2,5.4,14.9,3.1c0.9-0.4,2-0.3,2.7,0.6c0.8,1.4,0.4,2.9,0.1,4.4
			c-1.9,9.5-2.5,19.2-3.7,28.8C116.5,480.2,119.4,481.2,120,483.6z"/>
		<path class="st2" d="M132.8,399.1c0.6-3.5,3-6.2,4.4-9.4c0.8-2,1.9-3.8,2.8-5.7c2.8-5.7,2.7-5.3,8.7-3.8c4.9,1.2,8,3.5,8.4,8.8
			c0.1,2,1.3,2.4,3.3,1.9c16-3.4,32.1-6.5,48.1-9.9c17.7-3.7,35.6-7,53.2-11.3c15.9-4,31.7-8.4,48-10.5c2-0.3,3.6-1.1,4.3-3.5
			c0.6-2.5,1.9-4.8,3.1-7.7c2.9,4.8,4.2,9.8,6.1,14.6c2.3,5.7,2.2,5.8-4,7.3c-25.8,6.3-51.7,12.7-77.5,19
			c-26.3,6.4-52.6,12.8-79,19.1c-3.4,0.8-4.8,2-4.4,5.6c0.5,5.1-0.2,10.2,0.4,15.3c0.3,2.2,1.2,2.6,3.4,2.4
			c31.2-3.2,61.2-11.7,90.7-22c15.9-5.6,31.8-11,47.9-15.9c10.3-3.1,21.1-4.2,31.8-6.2c5.9-1.1,11.7-2.1,17.6-3.3
			c1.8-0.3,3-1.2,3.7-3.2c1.5-4,3.4-7.9,5.4-12.3c2.2,3.7,2.4,7.5,3.5,11c1.7,5.3,3,10.8,4.5,16.2c0.2,0.9,0.8,1.8-0.2,2.4
			c-4,2.1-7.3,5.6-12.3,5.8c-10.5,0.3-20.9,0.9-31.4,0.7c-15.1-0.2-29.8,2.5-43.4,9.2c-4.6,2.3-8.7,5.8-13,8.8
			c-1.6,1.1-3.2,2.4-4.9,3.4c-3.6,2.1-5,5-4.6,9.2c0.2,2.1,0.5,2.8,2.8,2.1c7.9-2.6,16.1-4.6,23.8-7.6c8.3-3.2,17-3.3,25.6-4.1
			c11.2-1.2,22.5-2.1,33.8-2.9c6.1-0.5,12.2-0.5,18.3-0.7c9.6-0.3,19.2-0.7,28.8-0.9c2.8,0,3.3-1.7,3.8-3.6
			c3.1-11.5,6.3-23,9.4-34.5c1.7-6.1,3.2-12.2,5-18.3c2.3-7.9,7.4-14.4,11.2-21.4c7.6-13.7,15.5-27.2,23.3-40.9
			c8.2-14.5,16.4-29,24.2-43.8c1.6-3,3-6.2,2.9-9.5c-0.2-7.1,0.7-14.2,1-21.2c0.6-15.4,1.6-30.8,2.3-46.1c0.4-8.7,1-17.3,1.5-26
			c0.8-14.8,1.6-29.5,2.4-44.3c0.2-4.1-0.6-8.4,1.4-12.4c3.3,2.7,6.5,5.4,9.9,7.9c1.4,1,1.2,2.3,1.2,3.7c0.5,20.6,1,41.1,1.4,61.7
			c0.6,31.3,1.1,62.6,1.6,93.9c0.1,4.5,2.1,8.6,3.4,12.9c2.8,9.8,5.7,19.5,8.7,29.3c0.5,1.8,0.5,3.3,0,5c-13,39-26,78-38.9,117.1
			c-0.6,1.8-1.5,3-3,4.1c-8.4,6-16.9,12-25.2,18.1c-1.2,0.9-2.5,1.6-4,1.8c-24.8,4.3-49.6,8.5-74.3,13c-7.4,1.4-14.6,1.4-21.8-0.1
			c-1.2-2.4,0.8-4,1.8-5.7c1.8-3.2,1.8-5.9-0.2-9c-2.2-3.5-4.4-7-6.2-10.7c-1.3-2.5-3.2-3.5-6.1-3.3c-16,1.3-32.1,1.9-48.2,3
			c-4.7,0.3-9.5,0.4-14.2,1c-4.5,0.6-4.5,0.7-4.6,5.1c0,2.2,0,4.5,0.3,6.7c0.2,1.4,0.5,2.8-0.8,3.8c-14.1-0.9-27.1,4.3-40.6,7.2
			c-29.4,6.1-58.5,13-87.8,19.6c-3.8,0.9-7.4-0.7-11-1.3c-2.9-1.6-4.5-3.1-4.1-7.4c1.1-11,2.6-21.8,4.2-32.7
			c0.1-0.2,0.2-0.3,0.3-0.5c1.6-1.5,3.7-1.4,5.6-1.9c2-0.5,3.2-1.6,3.7-3.7c2.5-10.4,4.6-21,7.2-31.4c0.6-2.5,0.4-4.4-2.5-5.2
			C133.6,400.5,133,399.9,132.8,399.1z"/>
		<path class="st2" d="M67.4,361.5c1.1,0.6,0.8,1.7,1.1,2.6c1.8,5,5.8,6.8,10.6,4.9c5.2-2,10.4-4.1,15.8-5.6
			c8.4-2.5,15.5-7.4,22.7-12c5-3.1,10.2-5.6,15.8-7.4c19.6-6.3,39-12.9,58.5-19.4c1.1-0.4,2.1-0.7,3.2-1c-0.2,7.6-1,8.4-7.6,10.5
			c-11.4,3.5-23.2,5.8-34.2,10.4c-10.9,4.6-21.6,9.6-32.4,14.5c-7.3,3.3-14.6,6.5-21.8,9.8c-2.9,1.4-6.1,1.5-9.1,1.7
			c-4.5,0.2-8.9,1.5-13.3,0.8c-0.5,0.9,0,1.4,0.5,1.8c8.4,6.5,8.5,16.5,10.4,25.5c1.1,5-1.2,10.2-2.4,15.3c-1.9,8.6-4,17.1-6.1,25.7
			c-0.6,2.5-0.8,5.2-0.8,7.7c-0.1,6-1.5,11.9-0.9,17.9c-5.4,3.7-10.8,7.5-16.3,11c-2.9,1.9-6-0.5-9-0.3c-1.1,0.1-2.2-0.4-3.3-0.6
			c-1.3-0.3-2.4-1-2.9-2.1c-2.9-6.3-6.4-12.2-6.5-19.6c-0.1-6.8-0.4-13.6-1.1-20.4c-0.2-1.6-0.4-3.2,1-4.5c3.2-1.4,6.2,0,9.1,0.7
			c3.3,0.8,5.2-0.2,6.4-3.3c1.4-3.5,3-6.9,4.7-10.2c1.8-3.6,1.2-7.6,0.9-11.4c-0.3-3.2-0.6-6.5-0.5-9.7c0.1-2.4-0.7-4.5-1.7-6.8
			c-2.5-5.5-5.8-9.9-12-11.3c-0.7-0.2-1.3-0.7-1.9-1.2c-0.2-0.3-0.6-0.6-0.5-1c2-8.5,3.7-17.2,11.8-22.5c3,0.6,4.2,3.5,6.4,5.1
			C63.8,358.5,65.2,360.5,67.4,361.5z"/>
		<path class="st1" d="M39.9,429c-0.8,0.6-0.9,1.5-0.8,2.4c0.9,8.9,0.6,17.9,1.8,26.7c0.8,6.2,3.7,12.3,8,17.3
			c-9.4-1.3-18.8-2.6-28.1-3.9c-1.9-0.3-3.1-1.1-3.8-3c-1.7-4.3-3.6-8.5-5.5-12.7c-1.1-2.3-0.7-4.6-0.5-7
			c1.4-17.8,2.9-35.5,4.3-53.3c1.1-13.4,2.3-26.8,3.3-40.2c0.2-2.6,1-3.5,3.8-3.5c11.1,0.2,22.2,0.1,33.3,0.2
			c-6.4,6.4-9.3,14.5-11.2,23c-0.3,0.3-0.7,0.4-1.1,0.4c-2.4-0.3-4.5-1.5-6.7-2.4c-2-0.8-3.6-0.6-4.8,1.3c-3.3,5-6.7,9.9-9.9,15
			c-1.5,2.4-1.5,5.1-1.1,7.6c1.2,7.8,0.2,15.7,1.3,23.5c0.4,2.8,1.2,4.2,4.1,4.7c4.3,0.8,8.6,1.4,12.9,2.4
			C39.5,427.9,39.9,428.3,39.9,429z"/>
		<path class="st3" d="M259.4,458.1c-0.2-4.3-0.3-8.7-0.7-13c-0.2-2.6,0.8-3.3,3.3-3.5c11.3-0.9,22.6-1.6,33.9-2.2
			c10.2-0.5,20.3-1.2,30.5-2.1c3.5-0.3,5.8,0.5,7.5,3.9c2.3,4.5,5,8.9,7.6,13.2c0.9,1.5,1.1,2.8,0.2,4.5c-1.5,2.7-2.8,5.5-4.2,8.3
			c-8.2-0.8-16.3-1.6-24.5-2.5c-9.8-1.1-19.5-2.2-29.2-3.4C275.7,460.2,267.5,459.7,259.4,458.1z"/>
		<path class="st4" d="M294.8,130.7c0-20.8,0.1-41.7-0.1-62.5c0-3.7,1.3-4.2,4.3-3.6c12.8,2.3,25.5,4.6,38.3,6.7c3,0.5,4,1.5,4,4.8
			c-0.1,41.9-0.1,83.8,0,125.7c0,3.5-0.9,4.1-4.1,3.5c-13.1-2.4-26.2-4.7-39.4-6.9c-2.5-0.4-3.1-1.6-3.1-4.1
			C294.8,173.1,294.8,151.9,294.8,130.7z"/>
		<path class="st5" d="M373,263.6c-0.4-3.6,1.3-6.8,4.6-9.3c1.7-1.2,1.9-2.5,0.1-3.8c-9.7-6.9-12.1-17.2-13.3-28.3
			c-0.4-3.7,0-6.7,1.7-9.9c4.4-8.4,8.6-16.9,12.7-25.4c0.9-1.9,2.2-3.2,4.2-4c5.4-2.2,10.8-6.2,16.2-6.3c5.3,0,10.6,4,15.8,6.2
			c4.8,2.1,9.6,4.2,14.4,6.2c1.8,0.7,2.8,1.8,3.2,3.7c1.8,8.1,3.6,16.3,5.6,24.4c0.4,1.6,0.2,2.9-0.5,4.2
			c-3.3,6.1-6.7,12.2-9.9,18.5c-1.2,2.4-3.6,2.9-5.5,4.2c-5,3.6-10.2,4.1-15.6,1.1c-2.7-1.5-3.6-0.3-3.9,2.4
			c-0.4,3.2-1.5,6.4,2.1,8.6c1.1,0.7,0.5,1.8,0.2,2.7c-1.1,3.6-2.1,7.2-3.2,10.7c-1.6,5-9.4,8.5-14.2,6.3c-4.9-2.2-9.2-5.5-13.7-8.4
			C372.7,266.6,372.7,265.5,373,263.6z"/>
		<path class="st5" d="M239.3,232.2c2.6,3.3,4.9,6.3,7.3,9.1c1.2,1.4,1.6,2.3-0.2,3.5c-2.5,1.8-4.9,3.8-7.4,5.8
			c-0.8,0.6-1.6,1-2.7,0.7c-3.5-1.1-7-1.9-10.4-2.9c-0.6-0.2-1.5-0.4-1.6-0.8c-1.1-4.6-5.2-8.8-2.6-14.1c0.6-1.2,1-2.5,1.5-3.8
			c2.5-6.4,2.6-6.9-4.3-8.4c-6.1-1.3-8.1-4.5-9.3-10.4c-1.6-7.8,0.6-15.1,0.5-22.6c-0.1-8.1,3.7-12.1,11-14.7
			c6.8-2.4,13.1-6.1,19.6-9.2c1.6-0.8,2.9-0.9,4.6-0.4c3.8,1.2,7.7,2.2,11.5,3.1c1.9,0.5,2.8,1.5,3.5,3.4c3.6,11,7.3,22,11,32.9
			c0.7,2.1,0.3,3.4-1,5c-4.3,5.2-8.5,10.4-12.5,15.8c-1.9,2.5-4.1,4.1-7.2,4.9C247,229.9,243.3,231,239.3,232.2z"/>
		<path class="st4" d="M341.2,243c0,6.5-0.1,13,0.1,19.4c0.1,3-0.3,4.1-3.8,3.5c-13.3-2.5-26.7-4.7-40.1-6.9
			c-1.9-0.3-2.7-1.2-2.7-3.2c0.1-14,0.1-27.9,0-41.9c0-2.1,0.6-2.4,2.6-2.1c13.7,2.4,27.5,4.8,41.2,7.1c2.1,0.4,2.8,1.4,2.7,3.6
			C341.1,229.3,341.2,236.2,341.2,243z"/>
		<path class="st2" d="M142,375.9c-2.4-0.5-4.6-0.8-6.7-1.5c-6.6-2.5-13,0.1-19.4,0.2c-7,0.2-11,3.8-14.1,9.5
			c-1.9,3.5-4.8,6.4-8.5,8.2c-1.3,0.6-3.2,2.5-4.4,0.2c-1.1-2-2.3-4.4,0.6-6.5c4.5-3.3,9-6.7,13-10.6c4.6-4.4,10.5-4.2,15.9-5.1
			c14.9-2.3,29.5-5.8,43.9-10.2c20.8-6.3,41.6-12.5,63.1-16.3c3.9-0.7,7.6-2.4,11.2-4c2.6-1.1,3.9-1,4.8,2c2.2,7.2,2.4,7.3-4.7,9.2
			c-30.9,8.1-61.8,16.2-92.7,24.4C143.2,375.5,142.5,375.7,142,375.9z"/>
		<path class="st6" d="M120.1,443.4c-7.4,3.2-13.6,0.8-19.5-3.8c-1.6-1.3-2.2-2.2-1.6-4.2c4.5-13.4,9-26.9,13.4-40.4
			c0.5-1.6,0.9-2.7,3-1.9c5.4,2.1,11,4,16.5,6c0.7,1.8-0.3,3.2-1.2,4.5c-2.5,3.7-3.6,7.9-4.3,12.2c-1.3,7.7-2.9,15.3-4.2,23
			c-0.3,1.7-0.6,3.5-2.3,4.5L120.1,443.4z"/>
		<path class="st5" d="M337.4,316c-4.8-0.5-9.4-1-13.9-1.5c-8.8-0.9-17.6-1.9-26.4-2.8c-2-0.2-2.5-0.7-2-2.8
			c1.1-4.7,0.6-10.3,3-14.1c2.4-3.8,8.4-4.4,12.4-7.1c4.7-3.2,8.1-2.3,12.7,1c6.5,4.6,10.9,9.8,11.8,17.8
			C335.5,309.6,336.6,312.5,337.4,316z"/>
		<path class="st3" d="M120,443.3c2.3-7.1,3.1-14.5,4.3-21.8c1.3-7.9,3.1-15.5,7.6-22.3c0.3,0,0.6,0,0.8-0.1c6,2.5,6,2.4,4.5,9.1
			c-2.3,10-4.6,20-6.8,30c-0.5,2.1-1.5,3.2-3.6,3.6C124.6,442.2,122.3,442.8,120,443.3z"/>
		<path class="st3" d="M39.9,429c-0.3-0.3-0.6-0.5-0.9-0.8c-1.4-0.8-1.5-2.1-1.7-3.5c-1.1-7.6-2.2-15.3-3.3-23
			c-0.2-1.6-0.2-3.2,0.4-4.8c2.3-6.5,4.7-12.9,7.3-19.2c0.4-1,0.9-2.1,2-2.6c0.2,0,0.5,0,0.7,0c0.6,0.2,1.1,0.5,1.7,0.6
			c8.2,1.3,10.9,8.1,14.2,14.3c0.3,0.6,0.5,1.4,0.5,2.1c0,4.7,0,9.4,0.7,14.1c1.5,9.2-4.4,16-7.5,23.6c-0.6,1.5-1.8,1.3-3.1,1
			C47.2,430.1,43.5,429.6,39.9,429z"/>
		<path class="st6" d="M43.6,375.1c-2.2,5.8-4.1,11.8-6.6,17.4c-2.2,4.8-2.2,9.4-1.3,14.4c1.3,7,2.2,14.2,3.2,21.3
			c-5.5-0.1-10.8-1.7-16.1-2.6c-1.4-0.2-1.8-1-1.8-2.3c-0.4-10.2-0.9-20.3-1.4-30.5c-0.1-1.5,0.4-2.6,1.2-3.8
			c3.6-5.4,7.2-10.7,10.7-16.1c1.1-1.7,2.1-2.1,3.9-1.3C38.1,372.8,40.9,373.9,43.6,375.1z"/>
	</g>
</g>
</svg>
