<svg xmlns="http://www.w3.org/2000/svg"
 width="200%" height="200%">
	<symbol id="mastodon-svg-logo-full" viewBox="0 0 1024 466">
    <g
   id="Layer1"
   transform="matrix(3.32512,0,0,3.32512,-141.284,-141.267)">
        <rect
   x="42.49"
   y="42.49"
   width="27.61"
   height="113.78"
   fill="#A55F9C"
   id="rect9" />
        <g
   transform="matrix(-1.83697e-16,1,-1,-1.83697e-16,237.63,47.2879)"
   id="g13">
            <rect
   x="81.36"
   y="125.04"
   width="27.61"
   height="34.84"
   fill="#A55F9C"
   id="rect11" />
        </g>
        <rect
   x="128.4"
   y="42.49"
   width="27.61"
   height="78.49"
   fill="#F67280"
   id="rect15" />
        <g
   transform="matrix(-1.83697e-16,1,-1,-1.83697e-16,284.752,0.1656)"
   id="g19">
            <rect
   x="128.49"
   y="128.57"
   width="27.61"
   height="27.77"
   fill="#F67280"
   id="rect17" />
        </g>
        <path
   d="M233.89,156.27L206.28,156.27L171.08,42.49L198.94,42.49L233.89,156.27Z"
   fill="#A55F9C"
   id="path21" />
        <path
   d="M222.58,90.84L236.26,136.34L265.3,42.49L237.43,42.49L222.58,90.84Z"
   fill="#A55F9C"
   id="path23" />
        <rect
   x="280.06"
   y="42.49"
   width="27.61"
   height="113.78"
   fill="#A55F9C"
   id="rect25" />
        <g
   transform="matrix(-1.83697e-16,1,-1,-1.83697e-16,389.318,-276.725)"
   id="g29">
            <rect
   x="319.21"
   y="38.87"
   width="27.61"
   height="34.84"
   fill="#A55F9C"
   id="rect27" />
        </g>
        <g
   transform="matrix(-1.83697e-16,1,-1,-1.83697e-16,432.4,-233.644)"
   id="g33">
            <rect
   x="319.21"
   y="81.96"
   width="27.61"
   height="34.84"
   fill="#A55F9C"
   id="rect31" />
        </g>
        <g
   transform="matrix(-1.83697e-16,1,-1,-1.83697e-16,475.481,-190.563)"
   id="g37">
            <rect
   x="319.21"
   y="125.04"
   width="27.61"
   height="34.84"
   fill="#A55F9C"
   id="rect35" />
        </g>
        <path
   d="M245.53,168.55C246.54,168.55 247.45,168.75 248.25,169.16C249.05,169.57 249.67,170.13 250.12,170.86C250.57,171.59 250.79,172.42 250.79,173.35C250.79,174.28 250.57,175.11 250.12,175.84C249.67,176.57 249.05,177.13 248.25,177.54C247.45,177.95 246.54,178.15 245.53,178.15L242.83,178.15L242.83,182.29L238.95,182.29L238.95,168.55L245.53,168.55ZM246.34,174.27C246.64,174.03 246.79,173.72 246.79,173.35C246.79,172.98 246.64,172.67 246.34,172.43C246.04,172.19 245.66,172.07 245.21,172.07L242.83,172.07L242.83,174.63L245.21,174.63C245.66,174.63 246.04,174.51 246.34,174.27Z"
   fill="#A55F9C"
   id="path39" />
        <path
   d="M256.39,178.83L262.79,178.83L262.79,182.29L252.51,182.29L252.51,168.55L256.39,168.55L256.39,178.83Z"
   fill="#A55F9C"
   id="path41" />
        <path
   d="M273.94,182.29L273.24,180.45L268.46,180.45L267.76,182.29L263.38,182.29L268.66,168.55L273.04,168.55L278.32,182.29L273.94,182.29ZM269.57,177.59L272.15,177.59L270.87,174.25L269.57,177.59Z"
   fill="#A55F9C"
   id="path43" />
        <path
   d="M281.48,172.01L277.42,172.01L277.42,168.55L289.42,168.55L289.42,172.01L285.36,172.01L285.36,182.29L281.48,182.29L281.48,172.01Z"
   fill="#A55F9C"
   id="path45" />
        <path
   d="M302.21,172.01L295.03,172.01L295.03,173.95L301.57,173.95L301.57,177.41L295.03,177.41L295.03,182.29L291.15,182.29L291.15,168.55L302.21,168.55L302.21,172.01Z"
   fill="#A55F9C"
   id="path47" />
        <path
   d="M307.09,181.56C305.94,180.91 305.03,180.04 304.35,178.95C303.67,177.86 303.33,176.68 303.33,175.41C303.33,174.14 303.67,172.97 304.35,171.88C305.03,170.79 305.94,169.93 307.09,169.28C308.24,168.63 309.48,168.31 310.81,168.31C312.14,168.31 313.38,168.63 314.53,169.28C315.68,169.93 316.59,170.79 317.27,171.88C317.95,172.97 318.29,174.14 318.29,175.41C318.29,176.68 317.95,177.86 317.27,178.95C316.59,180.04 315.68,180.91 314.53,181.56C313.38,182.21 312.14,182.53 310.81,182.53C309.48,182.53 308.23,182.21 307.09,181.56ZM312.52,178.52C313.05,178.19 313.48,177.75 313.8,177.2C314.12,176.65 314.28,176.05 314.28,175.41C314.28,174.77 314.12,174.18 313.8,173.63C313.48,173.08 313.05,172.65 312.52,172.32C311.99,171.99 311.41,171.83 310.8,171.83C310.19,171.83 309.61,171.99 309.08,172.32C308.55,172.65 308.12,173.08 307.8,173.63C307.48,174.18 307.32,174.77 307.32,175.41C307.32,176.05 307.48,176.65 307.8,177.2C308.12,177.75 308.55,178.19 309.08,178.52C309.61,178.85 310.19,179.01 310.8,179.01C311.41,179.01 311.99,178.85 312.52,178.52Z"
   fill="#A55F9C"
   id="path49" />
        <path
   d="M327.81,182.29L324.91,178.15L323.97,178.15L323.97,182.29L320.09,182.29L320.09,168.55L326.67,168.55C327.68,168.55 328.59,168.75 329.39,169.16C330.19,169.57 330.81,170.13 331.26,170.86C331.71,171.59 331.93,172.42 331.93,173.35C331.93,174.35 331.67,175.23 331.15,176C330.63,176.77 329.92,177.34 329.01,177.71L332.23,182.29L327.81,182.29ZM323.97,174.63L326.35,174.63C326.8,174.63 327.18,174.51 327.48,174.27C327.78,174.03 327.93,173.72 327.93,173.35C327.93,172.98 327.78,172.67 327.48,172.43C327.18,172.19 326.8,172.07 326.35,172.07L323.97,172.07L323.97,174.63Z"
   fill="#A55F9C"
   id="path51" />
        <path
   d="M334.01,168.55L337.89,168.55L341.57,175.11L345.25,168.55L349.13,168.55L349.13,182.29L345.25,182.29L345.25,174.93L341.57,181.49L337.89,174.93L337.89,182.29L334.01,182.29L334.01,168.55Z"
   fill="#A55F9C"
   id="path53" />
    </g>
</symbol>
</svg>
