<?xml version="1.0" encoding="utf-8"?>
<!-- Generator: Adobe Illustrator 21.0.0, SVG Export Plug-In . SVG Version: 6.00 Build 0)  -->
<svg version="1.1" id="Layer_1" xmlns="http://www.w3.org/2000/svg" xmlns:xlink="http://www.w3.org/1999/xlink" x="0px" y="0px"
	 viewBox="0 0 897.8 602.2" style="enable-background:new 0 0 897.8 602.2;" xml:space="preserve">
<style type="text/css">
	.st0{display:none;fill:#FEFEFE;}
	.st1{fill:#29501B;}
	.st2{fill:#7FCCAA;}
	.st3{fill:#50401B;}
	.st4{fill:#55A8FE;}
	.st5{fill:#80CCAA;}
	.st6{fill:#283059;}
	.st7{fill:#568873;}
	.st8{fill:#A45F9B;}
	.st9{fill:#6368A0;}
	.st10{fill:#787DB5;}
	.st11{fill:#F57280;}
	.st12{fill:#AAAAAA;}
	.st13{fill:#505689;}
	.st14{fill:#884A82;}
	.st15{fill:#3971AA;}
	.st16{fill:#5F649D;}
	.st17{fill:#515789;}
	.st18{fill:#51578A;}
	.st19{fill:#A5609C;}
	.st20{fill:#62699F;}
	.st21{fill:#61659E;}
	.st22{fill:#6569A1;}
	.st23{fill:#777CB4;}
	.st24{fill:#894B84;}
	.st25{fill:#C38CBB;}
	.st26{fill:#D8DBFA;}
	.st27{fill:#C6C6F8;}
	.st28{fill:#9EA3DB;}
	.st29{fill:#92588C;}
	.st30{fill:#8D8FAD;}
	.st31{fill:#9699B5;}
	.st32{fill:#A4A5BE;}
	.st33{fill:#7B80B3;}
	.st34{fill:#BABCD1;}
	.st35{fill:#FEFEFE;}
	.st36{fill:#F5717F;}
	.st37{fill:#FBFBFB;}
	.st38{fill:#FAFAFA;}
	.st39{fill:#F9F9F9;}
	.st40{fill:#F2F2F2;}
	.st41{fill:#EFEFEF;}
	.st42{fill:#E5E5E5;}
	.st43{fill:#E7E7E7;}
	.st44{fill:#E0E0E0;}
	.st45{fill:#E9E9E9;}
	.st46{fill:#EAEAEA;}
	.st47{fill:#E8E8E8;}
	.st48{fill:#E6E6E6;}
	.st49{fill:#CBCBCB;}
	.st50{fill:#B0B0B0;}
	.st51{fill:#D0D0D0;}
	.st52{fill:#B8B8B8;}
	.st53{fill:#BEBEBE;}
	.st54{fill:#C9C9C9;}
	.st55{fill:#C5C5C5;}
	.st56{fill:#C1C1C1;}
	.st57{fill:#C3C3C3;}
	.st58{fill:#C4C4C4;}
	.st59{fill:#C7C7C7;}
	.st60{fill:#D6D6D6;}
	.st61{fill:#A1A1A1;}
	.st62{fill:#9B9B9B;}
	.st63{fill:#9C9C9C;}
	.st64{fill:#A9A9A9;}
	.st65{fill:#929292;}
	.st66{fill:#989898;}
	.st67{fill:#ADADAD;}
	.st68{fill:#A2A2A2;}
	.st69{fill:#A7A7A7;}
	.st70{fill:#838383;}
	.st71{fill:#A6A6A6;}
	.st72{fill:#AFAFAF;}
	.st73{fill:#B9B9B9;}
	.st74{fill:#303030;}
	.st75{fill:#B2B2B2;}
	.st76{fill:#A4A4A4;}
	.st77{fill:#9F9F9F;}
	.st78{fill:#C0C0C0;}
	.st79{fill:#B6B6B6;}
	.st80{fill:#BBBBBB;}
	.st81{fill:#BFBFBF;}
	.st82{fill:#808080;}
	.st83{fill:#ACACAC;}
	.st84{fill:#747474;}
	.st85{fill:#707070;}
	.st86{fill:#484848;}
	.st87{fill:#565656;}
	.st88{fill:#5A5A5A;}
	.st89{fill:#454545;}
	.st90{fill:#4B91C4;}
	.st91{fill:#4D7F9F;}
	.st92{fill:#FDFDFE;}
	.st93{fill:#2A511D;}
	.st94{fill:#2A511C;}
	.st95{fill:#C28CBB;}
	.st96{fill:#52598A;}
	.st97{fill:#9298C4;}
	.st98{fill:#305A27;}
	.st99{fill:#9299C4;}
	.st100{fill:#545D8C;}
	.st101{fill:#545A8D;}
	.st102{fill:#497E51;}
	.st103{fill:#61679E;}
	.st104{fill:#FAFBFC;}
	.st105{fill:#60659D;}
	.st106{fill:#9AA1D6;}
	.st107{fill:#99A6D5;}
	.st108{fill:#636C9F;}
	.st109{fill:#FCFCFC;}
	.st110{fill:#FBFBFC;}
	.st111{fill:#F9FAFA;}
	.st112{fill:#FAFBFB;}
	.st113{fill:#92518B;}
	.st114{fill:#8C4C85;}
	.st115{fill:#F6B9EA;}
	.st116{fill:#F47280;}
	.st117{fill:#FDFDFD;}
	.st118{fill:#FCFCFD;}
	.st119{fill:#F37280;}
	.st120{fill:#9396C6;}
	.st121{fill:#C6C6F9;}
	.st122{fill:#A1A3C3;}
	.st123{fill:#CACEF4;}
	.st124{fill:#EFF0F8;}
	.st125{fill:#F6F7FB;}
	.st126{fill:#DEE0F1;}
	.st127{fill:#BFC0F3;}
	.st128{fill:#AAAFE7;}
	.st129{fill:#BFC2EE;}
	.st130{fill:#202020;}
</style>
<g>
	<g>
		<path class="st0" d="M534,602.2c-10.2,0-20.5,0-30.7,0c-3.8-1.9-5.7-5.5-8.2-8.5c-18.5-22.3-36.9-44.6-55.3-66.9
			c-2.2-2.7-5-5-5.6-8.7c-0.8-14.4-2.2-28.8-3.9-43.1c-0.4-3.1-1.6-4.9-4.8-5.8c-11.9-3.2-23.8-6.7-35.7-9.9
			c-4.8-1.3-9.7-0.4-14.5-0.6c-2-0.1-4,0.4-5.7-1.1c-1.5-3.7-0.5-7.5-0.8-11.2c-0.1-1.3,0-2.7-0.1-4c0-1.8-1.3-3-2.3-4.2
			c-17.8-21.6-35.6-43.1-53.4-64.7c-1.9-2.3-4.2-3.4-7.1-3.3c-13.2,0.5-26.4-1-39.6-0.9c-4.3,0.1-8.7,0-12.8-1.6
			c-0.6-1.1-0.4-2.2-0.1-3.3c3.1-8.9,4-18.2,6.2-27.3c0.5-2,0.5-3.9-0.1-5.9c-2.6-9.4-5.2-18.7-7.6-28.1c-0.8-3.1-2.3-4.4-5.5-4.1
			c-5.6,0.4-11.2-0.6-16.7,1.2c-4.6,1.5-7.2,4.5-8.5,9c-1.4,4.9-2,10-4.1,14.7c-0.2,0.3-0.6,0.5-0.9,0.6c-1.2,0-2-0.9-2.9-1.5
			c-3.7-2.3-6.6-1.3-8.1,2.8c-0.1,0.4-0.2,0.7-0.4,1c-1.3,2.5-3.4,1.4-5.3,1.3c-2.9,0.5-0.4,2.4-0.9,3.6c0.7,2.8,2.2,5.2,3.7,7.6
			c3,5.2,5.5,10.6,8.4,15.8c1.3,2.4,2.8,3.6,5.6,3c2.3-0.5,4.7-0.5,7-0.8c2.3-0.3,3.7,0.8,3,3.3c-0.7,2.6-0.7,5.5-3.3,7.2
			c-0.7,0.3-1.5,0.4-2.2,0.4c-10.8-0.9-21.7-0.4-32.5-1.1c-1.2-0.1-2.5-0.4-3.7-0.3c-13,0.4-25.9-1.2-38.9-0.8
			c-1.7,0-3.5,0.1-5.1-0.7c-2-1.4-1.9-3.6-1.9-5.8c-0.3-7.5,1.2-14.9,0.7-22.4c-0.4-6.9-0.6-13.9-1.2-20.8c-0.2-2-0.6-4,0.9-5.7
			c1.5-1,3.1-0.5,4.6-0.4c5.3,0.5,10.5,1.7,15.8,1.4c2.2-0.9,4.8-1.1,6.1-3.6c-2.7-2.5-5.7-4.5-8.9-6.3c-4.3-1.6-8.6-3.4-13-4.8
			c-3.5-1.1-5.3-3.3-6-6.8c-1.6-7.9-4.3-15.4-7.6-22.7c-0.8-1.9-1.8-3.4-4.1-2.7c-8.2,2.5-16.5,2.6-24.8,1.4c-1-0.1-2-0.1-3,0.2
			c-1.7,0.8-1.9,2.5-2.6,3.9c-4,8.8-4.6,18.2-5.7,27.6c-0.3,2.6-0.4,5.2-1.5,7.6c-1.8,1.1-3.6,0.2-5.4,0.1c-1.5-0.1-2.9-0.7-4.3,0.1
			c-0.8,0.4-1.6,1-1.7,1.9c-0.5,4.2-2,8.3-1.5,12.5c0.5,3.7,1.6,7.3,2.1,11c0.3,2.4,1.3,3.2,3.8,2.5c2.6-0.8,5.2-1.7,7.9-2.4
			c1.1-0.2,2.2-0.3,3.3-0.6c1.3-0.3,2.6-0.4,3.8-0.8c3-0.6,5.8-2,8.5-3.2c1.4-0.6,2.9-1.4,4.6-0.9c1.1,0.6,1.2,1.7,1.3,2.7
			c-1.3,10.9-3.7,21.6-5.5,32.4c-0.2,1.2-0.6,2.4-1.8,3.2c-3.4,1.2-6.9,0.8-10.3,0.5c-3.6-0.4-7.2-0.4-10.8-0.5
			c-15.3-0.4-30.6-0.4-45.8-1.7c-2.1-0.2-3.2-1.8-4.3-3.2c-2.9-3.8-5.7-7.5-8.6-11.3c-1.5-1.9-3.2-2.5-5.5-2
			c-4.6,0.9-9.3,1.8-13.9,2.5c-1.3,0.2-2.7,0.6-3.9-0.5C0.1,232.6,0.1,118,0,3.4C0,0.6,0.6,0,3.5,0c175.6,0.1,351.2,0.1,526.8,0.1
			c1.6,0.8,2.1,2.5,2.7,3.9c5.5,12.7,10.9,25.5,16.5,38.2c1.1,2.6,0.9,5-0.1,7.6c-10,24.1-19.7,48.3-29.9,72.4
			c-2.2,5.2-3,9.8-0.2,14.9c1.9,3.5,3,7.4,4.7,11c6,12.3,8.7,25.5,10.8,38.8c2.7,17,7.7,33.3,12.2,49.8c1.5,5.5,3,11.1,4.5,16.6
			c0.6,2,0.6,3.9-0.1,5.9c-5.1,14.4-10.3,28.7-15.6,43c-0.4,1-0.7,2.2-2,2.5c-1.9-1.1-1.4-3-1.4-4.7c-0.1-7.7-0.1-15.4,0-23.2
			c0.1-3.4-1-5.6-4.1-7.2c-3.5-1.8-7-3.8-10.3-6c-2.3-1.6-4.9-2.8-7.2-4.3c-9.3-5.3-18.5-10.8-27.9-16.1c-1.3-0.7-2.7-1.4-3.6-2.6
			c-3.3-6.6-7.5-12.6-11.6-18.7c-2.3-3.3-3-6.4-1.2-10.1c1.4-3,1.3-6.6,3.9-9.2c3.1-2,6.4-2.1,9.9-1.5c3,0.5,5.9,0.5,8-2.2
			c0.4-2.1-1.3-2.5-2.6-2.9c-1.5-0.4-3.1-0.6-4.7-0.9c-4.3-0.9-8.6-1-13-0.3c-4.6,0.7-7.3-0.9-9.3-5.1c-3.4-7.1-3.4-7.1-10.9-5.1
			c-2.9,0.8-5.8,1.6-8.7,2.2c-3,0.5-4,2.6-4.1,5.4c-0.1,4.2,0,8.4-0.1,12.6c0,1.6-0.1,3.2-0.9,4.7c-0.9,1.9-3.1,1.7-4.5,2.8
			c-0.4,0.5-0.7,1.1-0.8,1.7c-0.3,1.1-0.5,2.2-0.1,3.3c0.4,1.7,0.8,3.4,1,5.1c0.7,4.1,1.8,4.8,6.1,4.2c0.8-0.3,1.7-0.6,2.6-0.5
			c4.3,1.7,5,1.5,7.4-2.3c0.4-0.6,0.6-1.4,1.6-1.2c2.4,2,1.9,4.6,1.5,7.1c-0.7,1.8-2.3,2.6-3.8,3.4c-21.4,12.2-42.7,24.6-64,36.9
			c-1.2,0.7-2.4,1.3-2.8,2.8c-0.4,8.8,0,17.6-0.2,26.4c0.2,8.6,0.1,17.3,0,25.9c-0.3,11,0,21.9-0.2,32.9c0,2.9,1.5,4.4,3.8,5.8
			c16.9,9.8,34,19.4,50.8,29.4c6.3,3.6,12.7,7.2,18.9,10.9c1.3,0.8,2.5,1.6,4,1.7c5.1-1.9,9.4-5.3,14.1-7.9
			c16.3-9.2,32.3-18.7,48.6-27.9c1.8-1,3.9-2.9,5.6,0.3c2.6,10.4,4.4,21,6.2,31.6c1.4,8.3,4,15.9,8.2,23.1
			c6.6,11.2,12.5,22.8,18.9,34.1c1.5,2.6,1,4.6-0.5,6.9c-7.7,12.1-15.3,24.3-23,36.5c-6.2,9.7-12.2,19.5-18.4,29.1
			c-1.6,2.4-1.8,4.7-0.9,7.4c6.3,19.3,13.3,38.5,19.6,57.9C534,598.8,535.2,600.4,534,602.2z"/>
		<path d="M534,602.2c-6.3-18.9-12.3-37.9-19.2-56.5c-2.8-7.4-2.1-12.8,2.2-19.3c13.3-20,25.8-40.6,38.6-60.9
			c1.2-1.9,1.4-3.3,0.2-5.3c-6.6-11.7-12.8-23.6-19.5-35.3c-3.7-6.5-6.3-13.1-7.5-20.5c-1.8-11.3-4.2-22.5-6.3-33.8
			c-0.9-2.4,0.6-3.7,2.3-4.4c6.5-2.4,8.1-7.2,7.3-13.5c-0.3-2.4,0-5-0.1-7.4c-0.1-11.4-0.2-22.7,0-34c0.2-2.2-0.7-4.8,1.6-6.5
			c5.4-14.9,10.7-29.8,16.3-44.6c0.9-2.5,0.9-4.7,0.2-7.2c-4.6-16.6-9.4-33.1-13.5-49.8c-2.7-11-4.5-22.2-6.4-33.4
			c-1.1-6.3-4-11.8-6.2-17.6c-2.5-6.5-5.1-13-7.8-19.4c-0.8-2-0.8-3.6,0-5.6c10.8-26.1,21.5-52.3,32.3-78.4c0.8-2,0.8-3.6,0-5.6
			c-6.2-14.3-12.2-28.6-18.3-42.9c121.3,0,242.7,0,364-0.1c2.8,0,3.5,0.6,3.4,3.4c-0.1,198.4-0.1,396.9,0,595.4
			c0,2.8-0.6,3.5-3.4,3.4C774.2,602.2,654.1,602.2,534,602.2z"/>
		<path class="st1" d="M0.1,568.4c0-32,0-64,0-96c2.3-2.4,5.5-2.7,8.4-3.8c13.3-4.9,26.6-9.7,40-14.2c1.2-0.3,2.4-0.7,3.6-1.1
			c0.3-0.1,0.7-0.2,1-0.2c1.1,0,2.1,0.4,3.2,0.5c9,2.6,18,5.2,26.9,7.9c10.3,3,19.1,9.2,28.6,13.8c3.7,1.8,7.2,3.9,11.1,5.4
			c7.1,3.3,14.4,6.1,21.5,9.4c2.3,1.1,4.2,1,6.2-0.7c3.9-3.3,8.3-5.9,12.2-9.1c4.3-3.4,8.9-6.5,13.2-9.8c2-1.5,4.1-2,6.6-1.7
			c9.5,1.4,19,2.9,28.5,4.2c9.1,1.2,18.4,1.4,27.6,2c7.8,0.5,15.7,0.7,23.5,1.5c3.2,0.3,6.2-0.5,9-1.8c5.8-2.6,11.6-5.3,17.4-7.9
			c1-0.5,2-1,3.1-1.4c3.9-1.4,4.8-1.1,6.1,2.8c1.5,4.2,3.1,8.4,4.7,12.6c2.1,6,3.9,12.2,6.6,17.9c4.2,8.9,4.5,18.1,3.7,27.5
			c-0.5,5.9-0.5,11.7-0.6,17.6c-0.1,4.6-0.6,5.3-4.9,6.8c-19.8,6.6-39.4,13.7-59.2,20.3c-2.9,1-5.7,1.2-8.8,0.5
			c-26-6.1-52.1-12.2-78.1-18.3c-3.9-0.9-7.6-0.9-11.4,0.6c-31.3,12-63.5,21.1-95.6,30.7c-4,1.2-7.9,2.3-11.8,3.6
			c-2.3,0.8-4.4,0.6-6.5-0.5c-10.9-5.5-21.9-11-32.8-16.5C1.9,570.5,0.8,569.7,0.1,568.4z"/>
		<path class="st2" d="M0.1,568.4c12.1,6,24.1,12,36.2,18.1c1.9,1,3.5,1.3,5.6,0.6c36.8-11.3,74-21.4,110.1-35.2
			c2.4-0.9,4.8-0.9,7.3-0.3c27.3,6.4,54.6,12.8,81.9,19.2c1.6,0.4,3.1,0.5,4.7-0.1c20.9-7.2,41.7-14.4,62.6-21.5
			c1.9-0.7,2.8-1.4,2.8-3.6c0.1-10.9,0.4-21.7,0.7-32.6c0-2-0.3-3.9-1-5.8c-3.1-8.5-6.2-17.1-9.3-25.7c1.3-1.3,3-1.1,4.6-1.1
			c30.9,0,61.7,0,92.6-0.1c3.7,0,6.4,1.4,8.7,4.2c8.1,10,16.3,19.9,24.5,29.8c1.2,1.5,2,3.1,2.9,4.8c3.7,5.9,8.6,10.8,12.9,16.2
			c6.3,7.8,12.8,15.4,19.2,23.2c6.5,7.9,13,15.9,19.5,23.8c5.5,6.7,11.1,13.3,16.6,20c-166.6,0-333.2,0-499.8,0.1
			c-2.8,0-3.5-0.6-3.5-3.5C0.2,588.7,0.1,578.6,0.1,568.4z"/>
		<path class="st2" d="M253.5,367.5c9.9,0.7,19.9,0.3,29.8,1c8,0.5,15.9,0.4,23.8,0.5c3,0,4.9,1.6,6.6,3.6
			c10.6,12.8,21.3,25.6,31.8,38.5c8.1,9.9,16.1,19.9,24.2,29.9c-1.6,1.4-3.5,1.1-5.4,1.2c-7.4,0-14.7,0-22.1,0
			c-111.5,0-223,0-334.5,0c-2.6,0-5.3,0.6-7.6-1.2c0-2.2,0-4.5,0-6.8c1.2-1.5,3-1.7,4.7-1.9c27.3-3.9,54.6-7.8,81.9-11.7
			c5.2-0.8,5-0.8,4.7-5.8c-0.7-10.7-1.8-21.4-2.4-32.1c-0.4-6.4-0.8-6.9-7-8c-12.2-2-24.3-4.5-36.5-6.5c-1.7-0.3-3.5-0.5-5.1-1.2
			c-2.7-1.2-5-2.9-5-6.3c18.1,0.6,36.3,1.3,54.4,1.6c4.6,0.1,9.2,0.5,13.7,0.5c0.5,0.4,0.7,0.9,0.7,1.5c-0.1,3.1-2.7,5.6-2.5,8.8
			c-0.1,1.9,0.9,2.3,2.5,1.8c2.1-0.2,4.1-0.7,6.1-1c0.8,0,1.5,0,2.3-0.1c2.4-0.5,2.7-2,2.4-4.1c-0.3-2.2-1.1-4.7,1.1-6.6
			c3.6-0.8,7.1-1,10.7,0.2c1.2,1,1.1,2.3,1,3.7c-0.7,2.7-0.7,5.4-0.3,8.1c0.2,0.8,0.2,1.6-0.1,2.3c1.1-0.2,2.1-0.7,3.1-1.1
			c2.3-1,4.7-1.6,6.9-2.6c0.8-0.3,1.6-0.6,2.4-0.9c2.6-0.8,3.3-2.1,1.6-4.5c-0.8-1.1-1.9-2.4-0.8-4c1.4,0,2.7,0.1,4.1,0.1
			c13.8-0.4,27.6,0.7,41.4,1c8.2,0.2,16.4,0,24.6,0.6c4.3,0.4,8.6,0.7,13,0.6c1.1,1.4,0.3,2.9-0.1,4.2c-1.3,4.8-2.4,9.6-3.9,14.3
			c-1.6,4-1.6,4-5.4,1.9c-3.5-1.9-7.3-0.1-7.3,3.5c1.1,2.9,1.1,6.1,2.8,8.7c4.9,1.2,9.9,1.8,15,1.4c1.4-0.1,2.5-1.1,3.5-2
			c1-0.9,2-1.9,3.5-1.9c1.9,0.1,3.6,0.9,5.4,1.3c4.1,1.1,4,1.1,5.5-3c2.9-8.2,5.6-16.5,8.7-24.6
			C251.6,369.3,251.6,367.6,253.5,367.5z"/>
		<path class="st1" d="M35.3,360.8c1.9,3.6,4.6,5.5,9,6.2c13.8,2.1,27.5,4.9,41.2,7.2c2.7,0.5,3.9,1.4,4.1,4.4
			c0.9,13.2,2.1,26.4,3.4,39.5c0.3,2.6-1.2,2.9-3,3.1c-11.1,1.6-22.2,3.1-33.3,4.7c-18.9,2.7-37.7,5.5-56.6,8.2c0-29,0-58,0-87
			c6.2-1,12.5-1.9,18.6-3.2c2.6-0.6,3.8,0.3,5.2,2.1C27.6,351.1,31.5,355.9,35.3,360.8z"/>
		<path class="st3" d="M0.1,441c121.7,0,243.4,0,365.1,0c1.5,0,3,0,4.5,0c0,5.5,0.1,11,0.1,16.5c-3.7,1.8-7.8,1.5-11.7,1.8
			c-3.4,0.3-6.7,0.1-10.1,0.1c-13.7,0-27.5,0-41.2,0.7c-13.6,0.7-27.1-1.5-40.7-2.5c-13.1-0.9-26.1-2-39.2-3.2
			c-1.8-0.2-3.5,0.4-5.1,1c-3.6,1.5-7.3,2.7-10.6,4.6c-6.8,3.9-14,3.6-21.4,2.9c-15.5-1.4-31-4.2-46.6-3.4
			c-10.6,0.5-21.2,0.1-31.8,0.7c-10.9,0.6-20.8-2.4-30.2-7.2c-3.8-1.9-7.3-2.5-11.5-1.6c-4.6,0.9-9.2,2.4-14,2.3
			c-1,0.2-2.1-0.8-3.1,0l0.1,0c-1.4,0.6-3,0.6-4.4,1.2c-7.3,1.7-14.8,1.6-22.3,2.1c-6.7,0.5-13.4,0.8-20.1,1.4c-2,0.2-4,0.5-5.7-1
			C0.1,452,0.1,446.5,0.1,441z"/>
		<path class="st4" d="M0.1,457.5c16.2-1,32.4-2.1,48.7-3.1c0.8-0.4,0.9,0,0.8,0.7c-16.5,5.8-32.9,11.6-49.4,17.4
			C0.1,467.5,0.1,462.5,0.1,457.5z"/>
		<path class="st5" d="M533.1,345.7c0,4.3-0.1,8.7,0.2,13c0.2,3.1-1.1,4.7-3.8,5.9c-2,0.8-3.8,2.1-5.7,3.1c-1.2,0.6-1.2,1.7-1.2,2.8
			c-0.9-1.5-2-0.8-3-0.2c-13.6,7.8-27.1,15.7-40.7,23.5c-3.1,1.8-6.3,3.4-9.4,5.1c-1.6-4.7-5.2-7.3-9.5-9.3
			c-1.9-0.9-3.8-1.8-5.2-3.5c-0.2-0.4-0.3-0.7-0.4-1.1c-0.2-2.8-0.5-5.7,0.3-8.5c1.3-1.8,2.7-0.6,4-0.1c6.4,2.5,13.2-0.2,16.5-6.5
			c1.6-3,2.6-5.8,1-9.2c-1.9-3.9-4.9-4.8-7.8-1.6c-3,3.3-6.4,5.5-11,5.5c-1,0-2,0.2-2.6-0.9c-0.7-1.7-0.5-3.4-0.5-5.2
			c0-12-0.1-23.9,0.1-35.9c0-3.6-1.2-5.8-4.3-7.5c-6.1-3.4-12.1-7-18.1-10.5c-1.4-0.8-2.9-1.5-3.6-3.1c-0.2-1.7,1.1-2.2,2.2-2.4
			c5.6-0.8,10.5-4.2,16.2-4.8c3.3-1,6.7-0.9,10-0.7c6.3,0.3,8.7-5.1,8.5-10.3c0-1.4-1.1-2.2-2.2-2.8c-6.5-3.7-13.1-7.2-19.5-11
			c-1.8-1-3.9-0.9-5.8-1.2c-7.2-0.9-14.3-1.6-21.2,1.7c-4.7,2.3-10,1.7-15,2.3c-2.6,0.3-2.8,1.2-2.5,3.6c0.5,4.6,3.6,6.3,7.2,7.8
			c0.3,1.6-0.4,2.7-1.6,3.6c-1.3,0.6-2.4-0.2-3.5-0.8c-7.3-4-14.4-8.5-21.6-12.6c-1-0.5-2.4-1-2.1-2.7c3.6-3.3,8.1-5.1,12.2-7.5
			c18.6-10.9,37.4-21.5,56.1-32.3c0.7-0.4,1.4-1,2.1-1.5c1.3,1,1.7,2.6,1.7,4c0,4.9,1.1,9.6,1,14.5c0,1.8-0.6,3.3-1.9,4.6
			c-1.2,1.1-2.1,2.4-1,4.2c2.5,1.8,4.2-1.1,6.3-1.3c0.3-0.1,0.6-0.3,0.9-0.4c1.4-0.6,1.2-1.8,1.2-3c-0.4-6.3-0.7-12.6-1.4-18.9
			c-0.2-2.1-0.4-4.2,0.1-6.3c0.8-2,2.1-1.2,3.3-0.6c2.3,1.2,4.4,2.6,6.8,3.6c3.3,2.2,4.6,6,7,8.9c1,1.4,0.3,3.2,1.3,4.6
			c0.5,0.6,0.9,1.4,1.8,1.6c1.9-0.2,2.7-1.7,3.5-3.2c0.2-0.4,0.4-0.9,0.6-1.3c0.2-0.3,0.4-0.4,0.8-0.4c7.5,4.2,15,8.4,22.5,12.7
			c3,1.7,5.9,3.5,8.8,5.3c0.7,4.4-1,7.8-4.7,10c-2.9,1.8-5.5,3.9-7.3,6.8c-2.7,4.2-2.2,6.9,2.2,9.2c2.9,1.5,4.3,3.7,4.5,6.7
			c0.4,5.2,0.8,10.5-0.9,15.6c-0.6,1.9-1,3.9-0.5,5.9c1.4,5.1,0.4,10.1-1,15.1c-0.8,1.7-2.3,2.2-4,2.2c-5.4,0-9.6,1.8-12,7
			c-0.9,1.9-2.7,3.2-3.8,5.1c-1.5,2.7-0.7,4.6,2.4,5.1c4.3,0.8,8.6,1.4,13,0.5c2.5-0.5,4.8-1.2,6.6-3.1c1.3-1.4,3-2.3,5-1.8
			c6.5,1.5,13.1,1.8,19.7,1.7C531.1,344.7,532.2,344.9,533.1,345.7z"/>
		<path class="st4" d="M54.9,453c6-1.1,12.1-2.1,18-3.3c2-0.4,3.6-0.2,5.3,0.7c11.3,6,23.2,9.5,36.2,8.6c10.1-0.7,20.2-0.4,30.3-0.7
			c14.9-0.5,29.6,1.8,44.4,3.3c8.2,0.8,15.9,1,23-3.5c8.3-5.2,17.2-5.1,26.6-4.1c15.6,1.7,31.3,3,47,3.9c28,1.8,55.9-0.1,83.9-0.6
			c18.1-2,34.5,5.3,51.5,9.2c6.9,1.6,10,4.2,10.5,11.7c0.9,13.5,2.9,27,3.2,40.6c-5-4.8-9.1-10.5-13.5-15.8
			c-5.3-6.4-10.6-12.8-15.8-19.2c-1.5-1.9-3.3-2.6-5.8-2.6c-32.7,0.1-65.5,0.1-98.2,0.1c-1.8-4.7-3.6-9.3-5.2-14
			c-0.7-2.1-1.4-2.4-3.4-1.5c-7.8,3.6-15.7,7-23.5,10.6c-1.8,0.8-3.5,1.1-5.4,1c-27.6-1.6-55.3-2.6-82.6-7.9c-1.6-0.3-2.8,0-4.1,1
			c-4.9,3.6-9.9,7.2-14.8,10.7c-2,0.9-4,1.2-6.2,1.2c-8.7,0-17.5,0-26.2,0c-2.5,0-4.9-0.5-7.4-1.1c-6.7-2.1-12.8-5.7-18.7-9.3
			C90.8,464.1,75.8,460.4,61,456c-1.8-0.5-3.6-1.1-5.4-1.6C55.2,454,54.4,453.9,54.9,453z"/>
		<path class="st6" d="M132.3,255.2c2.9-6,5.6-11.6,8.3-17.2c0.6-1.3,0.4-2.7,0.4-4c0-14.2,0.1-28.5,0-42.7c0-2.4,0.6-3.1,3.1-3.1
			c27.5,0.1,54.9,0.1,82.4,0c2.3,0,3.2,0.5,3.1,3c-0.1,18-0.1,35.9,0,53.9c0,2.8-0.9,3.2-3.4,3.1c-24.5-0.1-48.9,0.1-73.4-0.2
			c-4.8,0-8.5,2.3-12.7,3.9C137.6,253.1,135.4,254.6,132.3,255.2z"/>
		<path class="st7" d="M455.3,375.8c0,3.2-0.1,6.5-0.1,9.7c-0.5,0.5-1.2,0.5-1.7,0.2c-2.5-1.6-4.9-1-7.4,0.2c-2,1-4.1,1.4-6.5,1.1
			c-4-0.5-5,0.3-6,4.2c-0.3,1.2-0.5,2.4-1.6,3.2c-12.7-7.3-25.4-14.6-38.1-21.9c-5.1-2.9-10.2-5.8-15.3-8.8
			c-1.4-0.8-2.1-1.9-2.1-3.6c0.1-11.2,0.1-22.5,0.2-33.7c1.8-0.7,3,0.9,4.5,1.2c5.9,1.3,11.9,2.9,18,0.7c4.8-0.5,9.5,0.2,14.1,1.2
			c3.6,0.8,7.4,1.4,11.1,1.8c4,0.3,4.8-0.1,5.5-4.1c0.8-4.1,1.4-8.2-0.9-12.4c-2-3.8-2.3-8.1-1.4-12.4c0.2-0.4,0.4-0.7,0.8-0.9
			c7.6,4.5,15.1,9,22.8,13.4c2.9,1.6,4.2,3.4,4.1,7c-0.3,14.2-0.1,28.4-0.2,42.5c-0.1,0.1-0.2,0.3-0.3,0.5
			c-4.1,0.9-7.6-0.9-10.9-2.8c-3.1-1.8-6.1-3.2-9.9-2.7c-2.9,0.4-5.7-0.6-7.9-2.7c-0.5-0.4-0.9-0.9-1.5-1.2c-1.6-1-3.4-2.3-5.2-1.4
			c-2,1.1-0.6,3.1-0.5,4.8c0,1,0.4,2,0.5,3c0.1,2.9,1.6,4.3,4.5,5c8.9,2.1,17.9,3.6,26.5,6.5c1.5,0.5,3.2,0.8,4.4,1.9
			C455.1,375.4,455.2,375.6,455.3,375.8z"/>
		<path class="st8" d="M253.5,367.5c-4,9.5-7.1,19.3-10.4,29c-1.1,3.3-2.3,4.5-5.7,2.8c-1.7-0.9-3.7-1.2-5.6-1.8
			c-1-1.3-0.5-2.7-0.1-4c1.1-4.3,2.2-8.7,3.4-13c1.2-3.8,1.8-7.8,2.6-10c-0.5,1.7-1.5,5-2.2,8.5c-1.3,3.8-2.1,7.7-3.1,11.5
			c-0.7,2.9-2.1,4.8-5.2,5.1c-5,0.5-10.1,2.7-14.9-0.5c-1-0.4-1.5-1.4-2.1-2.2c-0.6-1-1.7-1.2-2.8-1.3c-0.7-0.1-1.2-0.4-1.8-0.8
			c-0.1-1.2-1.7-3,0.4-3.5c2.6-0.6,4.9-3.9,8.2-1.2c1.4,1.2,3.4,3.5,4.2-0.6c4.9,2.3,6.5,1.4,7.2-4.4c1.1-8,0.9-16.1,2-24.1
			c0.2-1.6-0.5-2.4-2.1-2.2c-1.4,0.1-2.7-0.1-4.1-0.3c-6.4-1-11.3-3.5-13.1-10.6c-1.1-4.3-4.8-7.5-7.2-11.2
			c-0.2-0.3-0.4-0.6-0.6-0.9c-0.4-1.6-2.9-2.5-1.7-4.7c1.7-0.6,3.9,1.9,5.1-0.9c3.2,1.8,6,4.1,8.2,7.4c2.1-3.2,1.4-7.1,3.8-9.6
			c1.2-4.8,2.6-9.6,3.7-14.5c2-8.6,6.6-10.4,14.5-11.5c4.8-0.6,9.7,0,14.6-0.2c2.1-0.1,2.8,0.9,3.2,2.7c2.8,10.5,5.6,21,8.5,31.4
			c0.4,1.5,0.4,2.9,0.1,4.4C258.3,346.6,256.8,357.2,253.5,367.5z"/>
		<path class="st9" d="M115.7,363.6c-0.2,2.2-0.3,4.4,0.3,6.5c0.9,3.1-0.3,4.7-3.5,4.6c-0.8-1.9-2.3-2.7-4.3-2.3
			c-0.9,0.2,0.5,0.5,0,0.7c-0.7,1.1-1.8,1-2.8,0.9c-1.5-0.8-3.3,0.4-4.7-0.7c-0.8-3.5,2.2-5.9,2.8-9c2.2,0,3.2-0.8,3.7-3.3
			c2.2-11.3,2.5-22.7,3.6-34.1c0.1-0.5,0-1-0.3-1.4c-0.5-0.3-1-0.6-1.6-0.2c-4.3,1.4-8,4.3-12.7,4.7c-1.9-5-3.7-10-1.5-15.3
			c0.4-0.9,1.3-1.3,2-1.9c0.9-1.9,2.9-3.9-0.5-5.5c-0.4-0.1-0.7-0.2-1-0.3c-2-0.4-2.7-1.7-2.3-3.6c1.9-10.2,1.9-20.8,6.5-30.4
			c1.6-3.3,2.1-6.1-1.7-8.2c1.6,0,3.3-0.2,4.9,0c8,1,15.9,0.6,23.7-1.8c2.3-0.7,3.2-0.1,4.1,2.1c3.5,8.3,6.8,16.6,8.5,25.5
			c0.5,2.6,1.8,3.8,4.1,4.6c5,1.7,9.8,3.6,14.7,5.5c1.9,3.7,4.8,6,9,6.4c1,0.7,0.9,1.3-0.2,1.8c-2,0.9-3.9,1.9-5.9,2.8
			c-5.3-3.1-10.9-5.2-17.2-3.5c-1.5,0.4-2.8,0.9-3.8,2.1c-1.3,0.9-0.7,2.3-0.6,3.4c1.5,15.4,1.4,30.8,0.7,46.3
			c-0.1,1.5-0.4,3,0.7,4.3c0.3,0.8,0.5,1.6,0.9,2.4c3.2,5.9,3.1,6.1-3.8,7.4c-0.7-0.4-0.5-2-1.9-1.4c-4.5-1.9-6.1-1.3-8.7,3
			c-1.1-2.8-1-5.6-0.1-8.4c2.5-0.8,2.9-2.8,2.9-5c-0.1-3.8-1-7.4-1.5-11.1c-0.9-6.8-1.7-13.6-2.9-20.3c-0.3-1.4,0.1-3.5-2.3-3.5
			c-1.1,0.6-0.9,1.7-0.9,2.7c-1.1,10.4-3.1,20.6-4.7,30.9C117,362.1,116.5,362.9,115.7,363.6z"/>
		<path class="st10" d="M455.2,226.5c-0.2,9.3,1.8,18.5,1.5,27.8c-0.6,0.9-2.6,0.3-2.2,2.2l0,0.1c-2.6,0-4.8,2-7.5,1.5
			c-3-1.9-0.9-3.6,0.3-5.1c0.8-1.1,2.3-1.5,2.2-3.2c1.5-0.8,1-2.1,0.9-3.3c-0.8-7-1.3-14-1.8-21.1c-0.1-1.1,0.7-3.4-2-3.1
			c-1.6,1.2-2.2,4.1-4.8,3.4c-2.3-0.6-2.9-3-3.4-5c-0.5-2.5-2.6-4.2-2.8-6.7c3.9-1.9,4-2.4,0-5.6c-0.3-1.3,0.3-1.9,1.5-1.9
			c1.5,0,2.7,0.8,3.3,2.1c1.1,2.1,1.5,4.5,2.6,6.8c-0.8-3.8-3.5-7-2.5-11c1.9-2.4-1.7-2.7-1.8-4.3c-0.4-4.6-0.9-9.3,0-13.9
			c4.6-1.1,9.1-2.3,13.7-3.4c2.6-0.6,4.3,0.2,5.1,3c0.4,1.4,1.1,2.8,1.7,4.2c1.3,3.4,3.9,4.9,7.3,4.3c5-0.8,9.9-0.6,14.9,0.2
			c0.5,1.9,3.1,2.4,3,4.7c-2,1.6-4.4,1.3-6.7,1.6c-2.7,0.4-5.7-0.2-7.6,2.7c-1.5,4.1-2.9,8.2-4.4,12.3c-0.6,1.7,0.4,2.9,1.2,4.1
			c3.6,5.7,7.2,11.3,11,17c0.9,1.3,1.5,2.6,1.5,4.1l-0.4,0.1c-2.7,0.5-4.4,2.7-6.8,3.8c-2.2-1-0.2-3.3-1.3-4.6
			c0.4-1.1,0.4-2.2-0.4-3.1c-3.5-4-6.7-8.3-10.5-12c-0.5-0.4-1-0.7-1.6-0.9C455.6,222.4,456.2,225.5,455.2,226.5z"/>
		<path class="st2" d="M533.8,304.5c-0.9,1.9-0.4,4-0.6,6c-0.7,0.6-1.5,0.7-2.2,0.2c-1.2-1.3-0.7-3.4-2.2-4.6c-2.4-2-5-1.8-7.8-1
			c-7.3,2-11.1-0.8-11.2-8.1c0-4.4-1.5-8.3-4-11.9c-3-4.3-2.3-7.8,2.2-10.6c2.4-1.5,3.4-3.8,4.8-6.1c1.3-2.2,2-4.9,4.8-5.9
			c4.4,2.5,8.7,5.1,13.2,7.4c2,1,2.5,2.4,2.5,4.5c-0.1,8.7,0,17.4,0,26.1C533.3,301.9,532.9,303.3,533.8,304.5z"/>
		<path class="st4" d="M517.6,262.5c-1.7,2.4-3.4,4.9-4.7,7.6c-1.1,2.6-2.8,4.5-5.5,5.8c-2.6,1.2-3.5,5.5-1.7,7.6
			c3.8,4.4,5.1,9.5,5,15.1c-0.1,4.3,4,7.2,8.2,6c1.9-0.5,3.8-1.3,5.8-1.4c3.7-0.2,6.3,3,6.4,7.3c-0.2,0.8-0.8,1.4-1.6,1.5
			c-7.3,1-11.8,6.5-17.1,10.6c-2.3,1.8-4.6,3.3-7,4.9c-0.8,0.5-1.7,1.1-2.8,0.5c0.6-5.6,2.2-11.2,0.1-16.9c-0.3-0.7,0.1-1.7,0.4-2.5
			c2.2-6.2,2-12.4,1.1-18.8c-0.3-1.9-1-2.7-2.7-3.5c-6.4-2.8-7.1-6.2-2.9-12.1c1.7-2.4,3.5-4.6,6.3-5.6c4.5-1.7,4.7-6.1,6-9.7
			C513.1,260,515.3,261.2,517.6,262.5z"/>
		<path class="st7" d="M377.2,271.5c8.7,5.8,17.8,10.9,27,15.8c0.3,0.2,0.5,0.5,0.7,0.9c0.4,5-1.6,8.6-6.2,10.7
			c-1.9,0.9-3.5,1.7-1.1,4.2c2.3,2.4,1,10.2-1.3,12.2c-2.2-0.2-2.8-2.1-3.3-3.7c-2.2-6.8-7.4-9.6-13.7-11.3c-1-0.2-2-0.4-2.7-1.2
			c0-8.5-0.1-16.9-0.1-25.4C376.5,273,376.2,272,377.2,271.5z"/>
		<path class="st11" d="M436,158.6c0.9-0.2,1.2-0.3,1.6-0.3c7.2-0.2,7.2-0.2,7.2-7.6c0-4.4,0.1-8.7,0-13.1c0-2,0.6-2.8,2.6-2.6
			c0.6,0.1,1.2,0,1.9,0c9.3,0,9.3,0,8.9,9.5c-0.2,4-0.3,8-0.6,12c-0.1,1.9,0.5,2.7,2.5,2.6c2.4-0.1,4.7,0,7.9,0
			c-4.5,5.2-8.5,10-12.8,14.6c-3.9,4.2-3,5-7.1-0.1C444.2,168.6,440.2,163.8,436,158.6z"/>
		<path class="st11" d="M331,344.8c-0.5-8.8-0.5-8.8-8.7-8.8c-4.1,0-8.2-0.1-12.4,0c-1.8,0-2.6-0.5-2.4-2.3c0-0.4,0-0.8,0-1.1
			c-0.1-10.7-0.1-10.7,10.8-9.9c3.5,0.3,7,0.3,10.5,0.5c2.1,0.2,3-0.5,2.8-2.7c-0.2-2.3,0-4.7,0-7.8c6.1,5.4,11.6,10.3,17.2,15.2
			c1.2,1.1,0.8,1.9-0.2,2.7C342.8,335.3,337.1,339.9,331,344.8z"/>
		<path class="st12" d="M376.6,299.2c6.9,1.1,13.6,2.6,16.4,10.4c0.7,1.9,1.5,3.9,3.1,5.4c3.3,2.8,4.4,6.7,5.4,10.6
			c0.5,2-1,2.8-2.6,3.5c-4.2,3-8.6,0.5-13,0.5c-3.4,0-6.5-1.5-9.3-3.4C376.6,317.3,376.6,308.2,376.6,299.2z"/>
		<path class="st13" d="M97.6,264.9c5.1,1.5,5.5,1.7,3.2,6.8c-4.5,9.9-4.7,20.6-6.9,31c-0.4,1.9-0.4,3.6,2.2,3.8
			c-0.3,0.8-1.1,0.9-1.6,1.4c-2.2,2.1-2,3.6,0.8,6.4c-1.8,5.4,0.8,10.5,0.8,15.8c-1.1,0.8-2.4,0.6-3.7,0.7c-1.9,0.1-2.1-1.4-2.5-2.6
			c-0.4-1.3-0.7-2.7-0.7-4c-0.1-4.9,0.2-9.7-2.2-14.3c-0.7-1.5-0.6-3.4,0.6-4.9c1.8-12.6,1.7-25.6,7.4-37.5
			C95.7,266.3,95.4,264.5,97.6,264.9z"/>
		<path class="st14" d="M201,331.5c4.2,4.4,7.9,9.2,9.7,15.2c0.9,3.1,2.4,4.8,5.7,5.4c3.6,0.6,6.9,2.7,10.9,1.4
			c1.7-0.5,1.6,1.2,1.5,2.2c-0.7,9.5-1.4,19-2.3,28.5c-0.2,2.6-2.8,3.6-4.6,4.5c-1.9,0.9-2.1-2.2-3.4-3.1c1.6-6.3,3.3-12.5,4.9-18.8
			c0.8-2.9,1.5-5.7,2.4-9c-4,0.5-7.7,0.8-11.4,1.3c-1.5,0.2-2.8,0.4-3.7-1.4c-3.1-6.2-6.3-12.4-9.5-18.6c1-1.1,1.4-2.2,0.5-3.7
			C201,334.2,200.1,333,201,331.5z"/>
		<path class="st15" d="M432,394.4c0.3-1.5,0.5-2.9,0.8-4.4c0.6-3.5,2.9-5.1,6.4-4.2c2.1,0.6,4,0.4,5.7-0.6c3.5-2,6.9-2.2,10.2,0.3
			c0.1,0.2,0.1,0.5,0.2,0.7c0.8,1,1,2.2,1.1,3.5c0.1,4.5,0.1,9.1,0,13.6c0,1.4-0.3,2.7-1.2,3.8c-4.9-1-8.4-4.7-12.8-6.7
			C438.8,398.7,435.5,396.4,432,394.4z"/>
		<path class="st9" d="M87.7,304.9c0.4,3.3-0.6,6.9,2.8,9.4c0.9,0.7,0.1,2.5-0.1,3.9c-0.8,4.4-0.4,8.7,2,12.7
			c-0.9,0.7-2.1,0.6-3.2,0.6c-1.2-1.5-2.8-1.9-4.6-2.2c-2.4-0.4-4-1.8-4.7-4.2c-1-3.4-3-6.7-1.7-10.4c0.4-0.7,1.2-0.8,1.8-1.2
			c1.5-0.8,1.7-2.4,1.8-3.8c0.2-2-1.9-1.1-2.6-2c-0.7-1-1.1-2.1-1.4-3.2C81.3,302.8,84.4,304.9,87.7,304.9z"/>
		<path class="st16" d="M435.8,213.7c1.8,2.4,2.9,5.2,3.8,8.1c1.3,4.1,2.1,4.2,5.2,1.3c0.4-0.4,1-0.7,1.5-1.1
			c0.4,0.3,0.4,0.7,0.1,1.1c-2,5.5-4.6,6.6-8.4,3.5c-3.7-4.9-5.8-10.4-5.2-16.7c1.2-6,0.4-12.2,0.8-18.2c0.2-3.4,1.2-5.9,5.3-5.6
			c1.5,4.9,0.4,10,0.8,15c-0.1,0.2-0.1,0.3-0.2,0.5c-0.7,1-1.9,1.5-2.6,2.6c1.3-0.4,2.5-1.3,3.9-0.4c0.1,0.1,0.2,0.3,0.3,0.4
			c-0.2,4,1.9,7.4,3,11c0.3,0.9,1.2,2-0.1,2.6c-1.4,0.6-1.5-1-1.8-1.8c-0.8-2.1-1.4-4.2-2.2-6.3c-1-2.5-2.6-2.9-4.2-1
			C436,210.3,436.6,212,435.8,213.7z"/>
		<path class="st4" d="M455.2,407.1c0-7,0.1-13.9,0.1-20.9c4.2,1.6,7.9,4,11.6,6.4c2,1.3,2.6,3.8,2.5,6.2
			C464.8,401.8,460.2,404.7,455.2,407.1z"/>
		<path class="st17" d="M77.9,304.4c2,0.3,1.6,1.8,1.7,3.1c-0.1,2.2-1.1,4.4-0.8,6.7c-0.6,4.1,1.3,7.8,2.4,11.5
			c0.8,2.5,3.1,2.4,5.2,2.8c1.5,0.3,3.8,0.1,2.9,2.9c-3.3,1-6.7,2-9.9,3.2c-1.7,0.6-2.2,0-2.5-1.5c-1-5-2.6-10-2.8-15
			c-0.2-4.2,1.1-8.5,1.8-12.8C76,304.1,77.1,304.5,77.9,304.4z"/>
		<path class="st17" d="M110.3,324.8c1.5-2.2,1.7-0.7,1.5,0.6c-0.7,5.2-0.4,10.4-0.9,15.6c-0.7,7-2,13.9-2.8,20.9
			c-0.4,3.3-1.6,4.4-4.6,2.6c0-0.5,0-1-0.1-1.5c2.1-11.7,4.2-23.4,6.2-35.1C110.3,326.9,109.5,325.7,110.3,324.8z"/>
		<path class="st18" d="M139.6,310.4c-0.2-1.9,0.4-2.6,2.5-3c5.4-1,10.5-0.8,15.4,1.7c1.3,0.7,2.9,0.9,3,2.8
			c-2.2,1.7-4.6,0.4-6.9,0.2C149,311.6,144.3,311,139.6,310.4z"/>
		<path class="st19" d="M204.1,325.5c0.7-4.6,4.9-6.5,8.7-3.8c0.9,0.6,1.7,1.4,2.5,2.1c-0.4,2.4-1.5,5.1-3.6,5.4
			C208.9,329.5,206,328.2,204.1,325.5z"/>
		<path class="st20" d="M446.4,223.1c0-0.4-0.1-0.7-0.1-1.1c1.6-2.3,2.7-1.5,2.9,0.8c0.6,6.5,1,13.1,1.6,19.6c0.2,2.3,0.7,4.7,0.7,7
			c0,2.8-1.2,1.2-2.1,0.4c-0.6-6.5-1.1-13.1-1.7-19.6C447.3,227.8,448.5,225.2,446.4,223.1z"/>
		<path class="st21" d="M435.8,227.3c-4.4,1.7-6.3,0.8-7.2-3.5c-0.5-2.3-0.8-4.6-1.1-6.9c-0.4-0.7,0.1-0.9,0.6-1.1c1,0.3,2,0.8,3,1
			C434.3,219.6,434.6,223.6,435.8,227.3z"/>
		<path class="st22" d="M470.2,203.2c-1.7-2.4,0.8-2.2,1.8-2.7c4-1.6,8.5-0.7,12.6-1.9c1.5-1.1,2.9-1.1,4.4,0.1
			c-0.9,2.9-3,3.6-5.7,3.5C478.9,202.2,474.5,201.4,470.2,203.2z"/>
		<path class="st23" d="M435.8,227.3c-2-1.7-2.1-4.3-3-6.4c-0.6-1.2-0.2-3.1-2.2-3.4c-0.4-0.8,0.5-1.4,0.5-2.1
			c0.1-0.6,0-1.2-0.5-1.7c-0.6-0.8-2.4,0.4-2.4-1.5c0.6-2.7,3.4-0.7,4.6-2.2c1,5.8,3,11.3,5.2,16.7
			C437.2,226.9,436.5,227.1,435.8,227.3z"/>
		<path class="st24" d="M204.1,325.5c0.6,0.3,1.1,0.6,1.7,0.8c5.6,2.8,5.6,2.8,9.6-2.5c0.2,0,0.4,0,0.6,0c-0.7,3.1-1.5,6.3-2.2,9.4
			c-0.2,0.8-0.8,2.3-1.5,1.3c-2.4-3.2-5.9-5.3-8.3-8.5C203.9,325.9,203.9,325.7,204.1,325.5z"/>
		<path class="st25" d="M201,331.5c0.6,1.4,1,2.8,1.8,4.1c1.3,2.1,0.8,3.2-1.6,3.4c-1.7-2.3-3.1-4.7-3.8-7.5
			C198.6,330.2,199.9,329.6,201,331.5L201,331.5z"/>
		<path class="st26" d="M489,198.8c-1.5,0-2.9-0.1-4.4-0.1c-2.2-0.6-3.6-1.8-3.2-4.4c2.2,1.1,5,0.3,6.9,2.2
			C489,197.2,490.3,197.6,489,198.8z"/>
		<path class="st27" d="M166.6,307.2c-3.9,1.3-8.7-2.1-9-6.4C160.6,302.9,163.6,305.1,166.6,307.2z"/>
		<path class="st28" d="M431.9,215.9c-0.5,0.5-1,1-1.5,1.5c-1.1,0.1-2.1,0-2.3-1.4c-0.7-0.6,0-1.6-0.5-2.2c-0.1-0.6,0-1.2,0.5-1.7
			c0.9,1.1,2.4-0.7,3.2,0.7C431.2,214,431.2,215.1,431.9,215.9z"/>
		<path class="st29" d="M201,331.5c-1.2-1.1-2.4-0.2-3.6-0.1c-0.2-1.2-0.6-2.3-0.7-3.5c-0.3-2.4,1-1.5,2.1-1
			C198.7,328.9,201.2,329.6,201,331.5z"/>
		<path class="st30" d="M483.6,189.7c1.2-0.9,2.3-1,2.6-0.1c0.5,1.2-0.7,0.8-1.3,0.8C484.6,190.3,484.3,190,483.6,189.7z"/>
		<path class="st31" d="M483.4,192.4c0.6-1,1.5-1.5,2.1-0.7c0.7,1.1-0.5,0.9-1.1,1C484.1,192.8,483.8,192.5,483.4,192.4z"/>
		<path class="st32" d="M486.3,207.3c-0.6,0.9-1.3,1.2-2.1,0.9c-0.1-0.1-0.3-0.5-0.2-0.6C484.6,206.9,485.4,206.9,486.3,207.3z"/>
		<path class="st33" d="M427.6,213.9c0.8,0.6,0.6,1.4,0.5,2.2c-0.3,0.3-0.5,0.5-0.8,0.8C426.5,215.8,427.6,214.9,427.6,213.9z"/>
		<path class="st34" d="M110.3,324.8c0.1,1.1,0.2,2.1-0.6,3c-0.3-0.8,0.2-1.8-0.9-2.4C109.2,325,109.7,324.7,110.3,324.8z"/>
		<path class="st35" d="M671.5,218.6c-1.3,1.5,1.3,4.8-1.6,4.7c-2-0.1-0.7-3.1-0.9-4.8c-0.2-1.2-0.5-1.9-1.6-2.5
			c-14.4-8.9-28.7-17.9-43-26.8c-6.1-3.8-12.4-7.4-18.4-11.4c-2.2-1.5-4.3-2-6.9-1.8c-3.3,0.3-6.6,0.1-10.1,0.1
			c1.1-2.2,2.2-4.6,3.2-6.8c-3.1-2-6.3-4-9.4-6c-0.8-0.5-1.7-0.6-1.7-2.1c0-1.6,1.2-1.2,1.9-1.6c4.6-2.5,9.1-5.4,13.9-7.6
			c6.3-2.9,12.1-6.8,18.4-9.7c8.5-4.1,16.7-9.1,25-13.5c7.8-4.2,15.8-8.1,23.6-12.3c4.3-2.3,8.5-4.7,12.9-7
			c7.4-3.8,14.6-7.9,21.9-11.8c5.3-2.9,10.7-5.7,16.4-8.7c0.6,3.8,0.1,7,0,10.2c-0.4,12.6-0.7,25.2-1.2,37.7
			c-0.8,17-1.3,33.9-1.7,50.9c-0.1,6.2-0.8,12.5-1,18.7c0,1.2,0.1,2.7,1.6,3.8c1.8,1.4,3.2,3.5,4.7,5.3c0.5,0.6,1.4,1.3,0.2,2.1
			c-0.9,0.7-1.4,0-1.8-0.6c-0.9-1-1.8-2.1-2.7-3.1c-0.5-0.5-0.7-1.5-1.7-1c-0.9,0.4-0.6,1.3-0.5,2c0.6,7.1-1.2,14.2-0.1,21.3
			c0,0.3-0.3,0.6-0.5,0.9c-0.7,1.5,0.8,4-1.2,4.6c-1,0.3-2.6-1.6-3.8-2.5c-3-2.1-5.8-0.8-8.6,0.2c-0.9,0.3-1.9,0.6-2.8,0.8
			c-0.2-0.2-0.4-0.4-0.4-0.6c1.5-7,1.5-6.9-4.9-10.6C682.8,225.8,677.2,222.1,671.5,218.6z"/>
		<path class="st35" d="M502.6,327.9c5.6-2.8,10.5-6.7,14.9-11c3.9-3.8,8.7-5,13.5-6.4c0.7,0,1.4,0,2.1,0c0,11.7,0,23.5,0,35.2
			c-7.7,0.3-15.4,0.2-23-1.6c-1.3-0.3-2.5-0.7-3.3,0.6c-4,6-10.2,4.5-15.9,4.6c-1.8,0-3.7-0.4-5.5-0.7c-4.2-0.7-5.5-3.8-2.7-7.3
			c2.4-3,5-5.9,6.8-9.4c0.8-1.6,2-1.8,3.6-2.1C496.2,329.2,499.8,330.3,502.6,327.9z"/>
		<path class="st35" d="M749.9,372.2c-2.1,0.9-2.8,4.5-4.4,3.1c-2.1-1.9,1.4-3,2.2-4.5c0.7-1.3,1.7-2.4,1.3-4
			c-1.5-7.2-3-14.4-4.2-21.6c-0.3-1.9-1.1-2.2-2.7-2.7c-2.8-0.8-6.9,0.2-8.1-2.4c-1-2.2,0.6-5.5,1-8.3c0.2-1.4,0.6-2.7,0.8-4
			c0.2-1.4,0.6-2.4,2.4-1.8c3,1.1,3-0.6,2.5-2.8c-3.6-18.7-7-37.5-10.7-56.2c-0.6-2.9-0.1-3.9,2.8-4.4c28-5.2,56.1-10.5,84.1-15.8
			c7.2-1.4,14.5-2.5,21.7-4.1c2.5-0.6,3,0.2,3.4,2.2c4,21.7,8.1,43.3,12.2,65c2.6,13.7,5.2,27.4,7.8,41.1c0.4,2.2,0.4,3.2-2.3,3.7
			c-35.3,6.6-70.5,13.3-105.8,20C751.7,375.3,750.1,375.1,749.9,372.2z"/>
		<path class="st35" d="M744,427.5c0,38.2-29.9,70.2-68,72.6c-38.6,2.4-72.2-25.5-76.9-63.8c-1.9-15.8,1.1-30.6,8.8-44.4
			c1-1.9,1.3-2.9-0.6-4.6c-3.5-3.1-3.7-8.3-0.8-11.9c2.9-3.7,8.1-4.7,12.1-1.8c1.9,1.4,2.7,1,4.2-0.3c12.2-11,26.6-17,43-18.4
			c1.9-0.2,3.9,0.1,3.3-2.9c-0.2-0.7,0.4-1.1,1.1-1.1c0.8,0,1.2,0.4,1.1,1.1c-0.5,2.6,1.1,2.6,3,2.7
			C713.2,356.4,744,388.5,744,427.5z"/>
		<path class="st36" d="M569.7,230.9c7.2-0.5,14.3-1,21.5-1.4c1-0.1,2.7-0.7,2.5,1.6c-0.8,7.4-1.6,14.8-2.4,22.4
			c-2.2-0.9-3.3-2.4-4.4-3.8c-1.6-1.9-2.6-1.4-4.1,0.1c-4.2,4.3-8.5,8.4-12.6,12.7c-1.4,1.5-2.2,1.4-3.5,0c-2.4-2.7-7-4.9-6.9-7.9
			c0-2.4,4.4-4.9,6.9-7.2c2.6-2.5,5.2-5,8-7.4c1.5-1.3,1.6-2.3,0-3.5c-1.8-1.5-3.5-3.1-5.3-4.7C569.4,231.6,569.5,231.3,569.7,230.9
			z"/>
		<path class="st37" d="M872.1,175.5c-5.4,0.9-7.8,5.4-10.9,9.1c0,0.4-0.2,0.8-0.6,0.8c-1,0-0.7-1.1-1.2-1.6c-1-3.5-3.9-5.1-6.8-6.6
			c-0.4-1.1-2.5,0.4-2.2-1.6c6.3-2.6,8.1-4.6,10.3-12.5c2,6.3,5.5,10,11.4,11.1C872.6,174.6,872.6,175,872.1,175.5z"/>
		<path class="st38" d="M599.2,567c1.8,3.9,4.9,6.3,9,7.5c0.4,0.5,1.7,0.2,1.5,1.1c-0.2,1.2-1.7,0.3-2.2,1.1
			c-4.6,1.8-6.8,5.9-9.7,10.1c-1.5-6-5.5-8.7-11-10.1c4.9-1.5,8.5-4.3,10.2-9c0.7-0.6-0.2-2.1,1.1-2.3
			C599,565.3,598.7,566.5,599.2,567z"/>
		<path class="st39" d="M729.7,54c-4.2,1.3-6.1,4.9-8.6,8.6c-1.5-4.7-4.6-7.2-10.2-8.4c5.9-1.9,9.2-5,10.2-10.5
			c1.8,5,5.2,7.8,10,8.9C731.6,54.1,730,53.4,729.7,54z"/>
		<path class="st40" d="M757.8,28.2c3.5-1.2,5.4-3.1,6.5-7.1c1.6,3.6,3.6,5.5,7.4,6.2c-3.6,1.3-5.4,3.7-7.5,6.4
			C763.1,30.7,761,29.3,757.8,28.2z"/>
		<path class="st41" d="M725.9,254.2c-2.2,0.7-3.6,2.4-4.6,4.3c-1.1,1.1-1.5,0.1-2-0.7c-0.8-2-3-2.5-4.9-4c3.1-1.1,4.9-3.1,5.8-6.4
			c1.8,2.5,3.3,5.1,6.4,5.4C727.2,253.7,726.3,253.9,725.9,254.2z"/>
		<path class="st42" d="M624.8,329.6c1.9-1,3.5-2.3,4.1-4.7c1.6,1.5,2.7,3.4,5.2,3.9c-2,1.5-3.8,2.6-4.9,5.5
			C628.3,331.6,626.6,330.6,624.8,329.6z"/>
		<path class="st43" d="M579.6,104.1c1.2,2.5,2.6,3.8,5.4,4.6c-2.7,1.3-4,2.8-5.5,5c-0.7-2.5-2.6-3.1-4.3-4.5
			C577.3,108.3,578.8,106.9,579.6,104.1z"/>
		<path class="st44" d="M819.6,436.6c-2.4,1.2-3.6,2.6-4.8,4.3c-1.4-1.2-2.3-2.9-4.6-3.6c1.9-1.5,3.5-2.7,4.3-5.2
			C815.7,434.3,817.1,435.6,819.6,436.6z"/>
		<path class="st42" d="M809.7,570.3c-1.2-1.7-2.2-3.2-4.5-3.6c1.9-1.7,3.5-2.9,4.4-5.1c1.2,2,2.8,3.2,4.8,4.3
			C812.4,566.8,811,568.1,809.7,570.3z"/>
		<path class="st45" d="M607.5,102.7c1.2,2.3,2.8,3.4,5.1,4.6c-2.4,1-3.7,2.5-5,4.4c-1.2-1.8-2.5-3.3-4.9-3.9
			C605.1,106.7,606.5,105.2,607.5,102.7z"/>
		<path class="st46" d="M756,92.3c-0.7-1.5-2.2-1.9-3.7-2.7c2.3-0.9,3.6-2.6,4.6-4.6c1.9,2.3,6.2,4.1,1.3,7.2
			C757.5,93.5,756.7,93.5,756,92.3z"/>
		<path class="st45" d="M779.4,132.9c1.8,1,2.7,2.9,5.2,3.2c-1.7,1.8-3.6,2.8-4.8,5.4c-0.9-2.3-2.6-3.3-4.7-4.6
			C777.4,136.1,778.7,134.7,779.4,132.9z"/>
		<path class="st46" d="M847.4,443c-1.1-2.1-2.3-3.2-4.2-4c1.4-1.6,3.6-2.4,3.7-5.3c1.8,1.9,2.9,3.7,5.5,4.4
			C850.3,439.5,848.7,440.7,847.4,443z"/>
		<path class="st46" d="M578.6,520c-2.2,1.3-3.8,2.5-5,5.2c-1-2.5-2.3-3.6-4.3-4.3c1.4-1.5,2.6-3.7,4.1-4
			C575.2,516.7,576.2,519.6,578.6,520z"/>
		<path class="st46" d="M732.8,580.4c-0.6-1.3-2.1-1.6-3.1-2.5c2.5-1.8,2.5-1.8,4.2-4.6c1.3,1.6,2.5,3.3,4.7,3.7
			c-1.1,1.5-3,1.9-3.5,3.5C734.2,581.4,733.4,581.7,732.8,580.4z"/>
		<path class="st47" d="M595.5,318c1,0.7,2,1.5,2.9,2.2c-4,3.8-4,3.8-8.7,0.5c1.4-0.6,2.7-1.4,3.5-2.7
			C594,316.9,594.7,316.8,595.5,318z"/>
		<path class="st48" d="M745.2,248.8c0.6,0.1,6.3,6.4,6.2,7c-0.2,1-1,1.8-1.8,1c-1.9-1.9-3.7-4-5.4-6.2
			C743.5,249.6,744.3,249,745.2,248.8z"/>
		<path class="st48" d="M741,382.3c-1.9,2.1-3.8,4.4-5.8,6.5c-0.1,0.1-0.9-0.1-1.3-0.4c-0.5-0.3-0.6-0.8-0.2-1.3
			c1.8-2.1,3.5-4.3,5.4-6.2C740.1,380.1,740.7,381.1,741,382.3z"/>
		<path class="st35" d="M671.2,270.6c-0.6,1.3,1.1,4.4-1,4.3c-2.8-0.1-0.7-3.1-1.2-4.8c-0.3-1-0.1-2.2,0-3.3
			c0.1-0.8-0.5-2.2,1.2-2.1c1.7,0.1,0.9,1.4,1,2.2C671.3,268.1,671.2,269.2,671.2,270.6z"/>
		<path class="st46" d="M739.1,243.8c-1-0.1-6.6-6.7-6.3-7.2c0.4-0.8,1.2-1.5,2-0.5c1.7,1.9,3.4,3.9,5,6
			C740.8,243.2,739.5,243.4,739.1,243.8z"/>
		<path class="st45" d="M727.4,230.9c-2-2.4-4-4.7-5.7-7.2c-0.3-0.5,1-1.6,1.8-0.9c1.9,1.9,3.7,4,5.3,6.2
			C729.4,229.9,728.5,230.4,727.4,230.9z"/>
		<path class="st35" d="M669,321.1c0.6-1.3-1.1-4.3,1-4.3c2.5-0.1,0.6,2.9,1.2,4.4c0.2,0.4,0.2,1,0,1.5c-0.5,1.2,1.3,3.6-1.2,3.4
			c-2.2-0.1-0.5-2.4-1-3.6C668.9,322.1,669,321.7,669,321.1z"/>
		<path class="st35" d="M671.5,235.9c-1.1,1.6,1.1,4.6-1.6,4.6c-1.9,0-1-2.8-0.9-4.3c0.1-1.7-1.3-4.9,1-4.9
			C672.7,231.3,670.2,234.6,671.5,235.9z"/>
		<path class="st35" d="M668.8,287.2c0.8-1.8-0.8-4.9,1.2-4.9c2.8,0,1,3.1,1.1,4.7c0.1,1.5,1.4,4.5-1,4.5
			C667.7,291.5,669.9,288.4,668.8,287.2z"/>
		<path class="st35" d="M671.2,253.7c-0.8,1.1,1.5,4.1-1.3,4.1c-1.9,0-0.6-2.8-0.9-4.4c-0.2-1.2,0-2.5,0-3.7c0-0.8,0-1.5,1.1-1.5
			s1.1,0.7,1.1,1.5C671.2,250.9,671.2,252.2,671.2,253.7z"/>
		<path class="st35" d="M668.8,304c0.8-1.5-1.1-4.5,1.2-4.5c2.4,0,1.1,3,1,4.5c-0.1,1.6,1.7,4.7-1.1,4.7
			C667.9,308.8,669.5,305.7,668.8,304z"/>
		<path class="st35" d="M668.8,338.6c0.7-1.6-0.9-4.7,1.1-4.6c2.8,0.1,1,3.1,1.1,4.8c0.1,1.5,1.4,4.5-1,4.5
			C667.8,343.2,669.6,340.2,668.8,338.6z"/>
		<path class="st49" d="M850,483.9c-1.4,0.2-1.2,3.9-3.6,1.7c-1-0.9-1.1-1.3-0.2-2.5C848.3,480.3,848.6,483.8,850,483.9z"/>
		<path class="st49" d="M697.4,261.1c-0.5-0.6-1.7-1.5-1.6-2.1c0.2-1,1.2-2.2,2.1-2.4c0.8-0.1,2.3,1.1,2.1,2.1
			C699.9,259.5,698.5,260.1,697.4,261.1z"/>
		<path class="st50" d="M570.4,360.4c-0.3,1-1.1,1.8-2,2c-1.1,0.3-1.9-0.8-2-1.7c-0.1-1,0.9-2,1.8-2.1
			C569.1,358.5,569.8,359.6,570.4,360.4z"/>
		<path class="st51" d="M710.1,343.8c-0.8-0.6-2.1-1.1-1.9-2.1c0.1-1,1.1-2.2,2.2-2.1c0.8,0.1,2,1.2,2,1.8
			C712.2,342.5,711.1,343.3,710.1,343.8z"/>
		<path class="st52" d="M695.5,38.9c-0.5,0.9-1.2,1.9-2.1,1.9c-0.9,0-2-0.8-1.8-1.8c0.1-0.8,0.9-2,1.9-1.9
			C694.4,37.2,695.2,38,695.5,38.9z"/>
		<path class="st53" d="M830.8,28c-0.7-0.5-1.8-0.8-1.7-1.8c0.1-1,0.9-1.9,1.8-2c0.9,0,2,0.9,1.9,1.8C832.7,27,831.8,27.8,830.8,28z
			"/>
		<path class="st54" d="M833.5,67.3c-0.6,0.8-1.1,1.8-2.1,1.8c-0.8,0-1.7-0.8-1.7-1.6c0-1,0.9-1.9,1.7-2
			C832.3,65.4,833,66.4,833.5,67.3z"/>
		<path class="st55" d="M845.8,409.1c-0.8,0.5-1.1,1.9-2.2,1.7c-0.8-0.1-2-0.9-1.8-1.8c0.2-0.7,1.3-1.7,2.1-1.7
			C844.6,407.2,845.5,408.1,845.8,409.1z"/>
		<path class="st56" d="M637.6,79c-0.6-0.7-1.8-1.5-1.7-2.1c0.1-0.8,1.3-2,1.9-1.9c0.9,0.1,2.3,0.9,2.1,2
			C639.8,77.6,638.5,78.2,637.6,79z"/>
		<path class="st57" d="M606.2,349.4c-0.9,0.8-1.6,1.8-2.3,1.8c-0.8,0-2-0.8-1.8-1.8c0.2-0.8,1.2-1.8,1.9-1.9
			C604.6,347.5,605.3,348.7,606.2,349.4z"/>
		<path class="st58" d="M863.8,510.4c-0.8,0.6-1.5,1.5-2.3,1.6c-0.5,0.1-1.7-0.9-1.8-1.5c-0.1-0.9,1-1.9,1.8-2
			C862.4,508.4,863.1,509.3,863.8,510.4z"/>
		<path class="st55" d="M802.3,211.3c-0.5,0.9-1.1,1.9-2,1.9c-0.6,0-1.8-0.9-1.8-1.5c-0.1-1,0.9-2,1.7-2.1
			C801.2,209.4,801.7,210.6,802.3,211.3z"/>
		<path class="st59" d="M778.5,526.7c-0.8-0.5-1.7-1-1.7-1.8c0-1,1-2,1.8-2c0.7,0,1.9,0.9,1.8,1.9
			C780.3,525.6,779.5,526.3,778.5,526.7z"/>
		<path class="st49" d="M632.8,31.6c-0.8-0.7-1.8-1.2-1.9-1.8c-0.2-1,1-1.9,1.7-2c0.9-0.2,2.1,0.8,2.1,1.6
			C634.7,30,633.6,30.7,632.8,31.6z"/>
		<path class="st60" d="M620,290.7c-0.8,0.5-1.5,1.4-2.4,1.5c-0.5,0.1-1.2-1-1.8-1.6c0.7-0.6,1.3-1.7,2-1.8
			C618.6,288.7,619.5,289.6,620,290.7z"/>
		<path class="st61" d="M712.9,318c-0.1,1-0.8,1.5-1.4,1.7c-0.8,0.3-1.5-0.5-1.7-1.1c-0.3-1,0.7-1.6,1.4-1.8
			C711.8,316.7,712.4,317.6,712.9,318z"/>
		<path class="st61" d="M600.9,499c-0.6-0.4-1.5-0.8-1.3-1.5c0.2-0.6,1-1.5,1.5-1.4c0.7,0.1,1.8,0.6,1.5,1.7
			C602.4,498.3,601.8,498.9,600.9,499z"/>
		<path class="st62" d="M820.4,85.3c-0.5,0.4-1.1,1.1-1.7,1.2c-0.7,0.1-1.5-0.7-1.5-1.3c0-0.8,0.7-1.6,1.7-1.5
			C819.6,83.8,820.1,84.4,820.4,85.3z"/>
		<path class="st63" d="M642.2,533.9c-0.5,0.4-1,1.2-1.6,1.2c-0.7,0.1-1.5-0.7-1.5-1.4c0.1-0.8,0.7-1.7,1.7-1.5
			C641.5,532.3,642.1,532.9,642.2,533.9z"/>
		<path class="st64" d="M619.4,238.6c0,0.8-0.8,1.2-1.4,1.4c-0.8,0.2-1.6-0.5-1.6-1.1c0-0.5,0.8-1.3,1.3-1.5
			C618.5,237.1,619,237.9,619.4,238.6z"/>
		<path class="st65" d="M578.4,202.4c-0.8-0.2-1.5-0.6-1.5-1.4c0-0.8,0.6-1.4,1.4-1.5c0.9-0.1,1.4,0.6,1.4,1.3
			C579.8,201.6,579.2,202.1,578.4,202.4z"/>
		<path class="st66" d="M788.2,475.2c-0.7,0.6-1.1,1.3-1.8,1.4c-0.7,0.2-1.4-0.5-1.5-1.2c0-0.9,0.7-1.6,1.5-1.6
			C787.1,473.8,787.6,474.6,788.2,475.2z"/>
		<path class="st67" d="M691.6,295.6c-0.4,0.6-0.7,1.5-1.6,1.2c-0.6-0.1-1.2-0.5-1.2-1.2c0.1-0.8,0.7-1.5,1.4-1.5
			C691,294.1,691.5,294.8,691.6,295.6z"/>
		<path class="st68" d="M866.7,101.7c-0.6,0.6-1,1.4-1.5,1.6c-0.8,0.3-1.4-0.4-1.5-1.1c-0.3-1,0.6-1.7,1.3-1.8
			C865.4,100.3,866,101.1,866.7,101.7z"/>
		<path class="st69" d="M601.6,50.1c0.8,0.5,1.5,0.8,1.4,1.7c-0.1,0.7-0.6,1.4-1.4,1.3c-0.7-0.1-1.5-0.6-1.3-1.4
			C600.5,51.1,601.2,50.6,601.6,50.1z"/>
		<path class="st70" d="M607.5,576.7c0-0.8,2.8-0.8,0.7-2.3c1.2-0.3,2.3,0.1,3.6,1C610.4,576.5,609,576.8,607.5,576.7z"/>
		<path class="st71" d="M709,282.5c-0.5,0.9-0.7,1.7-1.6,1.6c-0.7-0.1-1.4-0.5-1.3-1.4c0.1-0.7,0.7-1.5,1.4-1.4
			C708.1,281.4,708.5,282.1,709,282.5z"/>
		<path class="st64" d="M574.7,407.4c0.4-0.8,0.8-1.5,1.6-1.4c0.7,0,1.4,0.7,1.3,1.5c-0.1,0.7-0.7,1.4-1.5,1.3
			C575.4,408.6,574.6,408.2,574.7,407.4z"/>
		<path class="st72" d="M871.5,590.2c-0.2,1-0.8,1.4-1.5,1.5c-0.8,0.1-1.5-0.4-1.5-1.2c0-0.7,0.6-1.3,1.4-1.4
			C870.8,588.9,870.9,589.8,871.5,590.2z"/>
		<path class="st73" d="M780.1,564.8c-0.2,0.8-0.7,1.4-1.4,1.3c-0.5,0-1.4-0.6-1.4-1c-0.1-0.7,0.5-1.5,1.3-1.6
			C779.5,563.2,779.7,564.1,780.1,564.8z"/>
		<path class="st74" d="M859.5,183.7c0.8-0.1,0.2,2.6,1.8,0.8c0.9,1.1,0.5,2.5-0.7,2.4C858.8,186.8,859.4,185,859.5,183.7z"/>
		<path class="st75" d="M535.6,545.6c0.5-1,0.9-1.7,1.7-1.7c0.7,0.1,1.3,0.7,1.2,1.5c-0.1,0.7-0.7,1.4-1.5,1.2
			C536.5,546.5,536,545.9,535.6,545.6z"/>
		<path class="st76" d="M599.2,567c-1.5-1.9-1.4,0.6-2.2,0.7c-0.2-1.4,0.2-2.7,0.8-4.1C599.1,564.6,599.3,565.7,599.2,567z"/>
		<path class="st77" d="M561.4,435.4c-0.7-0.3-1.4-0.8-1.2-1.6c0.2-0.5,0.8-1,1.3-1.1c0.7-0.1,1.4,0.5,1.4,1.3
			C562.9,434.9,562.3,435.3,561.4,435.4z"/>
		<path class="st78" d="M736.6,154.9c-0.2,0.9-0.6,1.6-1.4,1.6c-0.6,0-1.2-0.5-1.2-1.1c0-0.8,0.6-1.5,1.4-1.5
			C735.8,153.9,736.2,154.6,736.6,154.9z"/>
		<path class="st79" d="M819.4,398.5c-0.7-0.6-1.5-1-1.5-1.4c0-0.9,0.6-1.7,1.5-1.7c0.4,0,1,0.7,1.1,1.2
			C820.8,397.5,819.8,397.6,819.4,398.5z"/>
		<path class="st80" d="M640.8,39c-0.9,1.2-1.2,2-2.1,1.7c-0.5-0.2-1.1-0.9-1-1.3c0.1-0.7,0.8-1.3,1.6-1.2
			C639.8,38.3,640.4,38.7,640.8,39z"/>
		<path class="st81" d="M613.6,90.4c-0.2,1-0.7,1.6-1.4,1.7c-0.5,0-1.2-0.5-1.2-1.2c0-0.8,0.6-1.4,1.3-1.4
			C612.8,89.3,613.2,90,613.6,90.4z"/>
		<path class="st82" d="M595.5,318c-0.8-0.6-1.6-0.8-2.4,0c0-0.9,0-2,1.1-2C595.1,316,595.5,317,595.5,318z"/>
		<path class="st83" d="M850.4,175.5c0.5,0.8,1.9,0.5,2.2,1.6c-1-0.2-2.1-0.4-3.1-0.6c-0.2-0.1-0.8-0.3-0.4-0.7
			C849.5,175.6,850,175.6,850.4,175.5z"/>
		<path class="st84" d="M872.1,175.5c0-0.5,0-0.9,0-1.4c0.8,0,2-0.4,2,0.7C874.1,175.9,872.9,175.6,872.1,175.5z"/>
		<path class="st85" d="M729.7,54c0.5-0.5,1-0.9,1.5-1.4c0.6-0.1,1.5-0.1,1.2,0.6C731.9,54.4,730.7,54.1,729.7,54z"/>
		<path class="st86" d="M732.8,580.4c0.7,0.7,1.4,1.1,2.3,0.2c0,0.8-0.3,1.6-1.1,1.7C732.8,582.3,732.7,581.3,732.8,580.4z"/>
		<path class="st87" d="M725.9,254.2c0.2-0.4,0.4-0.9,0.7-1.4c0.6-0.1,1.4-0.2,1.2,0.7C727.6,254.5,726.7,254.4,725.9,254.2z"/>
		<path class="st88" d="M719.3,257.9c0.6,0.3,1.1,1.1,2,0.7c0,0.7-0.3,1.4-1,1.3C719.3,259.8,719.2,258.8,719.3,257.9z"/>
		<path class="st89" d="M756,92.3c0.7,0.6,1.5,0.5,2.2,0c0.1,0.8-0.3,1.6-1.1,1.6C756.1,93.8,755.9,93.1,756,92.3z"/>
		<path class="st5" d="M122.9,481.6c13.2,0,26.5-0.1,39.8-0.1c-4.4,3.4-8.9,6.7-13.3,10.1c-1,0.8-1.8,1-3,0.4
			C138.5,488.5,130.7,485,122.9,481.6z"/>
		<path class="st90" d="M49.5,455c-0.2-0.2-0.5-0.5-0.8-0.7c1.2-1,2.6-0.6,3.9-0.7C51.8,454.8,50.6,454.7,49.5,455z"/>
		<path class="st91" d="M54.9,453c0.2,0.5,0.5,0.9,0.7,1.3c-1-0.2-2-0.5-3.1-0.7C53.1,452.9,54,452.9,54.9,453z"/>
		<path class="st1" d="M381.3,559.8c1.9,5.8,3.6,10.9,5.3,16c0.2,0,0.5,0,0.8,0.1c1.6-6,3.1-12.1,4.8-18.7c3.9,6.9,5.5,14,7.7,21.6
			c3-4,5.6-7.4,8.6-11.3c0.7,4.2-0.5,7.8-0.4,11.3c0.1,1.7-1.1,1.7-2.3,1.7c-9.1,0-18.2,0-27.4,0c-1,0-2-0.1-2.6-1.1
			c-2.7-4.2-5.5-8.5-7.7-13.3c2.8,1.2,5.7,2.3,8.4,3.7c1.7,0.9,2.4,0.4,2.7-1.4C379.8,565.8,379.8,563,381.3,559.8z"/>
		<path class="st92" d="M115.7,363.6c1.7-11.4,3.5-22.8,5.2-34.2c0.6-0.6,1.1-0.5,1.7,0c1,1.4,1.1,3,1.4,4.6
			c1.4,7.6,2.8,15.2,4.1,22.9c0.4,2.4,1,5-1.4,6.9C123.1,363.7,119.4,363.7,115.7,363.6z"/>
		<path class="st14" d="M212.2,394.5c5.4,2.4,10.7,0.9,16-0.1c1.7-0.3,2.5-1.1,2.9-2.8c1.1-4.3,2.4-8.6,3.7-12.9
			c1.4-0.1,1.2,0.6,0.7,1.5c-1.2,5.7-2.5,11.5-3.8,17.2c-0.6,0.2-1.3,0.3-1.6,0.7c-3.4,4.8-8.3,3.9-13.1,3.5c-2-0.2-3.9-0.3-5.9-0.4
			c-1.2-0.1-2.6,0.3-2.8-1.6c0.9-1.7,2.6-1.6,4.2-2C212.4,396.7,211.3,395.7,212.2,394.5z"/>
		<path class="st17" d="M126.8,363.7c1.9-6.5-1.1-12.5-1.8-18.6c-0.6-5.3-1.8-10.5-2.7-15.7c-0.5-0.7-0.6-1.5,0-2.2
			c0.2-0.7,0.2-1.6,1-1.8c1-0.3,1.2,0.7,1.5,1.3c1.9,3.3,1.9,7.1,2.4,10.8c1.1,8.9,3.2,17.7,3.4,26.8c0.1,3.2-0.8,3.8-3.8,3.3
			C126.7,366.2,126.7,364.9,126.8,363.7z"/>
		<path class="st93" d="M155.1,419.3c-7.8,0.2-7.7,0.2-9.1-7.3c-0.3-1.7-0.7-3.4-0.3-5.9c2.2,3.6,4.1,6.7,6.4,10.3
			c0.4-3.5,0.7-6.3,1.1-10c1.3,2.9,2.3,5.1,3.6,8.2c1.7-3.8,3.1-7,4.6-10.2c1.9,0.6,0.8,1.9,0.8,3c-0.3,3.7-0.6,7.4-0.8,11.1
			C159.6,420.9,157.2,419.2,155.1,419.3z"/>
		<path class="st94" d="M288,382.9c2.3,5.4,5.7,1.7,8.6,1.5c0.1,0.2,0.2,0.3,0.3,0.4c0.6,6.7,0.6,6.7-6,6.7c-1.5,0-3,0-4.5,0
			c-6.1,0-6.1,0-5.8-6.2c1.5-0.3,1.7,1.1,2.5,1.8c0.8,0.6,1.4,1.4,2.2,2.3C287.1,387.5,286,385,288,382.9z"/>
		<path class="st95" d="M212.2,394.5c2.8,4.7-1.5,4.2-3.8,5.2c-1.6-2.8-1.7-6-2.7-8.9c0.7,0,1.4,0,2.2,0c0.9,0.6,2,1,3,1.5
			C211.3,393,211.8,393.8,212.2,394.5z"/>
		<path class="st96" d="M126.7,375.8c0.1-1.8-0.3-4,2.2-4.4c2.4-0.4,5.1-2.1,6.8,1.2c-0.6,1.3-1.9,1.6-3,1.9c-1.4,0.4-2,1.4-2.2,2.7
			C129,377.5,126.5,380.3,126.7,375.8z"/>
		<path class="st97" d="M130.5,377.2c-0.7-1.2-1.9-2.5,0.7-3.1c1.5-0.3,3-1,4.5-1.5c1.8-0.7,1.5,0.6,1.6,1.6
			C135.5,376.1,132.7,376,130.5,377.2z"/>
		<path class="st98" d="M155.1,419.3c2-0.5,4.3,0.7,6.2-0.9c2.2-0.8,2.8-3.4,5-4.2c-0.6,5.8-0.7,5.9-6.1,5.7
			C158.5,419.8,156.8,420.2,155.1,419.3z"/>
		<path class="st99" d="M105,373.4c1.1,0,2.2,0.3,3.2-0.6c1-0.7,2.1-0.9,2.9,0c0.7,0.8,0.1,1.5-0.6,2.1c-2.3,0.3-4.5,1.1-6.9,0.9
			C102.9,374.3,102.7,373.1,105,373.4z"/>
		<path class="st100" d="M105,373.4c-1.6,0.1-1.4,1.3-1.4,2.4c-2.8,1.6-3.3,0.2-3-2.3C102.1,373.5,103.5,371.8,105,373.4z"/>
		<path class="st101" d="M110.5,374.9c1.1-2.8-1-2-2.3-2.1c-0.5-0.1-1-0.1-1.5-0.2c5.3-1.9,5.5-1.9,5.9,2.2
			C111.8,374.8,111.2,374.9,110.5,374.9z"/>
		<path class="st102" d="M162.2,407.3c-0.4-1,0.3-2.2-0.8-3c0.2-0.7,0.3-1.4,1.3-1.9C162.8,404.2,163.1,405.8,162.2,407.3z"/>
		<path class="st35" d="M405.8,284.2c-1-0.8-2.1-0.6-3.2-0.7c-2-0.2-3.1-1.2-3.5-3.2c-0.6-2.7-2.5-5.8-1.7-7.8
			c1-2.4,4.9-1.2,7.5-1.2c6-0.1,11.5-2.1,17-4c5.3-1.9,10.6,0.3,15.9,0.2c3.9-0.1,7.1,1.7,10.4,3.6c5.2,3.1,10.6,6.1,16,9
			c2,1.1,2.8,2.4,2.2,4.5c-0.7,2.6,0.1,5.6-2.7,7.8c-2.2,1.8-4.2,2.7-7,2.6c-3.2-0.1-6.5-0.4-9.6,0.6c-8,1.5-14.8-1.1-21-6
			c-3.3-2.6-7.2-3.1-11.2-3.4C411.7,285.8,408.6,286,405.8,284.2z"/>
		<path class="st35" d="M455.2,364.3c1-0.2,1.9-0.5,2.9-0.6c3.4-0.2,6-1.3,8.3-4.1c3.7-4.5,5.5-4.8,8.9-2.3
			c2.2,1.6,2.8,7.5,1.9,10.6c-1.9,6.5-7.5,8.5-12.7,11c-1.1,0.5-1.9,0.1-2.8-0.3c-2.2-1-4.3-1.9-6.5-2.9l0,0
			c-1.8-3.8-1.7-7.5-0.1-11.3C455.2,364.4,455.2,364.3,455.2,364.3z"/>
		<path class="st4" d="M405.8,284.2c5.2,0.5,10.4,0.8,15.5,1.6c3.2,0.5,5.8,2.9,8.3,4.8c4.2,3.1,8.6,4.7,13.9,4.2
			c1.1-0.1,2.5-0.6,3.5,0.7c-4,1.5-8.5,1.3-12.1,4.3c-1.6,1.3-4.7-0.6-6.5,1.7l-0.1,0.1c-0.4,0.1-0.8,0.3-1.1,0.1
			c-7.8-4.3-15.8-8.2-22.8-13.8c0-0.2-0.1-0.4-0.1-0.6C404.7,286.2,405.3,285.2,405.8,284.2z"/>
		<path class="st103" d="M459,223.5c2.3-0.1,3.1,2,4.3,3.3c3,3.2,5.6,6.7,8.5,9.8c1.7,1.8,0.7,2.5-0.8,3.3c-2.2-3-4.4-6-6.6-8.9
			C461.8,229.2,459.4,227.1,459,223.5z"/>
		<path class="st104" d="M459,223.5c1.8,2.5,3.6,5,5.5,7.5c-3.6-0.5-6-3.2-9.2-4.5c-0.1-1.4-1.1-3.1,0.5-4.1
			C457.2,221.4,458,223,459,223.5z"/>
		<path class="st105" d="M472.4,244.6c1.8-2.1,3.2-4.9,6.8-3.8c0,0.5,0,1,0,1.5c-2,1.1-3.6,2.8-5.3,4.3
			C473.4,245.9,472.9,245.3,472.4,244.6z"/>
		<path class="st106" d="M473.9,246.6c0.5-3.1,2.7-3.9,5.3-4.3C478,244.6,477.1,247.1,473.9,246.6z"/>
		<path class="st107" d="M447,258.1c2.3-1.4,4.8-1.9,7.5-1.5c-1.7,0.8-3.3,1.6-5,2.4C448.4,259.6,447.3,259.8,447,258.1z"/>
		<path class="st108" d="M454.5,256.5c-0.5-0.4-1.1-0.8-1.8-1.3c1.5,0,2.4-2,4-0.9C456.7,255.7,455.9,256.4,454.5,256.5z"/>
		<path class="st35" d="M192.4,233.2c7.5,0,15,0.1,22.5-0.1c2.1,0,2.7,0.6,2.7,2.7c0,2.1-0.5,2.7-2.7,2.7c-15.1-0.1-30.2-0.1-45.3,0
			c-2.1,0-2.7-0.6-2.7-2.7c0-2.1,0.6-2.7,2.7-2.7C177.2,233.3,184.8,233.2,192.4,233.2z"/>
		<path class="st109" d="M172.8,226.4c-5.9,0-11.7-0.1-17.6,0.1c-2.3,0.1-3-0.5-3-2.9c0-2.1,0.7-2.7,2.8-2.7
			c11.9,0.1,23.7,0.1,35.6,0c2.2,0,3,0.4,3,2.9c0,2.6-1.2,2.7-3.2,2.7C184.5,226.4,178.6,226.4,172.8,226.4z"/>
		<path class="st35" d="M200.3,201.9c-4.7,0-9.5-0.1-14.2,0c-2.1,0.1-3.1-0.3-3-2.8c0.1-2.2,0.9-2.6,2.8-2.6
			c9.7,0.1,19.4,0.1,29.1,0c2.3,0,2.6,0.8,2.6,2.8c0.1,2.2-0.8,2.7-2.8,2.6C210,201.8,205.1,201.9,200.3,201.9z"/>
		<path class="st110" d="M187.5,214.1c-3.9,0-7.7-0.1-11.6,0c-2,0.1-2.3-0.9-2.2-2.5c0.1-1.4-0.4-3.1,2-3c7.9,0.1,15.9,0.1,23.9,0
			c2.5,0,1.8,1.7,2,3.1c0.2,1.7-0.4,2.5-2.2,2.5C195.4,214,191.5,214.1,187.5,214.1z"/>
		<path class="st35" d="M164,201.9c-3.1,0-6.2-0.2-9.3,0.1c-2.6,0.2-2.3-1.3-2.4-3c-0.1-2.1,0.7-2.5,2.6-2.4c6.3,0.1,12.7,0.1,19,0
			c2.2-0.1,2.6,0.8,2.6,2.8c0,2.2-0.8,2.7-2.8,2.6C170.4,201.7,167.2,201.9,164,201.9z"/>
		<path class="st110" d="M208.8,220.9c1.9,0,3.7,0,5.6,0c1.8-0.1,3.3-0.2,3.3,2.6c0,2.6-1,3.1-3.3,3c-4-0.1-8-0.2-11.9,0
			c-2.3,0.1-2.2-1.2-2.3-2.8c0-1.6,0-2.9,2.3-2.8C204.6,221.1,206.7,220.9,208.8,220.9z"/>
		<path class="st111" d="M159.7,208.6c1.4,0,2.7,0.1,4.1,0c2.2-0.2,3.4,0.2,3.3,2.9c0,2.7-1.4,2.6-3.3,2.6c-2.9-0.1-5.7-0.1-8.5,0
			c-2.1,0.1-3.1-0.3-3.1-2.8c0-2.4,0.8-3.1,3-2.8C156.7,208.7,158.2,208.6,159.7,208.6z"/>
		<path class="st112" d="M212.7,214.1c-1.2-0.8-3.9,1.6-4.3-1.9c-0.3-2.5,0.1-4.2,3.3-3.6c0.8,0.1,1.7,0.1,2.6,0
			c2.1-0.2,3.4,0,3.4,2.8c0.1,3.1-1.7,2.7-3.5,2.7C213.8,214.1,213.4,214.1,212.7,214.1z"/>
		<path class="st111" d="M155.7,238.4c-2.3,0.4-3.5,0.1-3.5-2.7c0-2.8,1.4-2.6,3.2-2.6c1.8,0.1,3.7-0.6,3.6,2.6
			C158.9,238.7,157.6,238.8,155.7,238.4z"/>
		<path class="st15" d="M404.3,287.9c8,4.6,15.9,9.1,23.9,13.7c-0.1,5.6,0.7,10.9,3,16.3c1.9,4.5,0.1,9.8-2,14.3
			c-0.6,1.3-2.2,0.5-3.4,0.4c-9-0.6-17.7-4-26.9-3.4c1.8-1.5,2.4-3.1,1.2-5.4c-1.5-2.8-2.7-5.8-4-8.7c2.5-3.4,2-10.4-1.1-12.5
			c-1.2-0.9-1-1.5-0.1-2.3c0.6-0.5,1.2-1,1.9-1.2C401.7,297,404.3,293.4,404.3,287.9z"/>
		<path class="st12" d="M455.2,364.4c0,3.8,0.1,7.5,0.1,11.3c-10.9-3.4-22-6-33.2-8.2c-2.3-0.5-3-1.9-3.4-3.8
			c-0.4-2.6-0.5-5.2-1.2-7.7c-0.9-3.3,1.2-3.5,3.2-3.2c2,0.3,4.3,0.9,5.6,2.7c2.2,2.9,5.4,3.5,8.4,2.9c3.7-0.7,6.2,0.7,9,2.4
			C447.2,362.9,451,364.2,455.2,364.4z"/>
		<path class="st113" d="M235.6,380.2c0-0.6-0.1-1.2-0.7-1.5c1-3.5,2.1-7.1,3.1-10.7C237.8,372.3,236.9,376.3,235.6,380.2z"/>
		<path class="st114" d="M241.2,343.6c2.8,1.1,2.8,2.8,2.6,4.4c-0.2,1.7-1.6,2-3.6,2.1C242.1,348.2,242.6,346.4,241.2,343.6z"/>
		<path class="st115" d="M210.8,392.2c-1.5,0.6-2.3-0.3-3-1.5C209.1,390.6,210.3,390.8,210.8,392.2z"/>
		<path class="st116" d="M115.7,294.7c-2.3,0.7-3.2-0.5-3.6-3c-0.7-5.9-1.6-11.8-2.5-17.7c-0.2-1.6,0.2-2.4,2.1-2.7
			c6.4-1,6.6-1,7.1,4.9c0.3,4.3,1,8.6,1.8,12.9C121.4,294.2,121.2,294.5,115.7,294.7z"/>
		<path class="st117" d="M104.2,278.7c0.6,6.7,2.3,12.6,1.1,18.8c-0.3,1.4-0.2,2.7-2,3c-2,0.3-3.1-1.5-3.1-2.6
			c-0.3-5.8-1.5-11.7,1.5-17.1C102.1,280,103.1,279.6,104.2,278.7z"/>
		<path class="st118" d="M130.5,289c0.2,3,0.2,6.4-1.5,9.5c-0.5,0.9-1,1.9-2.1,1.9c-1.6,0-1-1.5-1.1-2.3c-0.6-5.2-1.9-10.3-0.8-15.6
			c0.3-1.7,0.4-3.5,2.6-3.3c1.8,0.1,2.7,1.8,2.9,3.4C130.7,284.6,130.5,286.6,130.5,289z"/>
		<path class="st110" d="M115.3,311.4c4.1-1.4,8.3-1.4,12.4-2.3c0.7-0.2,1.3,0.2,1.2,1c-0.3,1.8,0.2,4-1.5,5.2
			c-1.5,1.1-3.1,2.3-5.5,1.3C119.3,315.5,116.6,314.6,115.3,311.4z"/>
		<path class="st119" d="M117.5,305.2c-5.2,0.5-4-3.8-4-5.9c0-4.5,4.2-2.3,6.2-2.5c3.5-0.4,2.1,3.1,2.4,4.9
			C122.9,306,119.4,304.8,117.5,305.2z"/>
		<path class="st120" d="M95.3,314.3c-2-0.3-3.8-1-3.4-3.4c0.4-2.2,0.9-4.8,4.2-4.5l0,0.3c1.4,2-0.6,4.9,1.6,6.7
			C97,314.3,96.1,314.2,95.3,314.3z"/>
		<path class="st121" d="M97.6,313.6c-1.7,0-2.6-0.6-2.3-2.4c0.2-1.4,0.5-2.9,0.7-4.3c2.2-0.5,3.5,0.2,2.8,2.6
			C98.5,310.8,98.9,312.5,97.6,313.6z"/>
		<path class="st122" d="M122.2,327.1c0,0.7,0,1.5,0,2.2c-0.4,0-0.8,0-1.2,0C120.8,328.3,120.6,327.2,122.2,327.1z"/>
		<path class="st119" d="M444.7,187.7c1.3-0.2,1.4,0.7,1.6,1.6c1,3.4,1.8,6.8,3,10c0.9,2.4,0,3.2-2.2,3.9c-2.8,0.9-2.8-0.9-3.2-2.6
			c-0.8-2.9-1.7-5.7-2.5-8.6C440.7,189.3,441.9,187.7,444.7,187.7z"/>
		<path class="st116" d="M451.6,207.5c-0.3,2.3-2.3,2.2-3.6,2.4c-2.4,0.2-2.1-2.2-2.3-3.5c-0.2-2.3,2.2-2.1,3.5-2.2
			C451.6,203.9,450.8,206.4,451.6,207.5z"/>
		<path class="st123" d="M435.8,213.7c-0.4-1.7-1.3-3.4,0-5.1c1.7-0.3,2.9,0.3,3.5,2c0.4,1.1,0.6,2.2-0.2,3.2
			C438,215,436.9,214.4,435.8,213.7z"/>
		<path class="st124" d="M452.2,198.8c0.7-4.2,3.8-6.1,6.6-4.2c0.4,0.2,0.7,0.7,0.8,1.1c0.1,0.6-0.5,0.8-1,0.7
			c-1.2-0.1-2.5-0.2-3.6,0.6C454.1,197.5,453.2,198.1,452.2,198.8z"/>
		<path class="st125" d="M449,215.6c2.1-0.9,3.3-3.4,5.5-2.4c1.1,0.5,0.6,2.5-0.5,3.6C452,218.7,450.8,216.9,449,215.6z"/>
		<path class="st126" d="M439.5,201.1c1.3-0.1,2.5,0.2,2.9,1.6c0.4,1.3-0.7,1.3-1.5,1.5l0.1-0.1c-1.1-0.6-2-1.3-1.4-2.8L439.5,201.1
			z"/>
		<path class="st127" d="M78.8,314.2c-1.7-2.5-1.1-4.6,0.8-6.7c1.1-0.2,2.2-0.3,3.3-0.5C83.3,312.3,82,314.7,78.8,314.2z"/>
		<path class="st128" d="M439.6,201.2c0.5,0.9,0.9,1.9,1.4,2.8c-2.2-0.6-3.6,1.6-5.9,1.9C435.4,202.7,437.4,201.8,439.6,201.2z"/>
		<path class="st129" d="M431.9,215.9c-1.3-0.8-2.1-1.7-0.6-3C432.1,213.8,432,214.9,431.9,215.9z"/>
		<path d="M707.9,235.4c-4.1-3.5-7.5-6.5-11-9.5c-0.3,0.2-0.6,0.2-0.7,0.4c-1.1,4.5-1.1,4.5-5,2c-5.7-3.6-11.7-6.8-17.1-10.8
			c-6.7-4.9-14.3-8.5-21.2-13.1c-7.2-4.9-14.7-9.2-22.1-13.8c-7.3-4.5-14.7-8.8-21.7-13.6c-2.2-1.6-3.3-4.8-4.9-7.3
			c-2.2-3.3-4.3-6.7-6.7-10.2c-1.5,1.4-2.2,3.2-2.7,4.9c-1,2.9-2.7,2.4-4.4,1.1c-1.8-1.4-3.7-2.7-6.3-3.9
			c43.2-23.1,86.1-46,129.1-69c-1.4,8,0,16.1-0.9,24.1c-0.7,6.2,0.2,12.5-0.7,18.6c-1.1,8,0.2,16-1.3,23.9c-0.5,2.5-0.2,5.2-0.1,7.8
			c0.4,10.1-0.7,20.1-0.9,30.2c-0.2,9.4-0.3,18.8-0.7,28.2C708.4,228.4,708.1,231.5,707.9,235.4z"/>
		<path class="st130" d="M705.6,236.7c0.8-0.3,1.7-1.4,2.3,0c0.2,0.4,0.1,1.3-0.1,1.4C706.6,238.7,706.7,236.8,705.6,236.7z"/>
		<path d="M751.8,369.6c-1.5-4.7-1.9-9.4-3-14.1c-0.7-3.2-1.1-6.5-1.9-9.6c-0.6-2.2,1.9-2.2,2.1-3.5c0.8-4.1,1.6-8.3,2.3-12.5
			c0.2-1.1-0.4-1.6-1.4-1.8c-0.6-0.1-1.2-0.3-1.8-0.3c-3.7,0.1-5.1-1.8-5.8-5.2c-2.7-15-5.5-30-8.2-45.1c-0.5-2.9-0.6-5.9-1.8-8.5
			c-1.6-3.5,0.3-4.3,2.9-4.8c9.8-1.8,19.5-3.6,29.3-5.4c10-1.9,20-3.9,29.9-5.8c11.2-2.1,22.4-4.2,33.6-6.1c3.2-0.6,6.6-1,9.7-1.8
			c2.6-0.7,2.6,1,2.7,1.9c1.9,14.2,5.3,28.1,7.7,42.2c2.3,13.6,5.5,27,8,40.6c1.3,6.9,2.3,13.9,3.9,20.7c0.4,1.7-0.4,2.6-2.4,2.9
			c-8.6,1.4-17.2,3-25.8,4.6c-10.4,1.9-20.7,3.8-31.1,5.8c-8.2,1.6-16.4,3.2-24.6,4.8c-7.2,1.4-14.5,2.8-21.8,4.2
			C752,373.2,751.8,371.4,751.8,369.6z"/>
		<path d="M640.1,490.3c-4.5-0.4-7.7-3.4-11-5.8c-15.2-10.7-24-25.8-27.4-43.5c-3.3-17.3-0.6-34.2,8.5-49.8c0.8-1.3,1.5-1.3,2.6-1.3
			c7-0.2,10.7-4.9,9.2-11.7c-0.3-1.2-0.4-2.1,0.6-3c11.2-9,23.4-15.8,37.9-17.6c1.9-0.2,3.9-0.5,5.8-0.6c1.6-0.1,3.1-0.1,2.6,2.2
			c-0.1,0.7,0,1.5,1.1,1.5c1.1,0,1.3-0.7,1.1-1.4c-0.4-2.2,0.8-2.4,2.6-2.3c15,0.1,28.2,5.3,40.2,13.9
			c14.8,10.6,23.1,25.4,26.7,42.7c2.9,14.3,1.5,28.5-4.3,42c-3.4,7.8-7.8,15.2-13.8,21.2c-9,9.1-19.9,15.2-32.3,18.9
			c-8.7,2.6-17.6,2.6-26.4,2.1c-6.8-0.4-13.5-2.1-19.7-5.2c3.3-1.3,6.8-2,9.6-4.6c1.2-1.2,3.1-0.6,4.7-0.3c21.7,5.1,40.1-2,56-16.1
			c10.3-9.2,15.4-21.9,18.1-35.5c2.3-11.5-0.4-22.3-4.7-32.9c-1-2.4-2.1-4.6,0.5-7.7c-3.4,2.3-4.2,0.1-5.1-1.4
			c-4.5-7.4-10.2-13.5-17.7-18c-11-6.6-22.8-11.6-35.7-10.6c-22.8,1.9-41.5,11.3-52.5,32.6c-5,9.6-8.6,19.6-7.9,30.5
			c1.4,19.4,8.7,36,24.7,48c2.7,2,5.3,3.8,4.6,7.8C638.3,486.5,640.8,488,640.1,490.3z"/>
		<path class="st35" d="M640.1,490.3c-1.5-2-3-4.2-2.6-6.8c0.4-2.5-0.5-3.7-2.5-5c-14.1-9.2-21.3-23-25.2-38.8
			c-4.7-19,1.3-35.8,12.2-51c10.2-14.1,25-20.8,41.8-23.5c17.6-2.8,32.6,3.6,46.7,13.3c6.7,4.6,11,11.1,15.1,17.9c0,0,0.2,0,0.4-0.1
			c1.3-0.4,1.3-3.5,3.1-2c1.8,1.5-0.7,2.6-1.5,3.5c-1.2,1.3-0.4,2.2,0,3.2c4.2,8.8,6.8,18,6.4,27.7c-0.6,13.9-5.4,26.5-13.8,37.6
			c-10.5,13.9-25.1,20.5-41.9,23.5c-7.2,1.3-14.1,0.6-21-1.3c-1.3-0.4-2.7-0.8-3.7,0.5c-2.5,3.3-5.9,4-9.7,3.7
			C642.8,491.9,641.5,491.1,640.1,490.3z"/>
		<path class="st35" d="M701.2,199.9c0,7.6,0,14.3,0,20.9c0,0.9,0.6,2.1-0.7,2.6c-1,0.4-1.5-0.5-2.2-0.9
			c-8.4-5.2-16.7-10.6-25.3-15.5c-6.5-3.7-12.4-8.3-18.8-12c-6.7-3.9-13.2-7.9-19.8-12c-6.5-4.1-13-8.3-19.5-12.4
			c-4.5-2.8-9-5.5-14.1-8.5c5.4-2.8,10.1-5.7,14.9-8c5.2-2.5,10.1-5.5,15.3-7.9c6.5-3,12.7-6.7,19-10.3c8.1-4.7,16.8-8.1,24.6-13.3
			c0.1-0.1,0.2-0.1,0.3-0.1c6.9-3.8,6.9-3.8,6.1-11.2c4.2-0.2,7.6,4.6,12.3,1.7c3.6-2.3,7.6-4,12.2-6.3c-2.2,10-0.3,19.5-2,28.9
			c-0.1,0.4,0,0.8,0,1.1c0.5,11.2-1.2,22.3-0.8,33.5c0.2,6.9-0.9,13.8-0.8,20.8c0,4.3,0.5,8.1,3.9,11.1c0.7,0.6,2.2,1.5,0.8,2.7
			c-1.4,1.2-1.8-0.6-2.5-1.3C703.3,202.4,702.6,201.5,701.2,199.9z"/>
		<path class="st35" d="M850.9,346.2c-12.9,2.5-25.9,5-38.8,7.6c-1.5,0.3-3.1-0.1-4.7,0.7c-1.2,0.6-2.2,0.8-2.2,2.3
			c0,2.6-1.6,3.1-3.7,2.4c-2.1-0.7-4.4-0.7-6.6-1.9c-1.5-0.8-4,0.2-6,0.6c-9.5,1.9-19,3.8-28.4,5.7c-1.7,0.4-3-0.8-4.1-1.5
			c-1-0.7,0.5-1.6,0.9-2.4c1.1-2.5-0.2-4.9-0.6-7.2c-2.3-13-4.8-25.9-7.4-38.9c-2.5-12.7-5-25.4-7.5-38.1c-0.6-2.9-0.2-4.6,3.7-4.7
			c3.9-0.1,7.8-1.4,11.8-2.1c1.4-0.2,1.2-1,0.7-1.8c-0.5-0.7-1.1-1.4-1.7-2c-0.7-0.8-1.6-1.5-0.4-2.5c1.3-1,1.8,0.5,2.1,1.1
			c2.3,3.7,5,4,9.4,3.1c15.3-3.3,30.8-5.6,46.1-8.5c3.1-0.6,7.6-0.2,7.3-5.6c0-0.9,1-1.2,1.7-0.7c2.2,1.3,6-1,6.9,3.1
			c0,0.1,0.5,0.2,0.6,0.1c5.3-2.6,4.3,2.4,4.7,4.4c2.5,14.3,5.4,28.5,8.2,42.8c2.5,12.5,4.6,25,6.9,37.5
			C850.1,341.8,850.5,344,850.9,346.2z"/>
		<path class="st35" d="M651,475.5c-0.3,0-0.6,0-0.9,0c-1.7-1.5-3.9-1.6-5.8-2.5c-7.5-3.8-13.4-9-17.4-16.4c-4-7.3-7.1-14.9-8.9-23
			c-2-9.4,1.4-17.7,4.4-26.2c0.1-0.2,0.2-0.5,0.3-0.7c6.5-17.3,20.1-26,37-30.9c1.7-0.5,3.4-1,5.1-1.3c2-0.4,3.1-1.3,3.2-3.5
			c0-1.3,0.1-3,1.9-3.1c1.9-0.1,2.1,1.5,2.2,2.9c0.2,2.4,1.6,3,3.7,3.4c8.2,1.4,15.8,4.4,23.2,8.4c6.6,3.6,12.1,8.3,15.9,14.9
			c4.4,7.8,7.8,15.9,9.6,24.7c1.8,9.2-1.6,17.5-4.7,25.8c-1,2.6-2.5,4.9-3.6,7.4c-5.6,11.7-16.1,17.3-27.4,22
			c-3.6,1.5-7.4,2.4-11.1,3.2C668.1,482.6,659.4,480,651,475.5z"/>
		<path d="M651,475.5c5.2,1.5,10.3,3.1,15.6,4.4c6.4,1.6,12.5-0.6,18.4-2.4c8.4-2.6,16.1-6.7,22.8-12.3c2.9-2.4,4.9-6,6.9-9.3
			c5.1-8.6,8.6-17.9,9.5-27.8c0.5-5.2-1.7-10.6-3.4-15.8c-2.7-8-6.4-15.6-12.1-21.7c-5.8-6.1-13.6-9.6-21.5-12.5
			c-4.3-1.5-8.7-3.1-13.3-3.2c-2.8-0.1-2.8-2-2.7-4.2c0-0.9,0.8-2.6-1.1-2.5c-1.8,0-1.1,1.7-1,2.6c0.1,2.5,0.1,3.8-3.3,4.4
			c-11.4,2.1-21.8,6.9-30.8,14.2c-2.9,2.4-5.1,5.9-7,9.3c-5.1,8.7-8.7,18.1-9.6,28.2c-0.5,5.2,1.7,10.6,3.5,15.8
			c2.8,8,6.6,15.4,12.1,21.7c3.5,3.9,8.4,6.5,13.2,8.8c1.2,0.6,2.6,0.8,3.1,2.2c-3.7-1.3-7.2-0.9-10,2c-1,1-1.5,0.7-2.7,0
			c-14.7-8.8-21.5-22.9-25.4-38.7c-4.6-18.6,1.8-34.7,12.4-49.4c8.6-12,21.6-17.6,35.5-21c18.6-4.6,34.5,2.2,49.5,12.2
			c5.4,3.6,9,8.9,12.5,14.2c1,1.6,3.1,3.5,0.7,5.8c-0.6,0.6,0.5,1.4,0.7,1.3c3.3-1,3.4,2.1,4,3.6c5.5,13.9,6,27.9,0.7,42.2
			c-8,21.6-23.6,33.8-45.5,39.1c-8.7,2.1-17.1,1.6-25.6-0.7c-1-0.3-1.6-0.4-1.5-1.6C655.8,480.6,653.6,478,651,475.5z"/>
		<path d="M698.8,220.3c-4.9-3.1-9.3-5.9-13.8-8.7c-3.7-2.3-7.3-4.7-11.2-6.7c-2.5-1.3-2.8-3-2.7-5.4c0-1,1.1-2.9-1-2.9
			c-2.1,0-0.8,1.9-1.1,2.9c-0.2,0.6,0,1.2,0,2.2c-21-13.1-41.8-26-62.9-39.1c6.8-4.8,14.3-8.1,21.4-12c6-3.3,12-6.6,18.1-9.8
			c7.3-3.9,14.6-7.6,21.9-11.4c4-2,7.5-4.7,11.7-6.4c3.8-1.6,3.7-1.8,4.3,3c3.6-3,8.1-5.3,10.1-8.9c2.2-4,6.3-4,9-6.9
			c-0.7,14-1,27.6-1.6,41.2c-0.4,7.4,0.2,14.9-0.6,22.3c-0.7,6.6-0.1,13.2-0.8,19.7C698.6,202.1,699.4,210.9,698.8,220.3z"/>
		<path d="M831.5,256.5c1.8,9.4,3.6,18.6,5.4,27.9c2,10.1,4.1,20.2,5.8,30.3c1.6,9.3,3.3,18.6,5.4,27.8c0.4,1.8-1.2,2.2-2.1,2.4
			c-9.6,1.9-19.3,3.6-29,5.4c-2.4,0.4-4.7,1-7.1,1.5c-3.4,0.7-6.2-1.4-9.5-1.7c-1.9-0.2-3.5-0.7-3.4,2.1c0.1,1.9-1.6,2.3-2.7,2.5
			c-8.4,1.7-16.9,3.1-25.4,4.7c-2,0.4-4,1-6,1.4c-0.8,0.2-1.9,0.5-2.4-0.3c-0.6-0.8,0.3-1.6,0.8-2.3c0.4-0.5,0.8-1,1.2-1.4
			c0.4-0.5,1-0.9,0.4-1.5c-0.4-0.5-1.1-0.9-1.6-0.3c-2,2.3-2.2,0-2.4-1.1c-1.8-9.3-3.7-18.5-5.3-27.8c-1.8-10.4-4-20.7-5.9-31
			c-1.2-6.7-2.3-13.4-3.8-20c-0.3-1.2,0.1-1.6,1.4-1.9c18.1-3.4,36.1-7.1,54.2-10.4c5.5-1,11-2.1,16.5-3c3-0.5,5.8,1,8.8,1.4
			c1.7,0.2,3.4,0.7,3.3-1.9C828.2,256.8,830.4,257.6,831.5,256.5z"/>
		<path class="st35" d="M692.5,190.1c-1.8,4.9-0.6,10.2-1.2,15.6c-23.1-14.4-45.8-28.5-69-42.9c24-12.8,47.9-25.5,72.8-38.8
			c-2.5,9.2-0.2,17.8-2,26.1c-0.1,0.5,0,1,0,1.5c0.3,10.3-0.3,20.6-0.8,30.9c-0.1,2.3,0.6,4,2.1,5.7c0.7,0.8,2.5,1.6,1.3,3
			C694,193.1,693.8,189.8,692.5,190.1z"/>
		<path class="st35" d="M838.8,338c-10.3,1.9-20.6,3.9-30.8,5.8c-9.1,1.7-18.1,3.3-27.2,5c-4,0.8-8.2,1.3-12.1,2.4
			c-1.9,0.5-1.9-0.1-2.2-1.6c-3.2-16.8-6-33.6-9.6-50.3c-1.2-5.5-1.8-11.2-3.1-16.8c-0.5-2.1,0.6-3.1,2.7-3.4c2.9-0.5,5.7-1,8.6-1.5
			c0.8-0.1,1.3-0.1,1.5-1.2c0.3-1.6,1.2-1.8,2.2-0.4c0.5,0.7,1.2,0.9,2,0.7c10.8-2.2,21.5-4.5,32.3-6.5c6.8-1.2,13.6-2.3,20.3-3.9
			c1.5-0.4,2.2,0.5,2.5,2c3.2,16.9,6.5,33.8,9.7,50.7C836.6,325.3,837.6,331.6,838.8,338z"/>
	</g>
</g>
</svg>
