<?xml version="1.0" encoding="utf-8"?>
<!-- Generator: Adobe Illustrator 21.0.0, SVG Export Plug-In . SVG Version: 6.00 Build 0)  -->
<svg version="1.1" id="Layer_1" xmlns="http://www.w3.org/2000/svg" xmlns:xlink="http://www.w3.org/1999/xlink" x="0px" y="0px"
	 viewBox="0 0 919.5 552.8" style="enable-background:new 0 0 919.5 552.8;" xml:space="preserve">
<style type="text/css">
	.st0{display:none;fill:#FDFDFD;}
	.st1{fill:#49341B;}
	.st2{fill:#89C5D0;}
	.st3{fill:#283059;}
	.st4{fill:#F57280;}
	.st5{fill:#A45F9B;}
	.st6{fill:#6368A0;}
	.st7{fill:#6BA0A8;}
	.st8{fill:#505689;}
	.st9{fill:#8AC5D0;}
	.st10{fill:#884A82;}
	.st11{fill:#6BA1A8;}
	.st12{fill:#884B82;}
	.st13{fill:#515789;}
	.st14{fill:#6BA1A9;}
	.st15{fill:#CBF1FE;}
	.st16{fill:#6368A1;}
	.st17{fill:#6468A1;}
	.st18{fill:#51578A;}
	.st19{fill:#A5619C;}
	.st20{fill:#98BEC7;}
	.st21{fill:#A55F9C;}
	.st22{fill:#9AC0C8;}
	.st23{fill:#C38BBB;}
	.st24{fill:#A5609C;}
	.st25{fill:#894B83;}
	.st26{fill:#C48DBC;}
	.st27{fill:#53598B;}
	.st28{fill:#989BC9;}
	.st29{fill:#9497C5;}
	.st30{fill:#C38CBB;}
	.st31{fill:#F9BCEC;}
	.st32{fill:#CFCFFC;}
	.st33{fill:#C6C6F8;}
	.st34{fill:#6EA3AB;}
	.st35{fill:#9598C6;}
	.st36{fill:#C7C8F8;}
	.st37{fill:#70A4AC;}
	.st38{fill:#F7BCEB;}
	.st39{fill:#92588D;}
	.st40{fill:#595F90;}
	.st41{fill:#72A6AE;}
	.st42{fill:#545A8D;}
	.st43{fill:#B8B9DF;}
	.st44{fill:#A0A3C3;}
	.st45{fill:#BBBCD2;}
	.st46{fill:#FEFD86;}
	.st47{fill:#E04DF6;}
	.st48{fill:#F37381;}
	.st49{fill:#FEFEFE;}
	.st50{fill:#F47280;}
	.st51{fill:#FDFEFE;}
	.st52{fill:#CAF0FD;}
	.st53{fill:#FBFCFD;}
	.st54{fill:#C8EFFC;}
	.st55{fill:#99C0CA;}
	.st56{fill:#F8F9FA;}
	.st57{fill:#FCFCFC;}
	.st58{fill:#FBFBFC;}
	.st59{fill:#F9FAFA;}
	.st60{fill:#FAFBFB;}
	.st61{fill:#FAFAFB;}
	.st62{fill:#93528C;}
	.st63{fill:#8C4D85;}
	.st64{fill:#F6BAEA;}
	.st65{fill:#F47180;}
	.st66{fill:#FDFDFD;}
	.st67{fill:#F37180;}
	.st68{fill:#9396C5;}
	.st69{fill:#C7C8FA;}
	.st70{fill:#FDFBFC;}
	.st71{fill:#8A4B84;}
	.st72{fill:#F5F5F8;}
	.st73{fill:#FEFAFA;}
	.st74{fill:#FEFCFC;}
	.st75{fill:#99C0C9;}
	.st76{fill:#97BEC7;}
	.st77{fill:#FCFDFD;}
	.st78{fill:#C6EDF9;}
	.st79{fill:#BEBFF1;}
	.st80{fill:#C5ECF9;}
	.st81{fill:#96BDC6;}
	.st82{fill:#CF2B46;}
	.st83{fill:#56DDBF;}
	.st84{fill:#DDB256;}
	.st85{fill:#3474F4;}
	.st86{fill:#E04FF2;}
	.st87{fill:#5F5F32;}
	.st88{fill:#FEFC87;}
	.st89{fill:#FBEF89;}
	.st90{fill:#FBFA88;}
	.st91{fill:#57DBBD;}
</style>
<g>
	<g>
		<path class="st0" d="M459.7,0.1c152.1,0,304.2,0,456.2-0.1c3.1,0,3.6,0.7,3.6,3.7c-0.1,181.8-0.1,363.6,0,545.4
			c0,3-0.5,3.7-3.6,3.7c-304-0.1-608.1-0.1-912.1,0c-3.3,0-3.8-0.8-3.8-3.9C0.1,367.1,0.1,185.3,0,3.5C0,0.8,0.5,0,3.4,0
			C155.5,0.1,307.6,0.1,459.7,0.1z"/>
		<path class="st1" d="M372.3,205.5c0-23.7,0.1-47.5,0.1-71.2c0-8,0.1-16-0.1-24c0-2.5,0.7-3.2,3.1-3c2.2,0.2,4.5,0,6.7,0
			c51.4,0,102.9,0,154.3-0.1c3.1,0,3.8,0.8,3.8,3.9c-0.1,53.5-0.1,106.9,0,160.4c0,3.1-0.7,3.9-3.8,3.8
			c-35.7-0.1-71.4-0.1-107.1-0.1c-0.7-0.6-1-1.5-1-2.3c0.2-4.1,0.9-8.1-0.8-12.1c-0.2-0.4,0.3-0.9,0.8-1.1c1.4-0.6,2.9-0.6,4.4-0.6
			c9.8,0,19.7-0.1,29.5,0c18-0.2,35.9,0,53.8-0.1c1.2,0,2.5-0.1,3.7,0c3,0.2,4.2-1.1,4.2-4.1c-0.1-10.1,0-20.2,0-30.3
			c0-1.6,0-3.2,0.1-4.9c-0.2-22.6,0-45.2-0.1-67.8c0-7.7,0-15.5,0-23.2c0-5-0.2-5.2-5.3-5.2c-41.5,0-83.1,0-124.6,0
			c-5.3,0-5.4,0.2-5.4,5.5c0,38.2,0,76.4,0,114.6c0,2.2,0.3,4.5-0.7,6.6c-4.2,3.5-9.4,3.4-14.4,3.7c-2,0.1-2.2-2.1-2.2-3.7
			c-0.1-4.7-0.1-9.4,0-14.1c0-4.5-0.2-9,0-13.5c0-4.2-0.1-8.4,0-12.6C371.3,208.5,371.3,206.8,372.3,205.5z"/>
		<path class="st2" d="M691.5,359.4c-3.1-5.7-6.6-11.2-9.2-17.1c-3.1-6.9-2.8-13.9,1.8-20.2c2-2.7,4.1-5.4,6.4-7.8
			c10.2-10.6,11.8-24.2,13.2-37.8c0.6-5.4,0.6-10.9,0.7-16.4c0-1.6,0.7-2.6,1.9-3.4c3.4-2.6,6.8-5.1,10.1-7.6
			c1.4,1.4,1.1,3.3,0.9,4.9c-0.8,5-0.6,10-0.3,14.9c0.1,1.6,0.1,3.2-0.5,4.8c-1.2,3.2-1.3,6.6-1.2,10c0.2,5.6,3.2,7.8,8.6,6
			c3.9,1.3,6.8,0,8.9-3.4c0.6-0.9,1.4-1.7,2.7-1.7c3.1,0.2,6.1,0.5,9.1,1.3c3.9,1.1,6.6,3.2,8,6.9c0.4,5,1,5.2,5.4,2.9
			c3-1.6,5.5-4.2,9.2-3.9c0.4,0.3-0.1-0.1,0.3,0.2c2.5,2,4.7,6,8.4,4.1c4.5-2.3,8.9-5.2,9.6-11c1.9-14.4,4.2-28.8,4-43.4
			c0-2.1,0-4.3,1.7-5.9c1.6,0,3.3-0.7,4.7,0.6c0.6,1.9-0.2,3.4-1.2,4.8c-2.8,4.1-1.4,8,0.7,11.8c0.7,1.2,1.6,1.3,2.8,0.9
			c1.2-0.4,2.3-1,3.6-0.4c2.5,3.6,2.3,7.7,2.1,11.8c-0.4,7.7-1,15.4-1.2,23.1c-0.1,2.5-0.9,4.1-3,5.5c-6.2,4.3-12.3,8.8-18.6,13.1
			c-2.1,1.4-2.5,2.7-0.9,4.7c0.9,1,1.5,2.3,2.2,3.5c1.5,2.3,3.4,4.4,1.5,7.7c-0.7,1.3,0.1,3.4,0.2,5.1c0.1,1.9,1.1,3.9-0.5,5.6
			c-6.8-5-15-4.6-22.6-6.2c-1.5-0.3-3-0.4-4.1-1.5c-1-0.8-0.2-3.2-2.2-3c-2.5,0.3-5.2,0.2-7.2,2.2c-0.7,0.7-1,1.7-1.6,2.5
			c-0.9,1.5-0.8,3.1-1,4.7c-0.2,1.4-0.5,2.9-2.2,3.1c-1.6,0.2-2-1.2-2.6-2.3c-2.8-5.8-0.3-12,6-13.7c10.1-2.6,20.3-5.8,30.7-0.7
			c0.3,0.2,0.7,0.2,1.1,0c-1.7-2.6-8.3-5.8-12.4-5.8c-4.7,0-9.4,1.1-14.2,0.8c-0.5-0.1-0.9-0.3-1.2-0.8c-2.7-3.6-2.7-3.6-6.7-1.1
			c-2,1.2-5.2,1.8-3.6,5.5c-0.1,0.4-0.3,0.7-0.6,0.9c-1.5,0.6-2.7,0.2-3.6-1c-1.7-2.2-2.9-1.2-3.9,0.6c-1.2,2.1-1.7,4.4-2.3,6.7
			c-0.5,1.8,0.5,3,2.1,3.4c4.7,1.4,5.8,5.9,7.9,9.4c1,1.6-0.4,2.8-1.4,3.8c-5.1,5.1-10.8,8.8-18.1,10.3
			C710.3,353.7,701,356.9,691.5,359.4z"/>
		<path class="st3" d="M120.3,258.8c2.8-5.8,5.5-11.4,8.2-17c0.6-1.3,0.4-2.7,0.4-4c0-14.1,0.1-28.2-0.1-42.3c0-2.8,0.7-3.5,3.5-3.4
			c27.2,0.1,54.4,0.1,81.6,0c2.8,0,3.5,0.6,3.5,3.4c-0.1,17.7-0.1,35.4,0,53.2c0,2.7-0.6,3.5-3.4,3.5c-24.4-0.1-48.9,0.1-73.3-0.2
			c-4.8,0-8.5,2.4-12.6,3.9C125.5,256.8,123.3,258.5,120.3,258.8z"/>
		<path class="st4" d="M720.8,245.5c0-16,0.2-31.9,0-47.9c0-3.2,0.7-4.2,4.1-4.1c20.2,0.2,40.4,0.1,60.6,0c3,0,3.7,0.8,3.7,3.7
			c-0.1,13,0,25.9,0,38.9c1.4,5.4,0.5,10.8,0.5,16.2c0,2.1-0.2,4.2-0.3,6.3c0,3.7-0.5,4.1-4.3,4.3c-1.1,0.1-2.2,0.1-3.3-0.1
			c-4.3,0.1-8.7,0.1-13,0c-7.5,0.1-14.9,0.2-22.4,0c-5.3,0.1-10.6,0.1-15.9,0c-2.3-0.1-4.7,0.2-7.1,0c-1.7-0.2-3.4-0.8-3.5-2.7
			C719.7,255.2,718.7,250.3,720.8,245.5z"/>
		<path class="st5" d="M203.8,327.6c1.2-4.8,2.6-9.6,3.7-14.5c2.1-8.6,6.6-10.5,14.5-11.5c4.8-0.6,9.7,0,14.6-0.2
			c2.1-0.1,2.8,0.9,3.2,2.7c2.7,10.1,5.3,20.2,8.3,30.3c1.3,4.3-0.5,8.1-1.1,12.1c-2.7,19.3-10.8,37-16.8,55.3
			c-0.6,1.8-1.2,2.5-3.2,1.7c-2.4-0.9-5-1.6-7.4-2.4c-0.9-1.3-0.5-2.7-0.1-3.9c1.2-4.3,2.2-8.6,3.4-12.9c1.1-3.8,1.8-7.8,3.2-11.5
			c-1.1,3.3-2,6.6-2.7,10c-1.3,3.9-2.2,7.8-3.1,11.8c-0.6,2.7-2.1,4.5-4.9,4.8c-5.1,0.6-10.2,2.8-15.1-0.5c-1-0.4-1.5-1.4-2.1-2.3
			c-0.7-1.1-1.8-1.2-2.9-1.3c-0.6-0.2-1.3-0.4-1.8-0.9c0-1.1-1.6-2.7,0.1-3.2c2.5-0.8,4.7-3.5,7.8-1.8c1.2,0.7,2.2,1.5,3.4,2.3
			c1.8-0.9,0.8-3.1,2-4.2c1.4,0.7,1,3.9,3.6,3c2.1-0.7,2.8-2.6,3.1-4.7c1.1-8.3,1-16.7,2-25c0.2-1.7-0.4-2.6-2.3-2.5
			c-3.9,0.4-7.3-1.3-10.9-2.3c-1.8-0.5-3.2-1.5-3.8-3.4c-1.9-6.2-5.7-11.3-9.5-16.5c-0.2-0.3-0.4-0.6-0.6-0.9
			c-0.4-1.6-2.9-2.5-1.7-4.7c1.7-0.6,3.9,1.9,5.1-0.9c3.2,1.8,6,4,8.2,7.3C202.1,333.9,201.4,330.1,203.8,327.6z"/>
		<path class="st6" d="M88.6,377.2c-0.9-3.6,2.3-5.9,2.8-9c2.2-0.1,3.2-0.9,3.7-3.4c2.2-11,2.4-22.2,3.6-33.3
			c0.1-0.7,0.1-1.5-0.3-2.1c-0.5-0.3-1-0.6-1.6-0.2c-4.3,1.4-8,4.3-12.7,4.7c-1.9-5-3.6-10-1.6-15.4c0.5-0.9,1.4-1.2,2.1-1.9
			c0.8-1.9,3-4-0.5-5.5c-0.4-0.1-0.7-0.2-1-0.3c-2-0.4-2.6-1.8-2.3-3.6c1.9-10.1,1.9-20.7,6.4-30.3c1.6-3.3,2.2-6.2-1.7-8.3
			c1.6,0,3.3-0.2,4.8,0c8,1,15.9,0.6,23.7-1.8c2.3-0.7,3.2-0.1,4.1,2.1c3.5,8.3,6.8,16.6,8.5,25.5c0.5,2.6,1.8,3.8,4.1,4.6
			c4.9,1.7,9.8,3.6,14.7,5.5c1.9,3.7,4.8,6,9,6.4c1,0.7,0.9,1.3-0.2,1.8c-1.9,0.9-3.9,1.9-5.9,2.8c-5.3-3.1-10.9-5.2-17.2-3.5
			c-1.5,0.4-2.8,0.9-3.8,2.1c-1.3,1-0.7,2.3-0.6,3.5c1.4,15.2,1.6,30.4,0.6,45.6c-0.3,3.8,1.2,6.8,3.1,9.7c1.3,2.1,1.2,3.3-1.4,3.9
			c-1.3,0.3-2.6,0.8-3.9,1.2c-0.7-0.4-0.3-2.2-1.9-1.5c-4.2-1.8-5.8-1.4-8.7,2.4c-0.8-2.6-0.9-5.2,0-7.9c3.7-1.4,3-4.5,2.7-7.2
			c-1-7.6-2.1-15.2-3.2-22.8c-0.3-2.3-0.5-4.7-1.2-7c-0.3-1.2-0.2-2.9-2.1-2.9c-0.8,0.5-1.4,1.2-1.9,2c-1.6,10.7-3.2,21.5-4.9,32.2
			c-0.4,2.8-0.6,5.5,0,8.2c0.9,3.8-0.4,5.4-4.2,5.1c-0.4-3.2-2.8-2.2-4.6-2.4c-0.6,0.1,0.1,0.6,0.1,0.1c0-0.1,0.1-0.1,0.3-0.1
			c0.6,0.1,1.3-0.1,1.4,0.8c-0.9,1.4-2.2,1.1-3.5,1C91.9,377.1,90.1,378.2,88.6,377.2z"/>
		<path class="st5" d="M401.8,374.7c2.9-4.2,4.1-9.1,5-13.9c1.3-7.4,6.9-10.2,12.5-12.4c4-1.6,8.6,0.7,12.9,0.4
			c4.8-0.3,7.2,1.8,8.4,6.5c2.3,8.7,6.7,16.9,6.9,26.2c1.7,2,1.1,4.5,1.1,6.8c-0.2,5-0.9,10.1-0.8,15.1c0,1.4-0.3,2.7-1,3.9
			c-1.1,1.6-2.6,1.1-4,0.7c-2.4-0.7-4.7-1.5-7-2.3c-2-0.7-3.2-0.4-2.6,2.1c0.4,1.7,0.5,3.4,0,5.1c-2.5,3-5.1,5.8-9,7
			c-3.1-6.2-4-13.2-7.8-19.2c0.7,1.3,0.6,2.6,0.3,4c-0.6,5.2-0.1,10.4-0.2,15.6c-0.1,2.8,2.1,2.9,3.9,3.6c0.9,0.6,1,1.4,0.9,2.4
			c-0.1,0.5-0.3,0.9-0.5,1.3c-2.4,2.7-5.5,2.6-8.6,2.1c-2.2-0.4-2.9-2.2-3.1-4.1c-0.8-6.9-1.6-13.9-1.4-20.8
			c0.1-3.9-0.7-6.8-4.5-8.5c-1.8-0.8-2.9-2.3-3-4.4c-0.3-5.2,0.8-10.4,1-15.6C400.9,375.6,401.3,375.1,401.8,374.7z"/>
		<path class="st6" d="M583.2,395.3c-1.2,1-1.7,2.2-1.8,3.8c-0.3,10-1,20.1-1.2,30.1c-0.1,3.3-0.9,4.8-4.3,4.3
			c-1.3-0.2-2.7-0.1-4.1-0.2c-0.9-0.8-1-1.9-1.1-3c-0.7-9.5-3-18.9-3.4-28.4c0,4.2,1,8.4-0.5,12.5c-1.5,0.9-1.6-0.3-1.8-1.2
			c-0.3-1.3,0.2-2.6,0.1-3.8c0,4.9-0.8,9.7-2.4,14.4c-0.9,2.5-1.2,5.2-1.9,7.8c-0.3,1.3-0.6,2.6-1.9,3.3c-3.6,3.2-7.4,1.7-11.2,0.7
			c-1.4-0.7-0.8-1.5-0.1-2.4c3.8-3.3,5.5-7.4,5.1-12.5c-0.3-4,0-7.9,0.5-11.9c0.7-4.9-0.4-6.9-3.5-8.3c-3,0.9-5.9,1.9-8.9,2.8
			c-0.7-0.6-1-1.5-0.9-2.4c1-5.8,0.1-11.7,1.1-17.5c2.1-11.9,4.2-23.7,6.4-35.6c5.2-0.9,10.5-1.8,15.7-2.7c2.1-0.4,2.1,1.2,2.6,2.4
			c3.7,9.4,7.3,18.8,11,28.1c0.5,1.1,0.3,2.9,2.2,3.1C580.3,384.4,581.3,390,583.2,395.3z"/>
		<path class="st4" d="M746.4,406.4c16,0.1,28.6,13,28.4,29.4c-0.2,14.4-11.5,27.9-28.7,28c-16.1,0.1-29-13.3-28.9-29.1
			C717.4,419,730.4,406.3,746.4,406.4z"/>
		<path class="st4" d="M119.1,434.9c-0.1-15.7,12.7-28.5,28.8-28.5c15.7,0,28.6,12.7,28.7,28.4c0.1,15.8-13.2,29.3-29,29.1
			C131.8,463.8,119.1,450.9,119.1,434.9z"/>
		<path class="st4" d="M424.2,420c2.4-2.7,5.4-4.9,8.3-7c2.9-3.5,7.1-3.7,11-4.5c0.9-0.2,2,0.3,2.8-0.6c0.9-0.6,1.4-0.1,1.7,0.6
			c4.5,1.2,9.1,2.1,13.5,4c5.3,2.4,9,6.4,11.2,11.1c5.5,11.4,4.6,22.6-3.7,32.7c-7.2,8.8-20.1,12.4-30.7,8.7
			c-11.7-4.1-19.3-14.1-19.6-26c0-1.1,0-2.2-0.1-3.4c-0.7-1.1-0.8-2.3-0.5-3.6c0.3-2,1.4-3.7,2.3-5.5l0,0c0.7-1.5,0.9-3.2,1.6-4.8
			C422.5,420.9,422.8,419.9,424.2,420z"/>
		<path class="st7" d="M691.5,359.4c3-2.7,7-2.7,10.6-3.8c8.2-2.5,16.5-4.6,24.7-6.9c5.2-1.5,7.7-6.6,11.9-9.3
			c0.2-0.1,0.5-0.8,0.3-0.9c-2.5-2.7-2.7-7.1-6.5-8.9c-4.9-2.3-5-2.3-3.5-7.4c0.6-1.9,1.2-3.8,2.2-5.5c1.5-2.7,3.2-2.8,4.8-0.1
			c0.9,1.5,2,1.6,3.5,1.5c3.1-1.2,7-0.3,9.2-3.8c0.5-0.5,1.1-0.9,1.9-0.8c9.6-1.3,19.3-3,27.9,3.5c0.8,0.6,2.2,0.7,1.6,2.4
			c-0.7,1.8-1.9,1.5-3,0.9c-10.3-5.7-20.6-1.9-30.8,0.3c-5.7,1.2-8,8.5-4.7,13.5c0.3,0.5,0.7,1.2,1.4,0.9c0.8-0.3,0.9-1,1.1-1.8
			c0.4-2.1-1.1-4.6,1.5-6.1c0.2,0,0.3,0,0.5,0c2.2-0.1,4.3,0.6,6.5,0.8c1.9,0.2,3-0.4,3.8-2c0.1-0.1,0.3-0.2,0.4-0.3
			c6.5,1.6,13.1,2,19.6,3.5c3.2,0.7,5.4,2.1,7.2,4.6c-3.6,3.6-7.2,7.3-10.8,10.9c-1,1-2.2,1.6-3.5,2.1c-13.7,5-27.1,10.8-40.4,16.6
			c-5.1,2.2-10.2,2.6-15.3,1.8c-7-1.1-13.8-3.1-20.7-4.7C692.5,360.1,692,359.7,691.5,359.4z"/>
		<path class="st7" d="M390.4,314.2c-0.5-8.4-2.3-16.7-3.3-25.1c-0.3-2.6-0.8-5.1-1.2-7.7c-1-1.1-2-2.1-3.6-2.4
			c-5.4-1.1-6.5-0.3-6.4,5.2c0.2,8.6-1.1,17.1-0.9,25.8c0.1,4.7-0.9,5.3-5.3,3.7c-1.1-0.4-2.5-0.6-3.3-1.6c1.7-1.9,2.5-4,2.3-6.7
			c-0.9-10-1.5-20.1-2-30.2c-0.1-2.4-1-3.4-3.1-2.7c-6,2-9.5-1.3-13.3-5.4c-3-3.2-4.5-6.3-3.9-10.6c1.6-10.5-0.2-20.9-1.3-31.2
			c-0.4-3.6,2.9-4.6,4.2-7c2.4,0.6,2.1,2.9,2.4,4.5c2,11.3,4.1,22.6,5.8,34c0.9,6,3.2,7.3,9.1,5.2c2.2-0.8,4.3-2,6.7-2.3
			c0.6,0,1.2,0.2,1.7,0.6c1.2,0.9,1.7,3.1,3.6,2.8c2.7-0.3,5.3-1.2,7.7-2.5c2.2-1.2,1.1-3.6,1.7-5.4c0.9-1.1,2.1-1.1,3.3-0.9
			c3.1,1.4,1.6,3.9,1.6,6.1c-0.4,2.8-2.3,4.3-4.7,5.3c-3.4,1.5-6.9,2.9-10.3,4.5c-1,0.5-2.4,0.8-2,2.2c0.3,1.1,1.6,0.9,2.6,0.9
			c6.3,0.1,12.7-0.1,19,0.1c1.5,0,3.6-0.7,4.3,1.8c0,0.5,0,0.9,0,1.4c0.9,3.2-1.2,3.3-3.4,3.3c-6.2,0-6.2,0-5.1,6
			c1.1,6.6,2,13.3,3.1,20c0.7,4.3-1.4,7.2-4.1,9.9c-0.5,0.5-1.2,1.1-1.9,0.4C389.8,315.7,390.1,314.9,390.4,314.2z"/>
		<path class="st2" d="M374,260.3c-2.8,1-5.5,2.2-8.4,3.1c-5.3,1.8-8,0-8.9-5.4c-2.1-12.7-4.4-25.4-6.7-38.1
			c-0.1-0.6-0.5-1.1-0.8-1.6c3.9-5.7,10.6-7.6,15.9-11.4c2.3-1.7,4.6-2.3,7.2-1.4c0,5.7,0,11.4,0,17.1c-2.1-0.2-3.6-3.1-6.2-0.9
			c-1.8,1.5-2.2,2.6-0.8,4.6c2.4,3.4,5.6,6.1,7,10.1c0,4.9,0.1,9.7,0.1,14.6c0,2,0.4,2.6,2.5,2c4.1-1,8.3-1.7,12.4-2.6
			c2,0.8,3.6,2.1,4,4.4c-1.1,0.3-2.4-0.2-3.3,0.9c-0.3,0.2-0.6,0.3-1,0.2c-4.8-1.6-8.6,0.1-11.8,3.6
			C374.9,259.9,374.4,259.9,374,260.3z"/>
		<path class="st8" d="M547.7,347.9c2.4,0.8,0.9,2.7,0.7,3.7c-2.9,11.1-4.2,22.6-6.3,33.9c-1.1,5.8,0,11.9-1,17.8
			c-1.6,0.6-3.4,1-4.9,1.8c-3.6,1.9-5.4,0.5-6.4-3c-1.8-3.2-2.7-6.5-1.5-10.3c1-3-0.6-6.1-0.2-9.2c0.2-1.5-0.2-3.8,2.7-3.2
			c2,0.4,2.4-1,2.8-2.5c2-7.5,4-14.9,6-22.4C541.2,348.3,541.2,348.3,547.7,347.9z"/>
		<path class="st9" d="M390.4,314.2c0.1,0.6,0.2,1.2,0.3,1.9c5-3.6,5.4-8.5,4.3-13.9c-1.4-6.8-2.2-13.7-3.5-20.5
			c-0.5-2.9,0.5-3.7,3.1-3.3c1.6,0.2,3.2,0.5,4.8,0.7c1.8,0.2,2.5-0.7,2.5-2.3c1.2,8.4,2.5,16.7,3.6,25.1c0.9,6.7,1.6,13.3,2.4,20
			c-3,0.3-5.8-1-8.8-0.5c-0.8,0-1.5,0-2.3,0c-2.5-0.5-4.7,0.6-7,1.2C388.5,319.6,389.7,316.9,390.4,314.2z"/>
		<path class="st10" d="M420.5,426.7c-0.2,1.8-0.5,3.6-1.5,5.2c-1.1,0.3-2.2,0.5-3.3,0.2c-3.3-0.6-6.6-1.3-9,2.2
			c-0.4,0.5-1.4,0.3-2.1,0c-2.2,0.3-2.2-1.2-2.3-2.8c-0.4-10-1-20.1-1.3-30.1c-0.1-2.4-0.8-3.9-2.9-5c-2.6-1.4-5-3.2-7.6-4.7
			c-1.5-0.9-1.9-1.8-1-3.3c1.1-2.2,2.2-4.4,3.8-6.3c1.3-1.6,1.3-3.6,1.4-5.6c0-2.1,0-4.2,1.8-5.8c2.5,0.5,3.7,2.5,5.3,4.1
			c-0.3,4.7-0.4,9.5-0.9,14.1c-0.4,3.7,0.6,6.3,4.2,7.6c2.9,1,3.5,3,3.4,5.8c-0.2,7.6,0.7,15.1,1.2,22.7c0.3,3.9,2.1,4.2,5,4
			C417,428.9,418.9,428.4,420.5,426.7z"/>
		<path class="st9" d="M366.3,312c1.1,0.1,2.3-0.1,3.3,0.3c4.3,1.4,4.2,1.4,4.3-3.2c0.2-9.6,0.5-19.1,0.7-28.7c0-2,0.6-3,2.8-2.8
			c2.5,0.2,4.9,0.2,7.4,0.6c2.1,0.3,0.8,2.1,1.1,3.2c-1.9,5-1.5,10.2-2.2,15.3c-1.1,8.6-2,17.2-3,25.9c-1.8-2.5-4.4-1-6.6-1.3
			c-2.1,0-4.1,0.1-6.2-0.3c-2.4-1.1-5.3,0.4-7.5-1.5C360.8,315.7,364.2,314.3,366.3,312z"/>
		<path class="st11" d="M720.8,245.5c0,4.6,0.2,9.2,0.1,13.8c0,1.9,0.6,2.7,2.6,2.6c2.3-0.1,4.7,0,7,0.1c0.5,1.7-0.7,2.9-1.6,4
			c-2,2.2-2.6,4.7-2.4,7.6c0.3,4.7-1,9.4-0.8,14.1c0,1-0.2,2-1,2.7c-3.3,2.6-6.2,1.8-8.9-1c-0.9-0.9-1.6-1.8-1.6-3.2
			c0.1-4.5-0.6-9,1.5-13.2c1-2,0-3.9,0-5.9c-0.2-6,0.7-11.9,0.8-17.9C717.8,247.8,719.3,246.6,720.8,245.5z"/>
		<path class="st8" d="M83.2,318.1c-1.9,5.4,1,10.5,0.8,15.8c-1.1,0.8-2.4,0.6-3.7,0.7c-1.7,0.2-2-1.1-2.4-2.3
			c-0.3-0.8-0.3-1.7-0.4-2.5c-0.9-5.3,0.3-11-2.5-16.1c-0.8-1.5-0.4-3.4,0.6-5c0.9-7.3,1.8-14.6,2.6-21.9c0.7-6,3.5-11.4,5.3-17
			c0.3-1,0.9-1.5,2-1.1c5.1,1.5,5.5,1.7,3.2,6.8c-4.6,9.9-4.7,20.6-6.9,31c-0.4,1.9-0.4,3.6,2.2,3.8c-0.3,0.8-1.1,0.9-1.6,1.4
			C80.2,313.8,80.4,315.3,83.2,318.1z"/>
		<path class="st10" d="M188.8,335.2c4.4,4.7,8.2,9.7,9.9,15.9c0.7,2.6,2.1,4,4.8,4.4c3.7,0.6,7.1,2.9,11.2,1.5
			c1.8-0.6,1.9,1.1,1.8,2.4c-0.7,9.4-1.4,18.8-2.3,28.2c-0.3,2.8-2.9,4.6-5.1,4.7c-1.9,0.1-2.4-2.7-2.4-4.8
			c2.2-8.6,4.4-17.1,6.7-26.1c-3.9,0.4-7.6,0.8-11.2,1.2c-1.5,0.2-2.8,0.5-3.8-1.4c-3.1-6.2-6.3-12.4-9.5-18.6
			c1-1.1,1.4-2.2,0.5-3.7C188.9,337.9,187.9,336.7,188.8,335.2z"/>
		<path class="st7" d="M781.5,261.9c7.5-0.4,7.5-0.4,7.5-7.8c0-6,0.1-12,0.1-18c0.7-0.3,1.3-0.7,2.1-0.4c-1.3,7.4-0.7,14.8-1.3,22.2
			c-0.7,9.6-2.5,19.1-3.6,28.7c-0.6,5-5.3,6.6-8.2,9.6c-2.2,2.2-6.5,1.8-8.5-0.6c-1-1.2-2-2.5-3-3.8c1.7-3.1,4.9-4.1,7.7-5.4
			c4.7-2.1,6.9-5.1,6.3-10.4c-0.4-3.3-0.1-6.7-0.1-10C780.5,264.6,780.4,263.1,781.5,261.9z"/>
		<path class="st1" d="M401.8,275.3c-1-1.4-2.5-0.7-3.8-0.8c-7.1-0.1-14.2,0-21.4,0c-1,0-2.4,0.6-2.6-1.2c-0.2-1.5,0-2.6,1.7-3.3
			c4.2-1.7,8.2-3.6,12.4-5.2c2.2-0.9,3.6-2.1,3.9-4.5c3.7-1.8,7.5-1.5,11.3-0.2c1.2,5,2.5,10.1,0.6,15.3
			C403.1,275.3,402.5,275.3,401.8,275.3z"/>
		<path class="st8" d="M549.9,400.5c2.2-0.5,3.6-0.1,4.2,2.5c0.4,1.9,0.7,3.8,0.4,5.5c-1,5.4-0.5,10.9-0.7,16.3
			c-0.2,4.2-2.9,7-6,9.3c-2.8-2.2-6.1-2.6-9.6-2.3c-0.4-8-0.4-8.1,7.5-8.1c2.2,0,3-0.5,3.1-2.8C548.9,414.1,549.5,407.3,549.9,400.5
			z"/>
		<path class="st6" d="M75.6,308.7c0.4,3.3-0.4,6.9,2.9,9.5c0.8,0.6,0.1,2.4-0.1,3.6c-0.7,4.5-0.5,8.8,2,12.8
			c-0.9,0.7-2.1,0.6-3.1,0.6c-1.2-1.5-2.8-1.9-4.6-2.2c-2.4-0.4-4-1.8-4.7-4.2c-1-3.4-3-6.7-1.7-10.4c0.4-0.7,1.2-0.8,1.8-1.2
			c1.5-0.8,1.7-2.4,1.8-3.8c0.2-2-1.9-1.1-2.6-2c-0.7-1-1.1-2.1-1.4-3.2C69.2,306.5,72.3,308.7,75.6,308.7z"/>
		<path class="st9" d="M418.9,281.3c-1.3,1.1-2.7,2-4.5,2.1c-2.1-4.2-4.1-8.4-5.4-13c-0.4-1.5-1-3.1-0.3-4.7c1.7-2,4.8-3.4,2.5-6.9
			c-0.8-1.2-2.3-1.4-3.1-2.4c-0.7-1.4-0.8-2.9-0.7-4.5c0.7-1.5,1.9-1.1,2.8-0.5c2.7,1.9,5.8,3.3,8,5.8c0.9,6.7,1.1,13.5,1.9,20.3
			C420.1,278.8,419.9,280.2,418.9,281.3z"/>
		<path class="st11" d="M407.6,251.9c1.4,1.3,0.6,3.1,0.9,4.6c-0.1,0.1-0.2,0.3-0.3,0.4c-2.5,2.7-2.4,3.8,0.5,6.6
			c0.5,0.5,0.9,1.1,0.6,1.9c0.2,5.1,2.4,9.6,4.4,14.2c0.5,1.2,1.8,2.2,0.8,3.8c-3.7,0.8-6.4-1.3-9.2-3c-2-1.2-1-3.4-1.3-5.1
			c-0.2-5-0.5-10-0.8-15C400.8,254.8,402.6,251.5,407.6,251.9z"/>
		<path class="st8" d="M66.8,318c-0.6,4.1,1.3,7.8,2.4,11.5c0.8,2.5,3.1,2.4,5.2,2.8c1.5,0.3,3.8,0.1,2.9,2.9
			c-3.4,1.1-6.9,2.1-10.3,3.3c-1.4,0.5-1.7-0.1-2-1.2c-2.4-9.1-3.8-18.1-1.4-27.5c0.4-1.5,1-1.8,2.3-1.7c2,0.3,1.6,1.8,1.7,3.1
			C67.4,313.5,66.4,315.7,66.8,318z"/>
		<path class="st12" d="M223.4,384c-1.2,5.7-2.5,11.5-3.8,17.2c-0.4,0.1-0.9,0.1-1,0.4c-3.8,5.1-9.2,4.4-14.4,3.7
			c-2.6-0.4-5.4,0.6-7.9-1c0.2-2.9,2.5-2.3,4.3-2.7c-0.5-0.9-1.4-1.9-0.5-3.2c5.2,2.3,10.4,0.8,15.6,0c2.4-0.4,3-1.7,3.5-3.6
			c1.1-4.1,2.3-8.1,3.4-12.1C224,382.4,223.8,383.1,223.4,384z"/>
		<path class="st8" d="M559,434.9c1-3.7,2-7.5,2.9-11.2c2.8-0.5,3.8-2.2,3.6-5c-0.1-1.3-0.2-2.7,0.8-3.8c0.5-4.3-0.4-8.8,0.5-13.1
			c0.4,0,0.9,0,1.3-0.1c1.2,9.6,2.4,19.2,3.6,28.7c-0.3,0.2-0.6,0.6-0.9,0.5c-3.5-0.6-6.4,0.6-8.8,3.2
			C561,434.4,560,434.7,559,434.9z"/>
		<path class="st10" d="M448.1,408.7c-0.4-0.2-0.9-0.4-1.3-0.5c-0.4,0.1-0.7,0-0.9-0.3c1-8.7,1.4-17.5,1.5-26.2
			c1.2-0.5,2.4-1,3.6-1.5c1.4-0.1,1.7,1,1.8,1.9c0.6,6.1,1.6,12.3,0.6,18.5C452.2,403.6,449.9,406,448.1,408.7z"/>
		<path class="st13" d="M110.1,330.9c0.2-0.7-0.1-1.6,0.7-2c0.9-0.4,1.3,0.5,1.7,1.1c2.1,3.4,2.1,7.3,2.6,11.1
			c1.2,8.9,3.2,17.7,3.4,26.8c0.1,3.1-0.9,3.8-3.8,3.2c2-12.1-2.6-23.4-4-35c-0.1-1-0.3-2-0.4-3
			C109.6,332.3,109.5,331.6,110.1,330.9z"/>
		<path class="st14" d="M418.9,281.3c0-8.2-1.8-16.4-1.5-24.7c2-1.6,4.2-2.5,6.9-1.8c0.9,1.1,0.9,2.2,0.6,3.5
			c-0.1,0.6-0.4,1.1-0.8,1.5c-3.2,2.6-3.2,3.4-0.2,6.4c0.2,0.4,0.3,0.7,0.4,1.1c0.4,4.2,1,8.4,1.2,12.7c0,1.2,0.3,2.5-0.4,3.6
			c-1,1.5-1.9,1-2.9,0C421.2,282.7,420.4,281.4,418.9,281.3z"/>
		<path class="st13" d="M98.2,328.5c1.5-2.2,1.6-0.7,1.5,0.6c-0.5,5.2-0.5,10.4-0.9,15.6c-0.6,7-1.9,13.9-2.8,20.9
			c-0.4,3.4-1.6,4.3-4.6,2.6c1.9-11.2,3.9-22.5,5.8-33.7c0.2-1,0.3-2,0.4-2.9C98.2,330.6,97.4,329.4,98.2,328.5z"/>
		<path class="st9" d="M424.1,258.8c0-1.3,0-2.6,0-3.9c0.7-1.4,1.5-0.4,1.9,0.1c1.1,1.6,2.4,3.2,2.1,5.3c3.6,4.7,0.9,9.9,1.4,14.9
			c-0.8,3.2-0.1,7.1-4.4,8.4c-1-5.8-1.6-11.6-1.5-17.4C426.6,263.7,426.6,263.7,424.1,258.8z"/>
		<path class="st15" d="M801.8,253.4c-6.5,2.7-6.4,2.7-9-3.7c-1.3-3.3-0.9-6.3,1.1-9.1c0.9-1.3,2.1-2.5,2-4.3
			C798,242,800.3,247.6,801.8,253.4z"/>
		<path class="st16" d="M581.4,376.4c1.1-1.6,2.2-3.3,3.9-4.4c0.7,0.4,1.1,1,1.3,1.7c1.1,3,0.2,6.5,3.1,8.9c0,0.4,0.1,0.7,0.2,1.1
			c1.5,6.7,1.5,6.7-4.5,10.2C582.7,388.3,581.8,382.4,581.4,376.4z"/>
		<path class="st17" d="M530.7,379.4c-3.2,1.7-1.6,4.6-1.3,6.9c0.2,2.4,0.8,4.7-0.2,6.9c-1.4,3.1,0.1,6,0.6,9
			c-2.4-3.4-4.9-6.6-6.1-10.7c-0.4-1,0-1.9,0.2-2.8c0.8-3.3,0.9-6.5-1.5-9.3c0-0.6,0-1.4,0.8-1.2
			C525.7,378.7,528.3,378.3,530.7,379.4z"/>
		<path class="st18" d="M127.5,314.1c-0.2-1.9,0.4-2.6,2.5-3c5.4-1,10.5-0.8,15.4,1.7c1.3,0.7,2.9,0.9,3,2.8
			c-2.2,1.7-4.6,0.4-6.9,0.2C136.9,315.4,132.2,314.7,127.5,314.1z"/>
		<path class="st8" d="M581.4,376.4c2.2,5.6,3,11.6,3.9,17.5c-0.7,0.5-1.4,1-2.1,1.5c-0.4-0.2-1.2-0.3-1.3-0.6
			c-1.5-4.6-2.7-9.4-3.3-14.2c-0.1-0.5,0.4-1.1,0.7-1.7C580,378,580.7,377.2,581.4,376.4z"/>
		<path class="st19" d="M453.4,400.5c-0.5-6.2-1-12.3-1.5-18.5c-0.1-0.8-0.2-1.5-0.9-1.9c5.3-1.9,6.9-1.5,8.1,1.9
			c0.3,0.8,0.1,1.4-0.5,2c-4.2,2.3-3,6.1-2.8,9.7C455,396,454.2,398.2,453.4,400.5z"/>
		<path class="st20" d="M367.9,320.2c2.3,0,4.6,0,6.9,0c2.9,0.2,3.3,2.4,3.8,4.6c-5.1,1.1-10.2,2.3-15.1-0.9
			C363.2,320.6,365.3,320.1,367.9,320.2z"/>
		<path class="st21" d="M191.9,329.3c0.7-4.6,4.9-6.5,8.7-3.8c0.9,0.6,1.7,1.4,2.5,2.1c-0.4,2.4-1.5,5.1-3.6,5.4
			C196.8,333.2,193.8,331.9,191.9,329.3z"/>
		<path class="st22" d="M396.4,320.2c0.8,0,1.5,0,2.2,0c1.4,0.8,3.1,0.3,4.6,0.7c2,0.6,3.3,1.4,2.9,3.8c-3.8,0.3-7.6,0.6-11.5,0.8
			c-1.1,0-2.5,0.6-3.4-0.8C390.6,320.4,394,320.9,396.4,320.2z"/>
		<path class="st23" d="M404.6,434.3c0.7-0.2,1.9-0.3,2-0.7c1.2-4.6,4.5-3.2,7.4-2.6c1.6,0.3,3.5-0.5,5,0.9c-0.1,1.3-0.2,2.6-0.2,4
			C414,435.3,409.3,434.8,404.6,434.3z"/>
		<path class="st24" d="M396.5,370.6c-0.6,2.5-0.8,5.1-0.8,7.7c-0.1,4.4-3.4,7.1-6.1,10.1c0.1-1.5-0.3-3.2,0.8-4.5
			c0.6-3,2.6-5.9,1-9.1C391.2,371.2,393.6,370.6,396.5,370.6z"/>
		<path class="st25" d="M191.9,329.3c0.4,0.2,0.9,0.5,1.3,0.7c5.9,3,5.9,3,9.9-2.4c0.2,0,0.4,0,0.6,0c-0.7,3.1-1.5,6.3-2.2,9.4
			c-0.2,0.8-0.8,2.3-1.5,1.3c-2.4-3.2-5.9-5.3-8.3-8.5C191.7,329.6,191.8,329.4,191.9,329.3z"/>
		<path class="st26" d="M200,398.3c1.1,2.4,1.7,4.5-2.1,4.6c-0.8,0-1.3,0.7-1.6,1.4c-0.9-3.3-1.9-6.6-2.8-9.9c0.7,0,1.5,0,2.2,0.1
			c0.9,0.6,2,1,3,1.5C199.1,396.7,199.6,397.5,200,398.3z"/>
		<path class="st27" d="M114.6,378.9c0.1-1.8,0.2-3.5,2.4-3.8c2.3-0.3,5-2,6.6,1.3c-0.6,1.3-1.9,1.6-3,1.9c-1.4,0.4-2,1.3-2.2,2.6
			c-1.1,0.5-2.2,0.9-3.6,1.5C114.7,381.1,114.7,380,114.6,378.9z"/>
		<path class="st28" d="M562,434.1c1.8-4.1,3.6-4.7,9.8-3.7c0,1,0,2,0,3C568.6,434.6,565.3,434,562,434.1z"/>
		<path class="st29" d="M538.2,431.9c3.2-2,8-0.8,9.6,2.3c-0.8,0.5,0,0.9,0.1,1.4c-2.4-0.5-4.9-1-7.3-1.6
			C539.4,433.8,537.9,433.8,538.2,431.9z"/>
		<path class="st30" d="M188.8,335.2c0.6,1.4,1,2.8,1.8,4.1c1.3,2.1,0.8,3.2-1.6,3.4c-1.7-2.3-3.1-4.7-3.8-7.5
			C186.5,333.9,187.7,333.4,188.8,335.2L188.8,335.2z"/>
		<path class="st31" d="M455.8,393.7c-1.5-2.1-1.4-4.4-0.9-6.9c0.5-2.2,1.4-3.3,3.7-2.8C457.7,387.2,456.7,390.5,455.8,393.7z"/>
		<path class="st32" d="M522.4,379.4c2.9,1.8,4.1,6.8,2.2,9.8c-0.5,0.8-0.8,1.5-1,2.3C522.5,387.5,523.4,383.3,522.4,379.4z"/>
		<path class="st33" d="M154.4,311c-3.9,1.3-8.6-2.1-9-6.4C148.4,306.7,151.4,308.8,154.4,311z"/>
		<path class="st34" d="M367.9,320.2c-1.9,0.7-3.9,1.4-4.5,3.8c-3.4,0.1-3.1-2.2-2.9-4.5C363,319.8,365.6,318.8,367.9,320.2z"/>
		<path class="st35" d="M118.4,380.9c-0.9-1.3-1.7-2.5,0.8-3c1.5-0.3,3-1,4.5-1.5c1.8-0.7,1.5,0.6,1.5,1.7
			C123.2,379.6,120.7,380,118.4,380.9z"/>
		<path class="st36" d="M589.7,382.6c-1.6,0-2.5-0.8-2.7-2.4c-0.3-2.2-0.7-4.4-1-6.6c-0.4-1.4-0.2-2.2,1.5-1.6
			C588.2,375.5,588.9,379,589.7,382.6z"/>
		<path class="st7" d="M378.6,324.9c-2.6-0.5-1-4.3-3.8-4.6c1.2,0,2.5,0.2,3.7-0.1c2.5-0.7,2.2,1,2.3,2.4
			C381,324.2,380.3,325,378.6,324.9z"/>
		<path class="st37" d="M406.2,324.7c-1-4-5.1-2.9-7.5-4.4c3.1,0,6.3-0.4,9.1,1.5C408.4,323.3,409.3,325,406.2,324.7z"/>
		<path class="st35" d="M92.9,377.1c1.3,0,2.7,0.4,3.9-0.6c0.8-0.6,1.6-0.8,2.2,0c0.7,0.9,0.1,1.6-0.7,2c-2.2,0.8-4.5,1-6.8,0.9
			C90.7,378,90.5,376.8,92.9,377.1z"/>
		<path class="st38" d="M391.4,374.8c1.1,0.5,2.5,0.9,1.6,2.6c-1,2.1-0.4,4.9-2.6,6.5C390.7,380.9,391,377.8,391.4,374.8z"/>
		<path class="st39" d="M188.9,335.3c-1.2-1.1-2.4-0.2-3.6-0.1c-0.2-1.2-0.6-2.4-0.7-3.7c-0.1-2.3,1.2-1.1,2.1-0.8
			C186.5,332.7,189,333.3,188.9,335.3z"/>
		<path class="st40" d="M92.9,377.1c-1.6,0.1-1.4,1.3-1.4,2.4c-2.7,1.5-3.4,0.4-2.9-2.3C90,377.2,91.5,375.6,92.9,377.1z"/>
		<path class="st41" d="M396.4,320.2c-2.1,1-4.8,1.4-5.1,4.4c-0.5-0.7-1.1-1.4-1.6-2.1C391.3,319.8,393.9,320.3,396.4,320.2z"/>
		<path class="st42" d="M98.3,378.6c0.9-1.8,0.1-2.2-1.5-2.1c-0.7-0.1-1.4-0.1-2.2-0.2c1.8,0.1,3.3-2.2,5.1-0.8c1.2,0.9,0.6,2,0,3
			C99.3,378.6,98.8,378.6,98.3,378.6z"/>
		<path class="st43" d="M587.4,371.9c-1,0.1-1.4,0.8-1.5,1.6c-0.2-0.5-0.4-1.1-0.7-1.6c-0.1-1,0.5-1.2,1.3-1.2
			C587.4,370.8,587.5,371.3,587.4,371.9z"/>
		<path class="st44" d="M110.1,330.9c0,0.7,0,1.5,0,2.2c-0.4,0-0.8,0-1.2,0C108.7,332,108.5,330.9,110.1,330.9z"/>
		<path class="st45" d="M98.2,328.5c0.1,1.1,0.2,2.1-0.6,3c-0.3-0.8,0.2-1.8-0.9-2.4C97.1,328.7,97.6,328.5,98.2,328.5z"/>
		<path class="st46" d="M428.1,260.3c-1.7-1.5-1.1-4.8-4-5.4c-2.3,0.4-4.3,1.9-6.7,1.7c-2.4-0.1-3.9-2.1-5.8-3.1
			c-1.3-0.7-2.1-2.8-4.1-1.7c-5.8,0.5-4.1,5-4.5,8.4c-3.7,0-7.4,0-11.1,0c-0.6-1.7,1.8-3.8-0.5-5.4c-1.3-1.5-2.7-2.9-4-4.4
			c0-41.3,0.1-82.7,0-124c0-3.4,0.9-4.2,4.3-4.2c43.3,0.1,86.6,0.1,129.9,0.1c2.2,0,3.9-0.3,3.8,3.1c-0.2,31-0.1,62-0.1,92.9
			c0,0.5-0.1,1-0.1,1.5c-0.7,0.6-1.6,0.7-2.5,0.5c-7.3-1.5-14.7-2.6-22-4.6c-1.5-1.4-1.1-3.2-0.8-4.9c0.8-5.4,1.9-10.8,2.8-16.2
			c0.4-2.1-0.1-3.8-1.4-5.5c-2.5-3-4.9-5.9-7.2-9.1c-1.3-1.8-3.4-2.5-5.1-3.7c-0.9-1.3-0.7-2.9-1-4.3c-0.4-2.5-0.9-4.8-3.7-5.9
			c-1.6-0.6-2-2.1-1.8-3.7c0.2-1.6,0.4-3.2,0.6-4.8c0.2-1.1,0.6-2.1,0.9-3.2c0.1-0.2,0.6-0.6,0-0.8c-0.1,0-0.1,0.6-0.3,0.8
			c-0.7,0.5-1.4,0.5-2.1-0.1c-1.2-1.6-0.9-3.6-0.9-5.4c-0.1-5.2-0.2-5.4-5.5-5.4c-8.6,0-17.1-0.8-25.6-1.1c-2.4-0.9-2.9-3.3-3.7-5.3
			c-0.9-2.3-2.1-2.8-4.3-1.8c-9.8,4.6-19.8,8.8-29.7,13.4c-1.6,0.7-2.2,1.8-2,3.6c1,10.3,2.5,20.6,3.5,30.9c0.2,2.2,1.7,3.2,3.4,4
			c1,4.6,0.2,9.3,0.8,14c0.3,2,0.2,4,0.5,5.9c0.5,2.8,2.3,4.1,4.8,4.5c2.5,0.4,2.4-2,3.3-3.4c1.2-2,1.2-4.7,3.5-6
			c2.6,0.9,2.9,3.3,3.8,5.4c-2.2,5.5-6.5,9.6-9.9,14.3c-3.3,4.5-6.6,8.9-10.5,13.6c5.3,1.3,10.1,2.1,14.8,3c1.7,0.3,2.8-0.7,3.7-2
			c2.4-3.2,4.7-6.4,7.1-9.6c0.9-1.2,1.6-2.9,3.6-2.9c1.4,0.7,2.1,2.1,2.9,3.4c5.4,9.8,11,19.5,16.5,29.2c0.6,1.1,1.4,2.1,0.8,3.5
			C450.9,260.2,439.5,260.3,428.1,260.3z"/>
		<path class="st47" d="M500.5,214.9c8.2,1.6,16.5,3.2,24.7,4.9c0,12.7,0,25.5,0.2,38.2c0,1.9-0.7,2.3-2.4,2.3
			c-20.2-0.1-40.5-0.1-60.7-0.1c-6.7-11.9-13.5-23.9-20.2-35.9c-0.5-1.1,0.1-2,0.7-2.8c3.6-4.9,7.3-9.7,10.9-14.7
			c0.6-0.8,1.4-1.5,2.4-1.7c2,0,4,0.2,5.7,1.6c1.7,2.9,1.5,6.2,2.2,9.4c0.8,3.8,1,7.7,1.9,11.4c0.9,3.9,0.1,7.1-3,9.6
			c-0.8,0.6-1.5,1.2-2.1,2.4c4-0.2,7.7,0.6,11.6,0.8c3,0.2,4-1,4.3-4c0.6-7.3,0.2-14.7,1.4-21.9c0.2-1.5,0.3-3,1.7-4
			c3.5-0.9,6.6,0.4,9.8,1.4c1.9,2.3,1,5,1.1,7.6c0.1,2.6,0.8,3.4,3.4,2.5c2.7-0.9,4.8-2,5.2-5.1
			C499.1,215.9,499.5,215.1,500.5,214.9z"/>
		<path class="st48" d="M372.3,236.4c-2.9-3.6-5.9-7.3-8.8-10.9c-1.1-1.4-1.1-2.4,0.5-3.3c0.2-0.1,0.4-0.2,0.6-0.4
			c4.4-3.2,4.4-3.2,7.7,0.8C372.3,227.2,372.3,231.8,372.3,236.4z"/>
		<path class="st7" d="M746.2,261.9c7.6,0,15.1,0,22.7,0c1.9,4-0.2,8,0,12c0.1,3.8-1.7,6.8-4.6,9.4c-2.9,2.5-5.4,5.4-8.2,8.1
			c-1,1-1.9,2.4-3.7,1.9c-3.5-6.1-9.2-7.5-15.7-7.5c-0.5,0-1.1-0.5-1.6-0.8c0.9-4.1,4.2-6.6,6.8-9.5c2.7-3,4-6.1,3.6-10
			C745.3,264.2,745.3,262.9,746.2,261.9z"/>
		<path class="st49" d="M752.3,293.2c4.5-4.3,9-8.6,13.6-12.9c1.1-1,1.5-2.1,1.6-3.6c0.4-5,0.9-9.9,1.4-14.9c4.2,0,8.5,0,12.7,0
			c0,6.2-0.1,12.5,0.1,18.7c0,2.2-0.7,3.4-2.6,4.4c-4.2,2.2-8.3,4.6-12.4,6.9c-3.2,1.8-6.4,3.6-9.6,5.4c-1.5,0.9-3.2,1.9-4.7,0.4
			C750.9,296.3,751.6,294.7,752.3,293.2z"/>
		<path class="st49" d="M746.2,261.9c1.5,7-1,12.4-6.1,17.1c-1.9,1.7-3.4,4-5,6c-1,1.2-2.2,2.3-3.1,3.6c-2,2.9-4.3,3.6-7.4,1.7
			c0.2-6.5,0.6-13.1,0.7-19.7c0.1-4,3.7-5.6,5.2-8.7C735.7,261.9,740.9,261.9,746.2,261.9z"/>
		<path class="st50" d="M702.1,342c-1.9-1.6-3-3.7-4.3-5.6c-1.1-1.6,0.5-2.3,1.3-2.9c4.9-3.8,10-7.4,14.9-11.1
			c1.2-0.9,1.9-0.6,2.8,0.4c4.3,4.8,4.2,5.5-1.1,9.2c-4,2.8-7.8,5.7-11.7,8.6C703.4,341,702.8,341.4,702.1,342z"/>
		<path class="st51" d="M718.9,349.6c-2-0.5-4-0.2-4.4-1.7c-0.4-1.5,1-2.6,2.5-3.3c3.2-1.5,6.5-3.1,9.6-4.8c1.5-0.8,3.1-0.9,4.7-0.8
			c0.8,0,1.9-0.3,2.2,0.9c0.2,1.1,0.5,2.5-0.6,3.1C728.1,345.3,723.3,347.5,718.9,349.6z"/>
		<path class="st51" d="M697.2,324.9c-2-0.5-4-0.2-4.4-1.7s1-2.6,2.4-3.3c3.2-1.5,6.5-3.1,9.6-4.8c1.5-0.8,3.1-0.9,4.7-0.8
			c0.8,0,1.9-0.3,2.2,0.9c0.3,1.1,0.6,2.5-0.6,3.1C706.4,320.6,701.6,322.8,697.2,324.9z"/>
		<path class="st48" d="M723.6,315.9c1,0,5,4.6,4.6,5.8c-0.8,2.5-3.5,3.2-5.3,4.7c-0.5,0.4-4.8-5-4.9-6.1
			C718,319.5,722.5,316,723.6,315.9z"/>
		<path class="st52" d="M750.7,313.3c-0.5,0.3-0.9,0.6-1.3,0.9c-2.9,2-6,3.6-9.8,3c-2.2-2-2.3-3.5,0.8-4.6c1.4-0.5,2.5-1.5,3.8-2.2
			C748.9,307.9,749.1,308,750.7,313.3z"/>
		<path class="st53" d="M730.3,303.7c2,0.5,4.1,0.8,6.2,1.4c1.2,0.4,3.4,0.8,2.5,2.4c-0.8,1.4-2.4,3.6-4.8,2.2
			c-1.5-0.9-3.2-1.4-4.8-2c-0.9-0.4-2.5-0.2-1.9-2C727.9,304.2,728.8,303.6,730.3,303.7z"/>
		<path class="st54" d="M745.6,327c1.3-3.3,7.6-6.3,10.8-5.1c2.3,0.9,0.2,2.5,0.5,3.7h0C753.1,325.9,749.5,327.2,745.6,327
			L745.6,327z"/>
		<path class="st55" d="M739.6,317.3c3.2-1,6.5-2,9.8-3c-1.5,3.2-5.5,4.7-9.7,3.7C739.6,317.7,739.6,317.5,739.6,317.3z"/>
		<path class="st56" d="M180.3,236.9c7.5,0,15,0.1,22.5-0.1c2.1,0,2.7,0.6,2.7,2.7c0,2.1-0.5,2.7-2.7,2.7c-15.1-0.1-30.2-0.1-45.3,0
			c-2.1,0-2.7-0.6-2.7-2.7c0-2.1,0.6-2.7,2.7-2.7C165.1,237,172.7,236.9,180.3,236.9z"/>
		<path class="st57" d="M160.8,224.7c6,0,12,0.1,17.9-0.1c2.2-0.1,2.7,0.8,2.7,2.8c0,2.1-0.6,2.8-2.7,2.8c-12-0.1-23.9-0.1-35.9,0
			c-2.3,0-2.6-0.8-2.6-2.8c0-2.1,0.5-2.8,2.7-2.8C148.8,224.8,154.8,224.7,160.8,224.7z"/>
		<path class="st49" d="M188.1,200.3c5,0,9.9,0.1,14.9-0.1c2.1-0.1,2.4,0.9,2.4,2.6c-0.1,1.6,0.1,2.8-2.2,2.8
			c-9.9-0.1-19.9-0.1-29.8,0c-2.1,0-2.4-0.8-2.4-2.6c0-2,0.4-2.9,2.6-2.8C178.4,200.4,183.3,200.3,188.1,200.3z"/>
		<path class="st58" d="M175.8,212.4c3.7,0,7.5,0.1,11.2-0.1c2.4-0.1,2.6,1,2.6,2.9c0,1.9-0.4,2.7-2.5,2.6c-7.7-0.1-15.4-0.1-23.1,0
			c-2.1,0-2.4-1-2.4-2.7c-0.1-2,0.4-2.9,2.6-2.9C168.1,212.5,171.9,212.4,175.8,212.4z"/>
		<path class="st49" d="M152.5,205.6c-3.4,0-6.7-0.1-10.1,0.1c-2.3,0.1-2.2-1.1-2.3-2.7c0-1.7,0.1-2.7,2.3-2.7
			c6.6,0.1,13.2,0.1,19.7,0c2.5-0.1,2,1.5,2.1,2.9c0.1,1.5,0,2.6-2.1,2.5C158.9,205.5,155.7,205.6,152.5,205.6z"/>
		<path class="st58" d="M196.8,230.2c-1.7,0-3.5,0-5.2,0c-1.9,0-3.5,0.4-3.6-2.6c0-3.2,1.7-2.9,3.7-2.9c3.6,0,7.2,0.1,10.8,0
			c2.2-0.1,2.9,0.5,3,2.9c0.1,2.6-1.1,2.8-3.1,2.7C200.5,230.1,198.6,230.2,196.8,230.2z"/>
		<path class="st59" d="M147.5,217.9c-1.4,0-2.7-0.1-4.1,0c-2.1,0.2-3.4-0.1-3.3-2.9c0.1-2.6,1.2-2.8,3.1-2.7c3,0.1,5.9,0.1,8.9,0
			c2.1-0.1,2.8,0.6,2.8,2.7c0,1.9-0.4,3.1-2.6,2.9C150.7,217.7,149.1,217.9,147.5,217.9z"/>
		<path class="st60" d="M201.2,212.4c1,0.9,3.7-1.7,4.1,1.6c0.3,2.5,0,4.5-3.4,3.9c-0.8-0.2-1.7-0.1-2.6,0c-1.8,0.1-3.3,0.2-3.3-2.6
			c0-2.7,1.1-3.2,3.3-2.9C199.9,212.4,200.4,212.4,201.2,212.4z"/>
		<path class="st61" d="M143.7,237c2.1-0.4,3.2,0.1,3.2,2.9c0,3.3-2.1,2.3-3.7,2.5c-2.1,0.2-3-0.2-3.1-2.7
			C140,236.5,141.7,236.8,143.7,237z"/>
		<path class="st49" d="M771.8,250.5c-5.2-2-9.8-3.8-14.4-5.7c-1.8-0.8-3.5-0.9-5.3-0.1c-3.9,1.6-7.9,3-11.9,4.5
			c-0.8,0.3-1.6,1-2.4,0.4c-0.8-0.7-0.1-1.6,0.2-2.4c1.2-3.4,2.3-6.9,3.7-10.2c0.9-2.2,0.4-3.5-1.3-5.1c-3.2-3.1-6-6.5-9-9.7
			c3.5-1.2,7.7-0.7,11.7-1.4c2-0.3,3-1.1,3.8-2.9c2.1-4.9,4.4-9.7,6.9-15.3c2.7,5,5.2,9.2,7.2,13.7c1.3,2.9,3.3,3.7,6,4
			c3.9,0.5,7.8,1,12.3,1.6c-3.4,3.8-6.2,7.2-9.3,10.4c-1.4,1.5-2,2.8-1.3,4.9C769.9,241.5,770.6,245.6,771.8,250.5z"/>
		<path class="st62" d="M223.4,384c0-0.6-0.1-1.2-0.8-1.5c1-3.5,2.1-7.1,3.1-10.7C225.6,376,224.8,380.1,223.4,384z"/>
		<path class="st63" d="M228.4,353.8c1.6-1.8,1.9-3.7,0.8-6c2.5,0.6,2.4,2.2,2.4,3.8C231.5,353.6,230,353.6,228.4,353.8z"/>
		<path class="st64" d="M198.7,396c-1.5,0.6-2.3-0.3-3-1.5C197,394.3,198.1,394.5,198.7,396z"/>
		<path class="st65" d="M103.7,298.5c-2.2,0.6-3.2-0.4-3.5-3c-0.6-5.8-1.6-11.5-2.6-17.3c-0.3-2,0.2-2.8,2.4-3.1
			c5.7-0.8,5.7-1,6.6,4.5c0.7,4.4,1.1,8.9,1.9,13.3C109.3,297.9,109.1,298.3,103.7,298.5z"/>
		<path class="st66" d="M92.2,283.1c0.6,6,2.2,11.9,1,18.1c-0.3,1.4-0.2,2.7-2,3c-2,0.4-3.1-1.4-3.1-2.5c-0.3-5.8-1.5-11.7,1.4-17.2
			C90.1,283.5,90.8,283,92.2,283.1z"/>
		<path class="st66" d="M118.4,292.9c0.2,3.1,0.1,6.5-1.7,9.7c-0.5,0.8-1,1.5-1.9,1.6c-1.4,0-0.9-1.3-1-2c-0.6-5.3-2-10.5-0.8-16
			c0.3-1.5,0.1-3.2,2.2-3.2c2.1,0,3,1.7,3.2,3.4C118.7,288.4,118.4,290.4,118.4,292.9z"/>
		<path class="st58" d="M103.2,315.2c4.1-1.4,8.3-1.4,12.4-2.3c0.7-0.2,1.3,0.2,1.2,1c-0.3,1.8,0.2,4-1.5,5.2
			c-1.5,1.1-3.1,2.3-5.5,1.3C107.2,319.2,104.5,318.3,103.2,315.2z"/>
		<path class="st67" d="M106.3,300.6c4.1-1.6,3.4,2,3.8,4.2c0.6,3-0.8,3.9-3.6,4.1c-4.4,0.2-5-0.3-5.3-5.6
			C101.2,301,101.2,301,106.3,300.6z"/>
		<path class="st68" d="M83.2,318.1c-2-0.3-3.8-0.9-3.4-3.3c0.4-2.2,0.9-4.8,4.2-4.5l0,0.3c1.4,2-0.6,4.9,1.6,6.7
			C84.9,318.1,84,318,83.2,318.1z"/>
		<path class="st69" d="M85.6,317.3c-1.7,0-2.6-0.6-2.3-2.4c0.2-1.4,0.5-2.9,0.7-4.3c2.2-0.5,3.5,0.2,2.8,2.6
			C86.4,314.6,86.8,316.2,85.6,317.3z"/>
		<path class="st10" d="M424.2,420c-2,1.8-1.7,4.9-3.8,6.7c0-0.7,0-1.5,0-2.2c-2-6.6-4.6-13.1-4.6-20.2c0-1.5,0-3,0-5.6
			C420.3,406,422.4,413,424.2,420z"/>
		<path class="st70" d="M445.9,407.8c0.3,0.1,0.6,0.2,0.9,0.3c-1.3,2.1-3.8,1.5-5.6,1.9c-3,0.7-5.8,2-8.6,3.1
			c-0.1-3.1-1-6.1-0.6-9.5C436.7,405.1,441.3,406.4,445.9,407.8z"/>
		<path class="st66" d="M415.9,404.3c1.6,6,3.1,12,4.7,17.9c0.2,0.7,1,1.6-0.1,2.3c-1.2,0-2.5-0.1-3.7-0.1c-0.8,0-1.5-0.2-1.5-1.2
			C415.5,417,414.3,410.6,415.9,404.3z"/>
		<path class="st71" d="M415,388c1.1,2.6,1.4,5,1.6,7.5C412.8,393.4,412.5,392,415,388z"/>
		<path class="st72" d="M566.4,414.9c0,2,0,4,0.1,6c0.2,3.8-1.8,3.9-4.5,2.9c1.1-5.1,2.2-10.3,3.2-15.4c0.1,0,0.3,0,0.4,0.1
			C565.9,410.5,566.1,412.7,566.4,414.9z"/>
		<path class="st18" d="M566.2,399.4c1-2.7-0.9-4.6-1.5-6.9c2.5-0.7,3.7,0.8,4.3,2.6C570,397.6,567.1,397.8,566.2,399.4z"/>
		<path class="st49" d="M737,448.1c3.6-6.8,2.4-12.2-5.6-15.7c2-0.5,2.9-1,3.6-0.9c6,0.8,8.8-2.3,10-7.7c0.1-0.5,0.6-1,1.6-2.4
			c1.3,8,5.4,11.6,13.5,9.9c-0.7,1.2-0.8,1.8-1.2,2c-4.6,3.1-7.4,6.7-4.5,12.6c0.7,1.4-0.7,2.5-1.7,1.4c-5.1-5.2-9.7-2.6-14.3,0.7
			C738.2,448.1,737.9,448,737,448.1z"/>
		<path class="st49" d="M158.9,448.1c-1.7-10.7-3-11.7-12.2-12c-3.4-0.1-4.9,0.9-5,5c-3-3-5.9-6-8.9-9c-0.6-0.6-0.2-1.1,0.2-1.6
			c2.9-2.9,5.7-5.7,9.2-8.8c-1,6.3,2.9,5.4,6.4,5.5c8.1,0.3,12.6,3.5,13.9,9.9C163,441.2,161.7,444.5,158.9,448.1z"/>
		<path class="st73" d="M444.8,436.9c-0.9,1.6-3.4,0-3.5,2.3c-0.2,2.3-0.4,4.6,3.2,4.2c3.6-0.3,7.4-0.5,8.6,4.8c-5,0-9.9,0-14.9,0
			c-1.5,0-1.8-1-1.8-2.3c0-2,0-4,0-6c0-1.3-0.3-2.2-1.8-2.2c-2.3,0-2.1-0.8-1-2.4c4.7-6.4,4.7-6.4,9.9-0.5
			C443.9,435.6,444.4,436.3,444.8,436.9z"/>
		<path class="st74" d="M464.2,438.9c-0.8,1.2-1,1.6-1.4,2c-6,7.4-7.1,7.2-12-1.5c0.9-1.4,3.3,0.6,4-1.7c0.8-2.7-0.2-4.2-3.1-4.3
			c-3-0.1-6.3,0.9-8.2-2.8c-0.8-1.5-0.8-2.3,1.2-2.3c4.1,0,8.2,0,12.4,0c1.8,0,2.5,0.7,2.3,2.5c-0.1,1.1,0.1,2.3,0,3.4
			C459,437.3,459.5,439.6,464.2,438.9z"/>
		<path class="st75" d="M745.6,326.9c3.7-0.9,7.2-3.1,11.2-1.4c-0.1,2.8-1,4.1-4.2,3.1C750.4,328,747.8,328.5,745.6,326.9z"/>
		<path class="st76" d="M374,260.3c0.2-0.2,0.4-0.5,0.6-0.7c2.5-1.7,5-3.6,8.1-4.2c1.6-0.3,3.1-0.6,4.6,0.3c0.3,0,0.6,0,0.9,0.1
			c1.5,3.1,0.7,5.2-2.6,6.2c-0.8,0.2-1.7,0.5-2.4,0.9C379.2,264.9,376,264.6,374,260.3z"/>
		<path class="st77" d="M355.1,237.6c0.3-1.2-0.3-2.4,0.9-2.6c1.5-0.1,3.3,0,4,1.4c2.4,4.4,5.2,8.5,6.8,13.3
			c0.3,0.9,0.4,1.7-0.4,2.4c-0.9,0.9-1.8,0.4-2.8,0.1c-2.1-0.8-2.6-2.9-3.6-4.6C358,244.3,356.1,241,355.1,237.6z"/>
		<path class="st78" d="M387.3,255.7c-4.9-0.9-8.4,2.8-12.7,3.8c2.1-3.8,5.7-4.8,9.7-5.2C385.5,254.2,386.8,254.1,387.3,255.7z"/>
		<path class="st79" d="M66.8,318c-1.7-2.5-1.1-4.6,0.8-6.7c1.1-0.2,2.2-0.3,3.3-0.5C71.3,316,69.9,318.4,66.8,318z"/>
		<path class="st52" d="M409.2,265.5c-0.3-0.5-0.6-0.9-0.9-1.4c-1.4-2.5-1.5-5.1,0.1-7.6l0,0c3.6-0.6,4,2.1,4.5,4.5
			C413.6,263.9,411.2,264.6,409.2,265.5z"/>
		<path class="st76" d="M408.4,256.5c0,2.5-0.1,5-0.1,7.6c-3.4-0.8-2.9-3.4-2.9-5.9C405.5,256.1,407.2,256.6,408.4,256.5z"/>
		<path class="st80" d="M424.1,258.8c1.9,1.1,3.5,2.8,3.3,4.9c-0.2,1.5-1.9,2.9-3.9,2.6l0,0c-1.4-2.2-1.7-4.4,0-6.6
			C423.7,259.3,423.9,259,424.1,258.8z"/>
		<path class="st81" d="M423.5,259.5c0,2.2,0,4.4,0,6.6c-1-0.7-3.2-0.3-2.9-2.2C420.8,262.2,420.6,259.7,423.5,259.5z"/>
		<path class="st82" d="M455.8,205.7c-4.6,6.2-9.1,12.4-13.7,18.6c-3.4,4.4-6.8,8.9-10.1,13.4c-1.2,1.7-2.3,2.4-4.6,1.9
			c-5-1.3-10.2-2.1-15.8-3.2c7.4-9.8,14.4-19.1,21.5-28.5c0.5-2.7,2.7-4.3,4.1-6.5c2.3-2.4,3.6-5.9,6.9-7.3
			c3.6,1.6,7.2,1.1,10.9,0.4c5.7-1.1,11.5-2.3,17.2-3.2c2.7-0.4,4.8-1.8,6.5-4c2.3-2.9,4.8-5.8,7.1-8.7c0.9-1.1,1.8-2.5,3.5-2.4
			c2.2-0.1,3.8,0.9,5,2.6c1.2,1.7,2.4,3.6,4,4.9c6,5,6.2,11.1,4.3,18.1c-1.1,4.3-2,8.8-2.1,13.3c-0.1,6.4-4.6,7.9-9.7,8.9
			c-0.4,0.1-0.7,0.1-1.6,0.2c0-3.9,0-7.7,0-11.5c-0.2-0.4-0.5-0.8-0.6-1.3c-1.5-7.3-1.5-7.3-7.2-12.3c-0.1-0.5-0.4,0.5,0,0.1
			c0.2-0.2,0.3-0.1,0.3,0.2c-0.2,4-0.3,7.9-2,11.6c-0.9,3.5-1.4,7.1-1.5,10.7c-0.2,5.8-0.5,11.7-0.6,17.5c0,1.8-0.4,2.8-2.5,2.6
			c-5.4-0.4-10.9-0.6-16.3-0.8c0-0.4,0-0.8,0.1-0.9c7.5-5,6.5-12.1,4.7-19.4c-1-4.4-1.6-9-2.4-13.5c-1.7-1.7-1-3.9-1.4-5.7
			C458.9,203,457.7,204.7,455.8,205.7z"/>
		<path class="st83" d="M416.5,187.6c-2.9,0.5-3.8-1-4.1-3.6c-1.2-10.9-2.5-21.8-3.8-32.6c-0.2-1.7,0.6-2.4,2-3.1
			c10.8-4.8,21.6-9.6,32.4-14.5c1.8-0.8,2.6-0.6,3.2,1.4c0.7,2.2,1.7,4.4,2.6,6.6c1.6,2.5,2.2,5.4,3,8.3c0.9,3,1.6,6,2.5,9
			c0.8,2.5-0.1,4.1-2.3,5.2c-2.4,1.1-4.8,3.2-7.4,0.4c-2-2.2-3.6-4.7-6-7.1c-1.2,3.2-0.4,6.4-1.1,9.4c-0.9,3.9-1.2,4.2-5,2.8
			c-0.9-0.3-1.8-0.8-2.8-1.2c-0.8-0.3-1.5-0.9-2.9-0.9c4.2,6,8.7,11.7,4.9,19.4c-0.4,0.2-0.7,0.3-1.1,0.3c-3.3,0.4-6.6,0.5-9.9,1
			C419.2,188.5,417.8,188.6,416.5,187.6z"/>
		<path d="M431.8,186.8c2.1-8.3-2.2-14.5-6.5-21.1c3.5,1.5,7,2.9,10.8,4.5c0.5-5,1-9.8,1.6-15.4c2.5,3.1,4.7,5.6,6.6,8.3
			c1.5,2.1,2.8,2.4,5.4,1.4c3.9-1.6,4.4-3.6,3.1-7.3c-0.8-2.3-2.1-4.6-1.7-7.2c1.6-0.3,2.5,1,3.4,1.9c1.6,1.5,3.2,3.2,4.8,4.7
			c3.3,3.1,5.2,2.9,7.9-0.8c1.7-2.4,3.5-4.9,5.2-7.3c0.6-0.8,1.4-1.7,2.5-1.3c0.9,0.3,1.1,1.4,1.1,2.2c0,3.6,1.2,7.1,0.8,10.8
			c2.3-1.5,3-4.7,6-5.5c0.5-0.4,0.9-0.8,1.4-1.2c0.7,1.1,0.5,2.3,0.1,3.4c-0.1,1.4,0,2.8-0.4,4.1c-0.7,2.8-0.6,4.8,3,5.1
			c1.2,0.1,1.9,0.8,1.9,2.2c0.1,2.6,0.4,5.2,0.6,7.8c-3.6,4.3-7.2,8.5-10.7,12.9c-1.3,1.7-2.9,2.6-4.9,3c-7.8,1.4-15.7,2.7-23.5,4.4
			c-2.7,0.6-4.4-1.3-6.7-1.8c-0.4,0.1-0.7,0.1-1.1,0.1c-2.9-0.9-5.7-2.2-8.3-3.7C432.5,189.9,431.3,188.8,431.8,186.8z"/>
		<path class="st84" d="M482.7,154.6c-2,2.5-4.1,4.9-6.6,8c-0.4-5.6-0.7-10.4-1-16.1c-3,4.1-5.5,7.6-8,11c-2.2,3.1-5,3.3-7.7,0.6
			c-2.7-2.7-5-5.9-8.2-8.2c-0.9-2.7-2.6-5.2-2.4-8.2c9.9,0.3,19.9,0.6,29.8,0.7c2.6,0,3.4,0.9,3.4,3.4
			C482,148.8,481.1,151.8,482.7,154.6z"/>
		<path class="st85" d="M413.6,219.1c-3.2-0.7-5.3-1.3-7.5-1.7c-1.7-0.3-2.5-1.4-2.8-3c-1.6-7.3-3.2-14.6-4.9-21.9
			c-0.2-1-0.6-1.9,0.5-2.6c2.8-1.8,5.7-3.6,8.5-5.5c0.4-0.3,1-0.6,1.3-0.1c1.8,2.6,4.8,4.7,4.9,8.1
			C413.8,201.3,413.6,210,413.6,219.1z"/>
		<path class="st85" d="M416.5,187.6c3.8-0.4,7.6-0.8,11.4-1.2c1.1-0.1,2.2-0.6,3.1,0.4c1.7,2.9,1.8,6.1,1.6,9.3
			c-0.1,1.6-0.5,3.2-1.1,4.8c-0.4,0.8-0.8,1.4-1.6,1.7c-1.4,3.1-2.9,6.1-4.1,9.2c-0.7,1.7-1.4,1.8-3,1.3c-4.2-1.1-6.1-3.4-6.1-7.9
			C416.8,199.3,415.8,193.5,416.5,187.6z"/>
		<path class="st86" d="M430,202.5c0.3-0.6,0.5-1.2,0.8-1.7c2.5-1,4.8-0.7,6.8,1.2c-1.5,1.9-3,3.9-4.5,5.8
			C432,206,431,204.3,430,202.5z"/>
		<path class="st87" d="M484.2,156.9c0-1.1-0.1-2.3-0.1-3.4c0.1-0.7,0.6-0.9,0.8-0.1C485,154.5,485,155.8,484.2,156.9z"/>
		<path class="st88" d="M479.6,210.7c0-4.4,0.9-8.6,1.6-12.8c6.3,3.1,9.7,7.5,8.1,14.6C486,211.9,482.8,211.3,479.6,210.7z"/>
		<path class="st89" d="M455.8,205.7c1.2-1.8,2.5-3.6,3.9-5.6c1.5,2.4,1.2,4.6,1.4,6.8C459.3,206.5,457.5,206.1,455.8,205.7z"/>
		<path class="st90" d="M437.5,202c-2.3-0.4-4.5-0.8-6.8-1.2c0.3-1.4,0.7-2.8,1-4.2c3.6-0.9,6.9-3.1,10.8-2.6
			c0.3,0.1,0.6,0.3,0.9,0.4C441.5,197,439.5,199.5,437.5,202z"/>
		<path class="st91" d="M442.5,194.1c-3.7,0.6-6.8,3.2-10.8,2.6c-0.2-3.3-0.5-6.6-0.7-9.9c0.2,0,0.5,0,0.7,0c0.3,2.3,2.1,3,3.9,3.9
			C438,191.7,440.3,192.9,442.5,194.1z"/>
		<path class="st49" d="M460.2,191.5c-9,1.7-16.4-0.3-23.6-3.9c-1.5-0.7-1.9-1.2-0.9-2.6c2.2-3.4,4-7.2,6.5-10.4
			c2.7-3.5,7.2-4.1,11.1-6.7C452.4,176.9,451.2,185.5,460.2,191.5z"/>
		<path class="st66" d="M466.3,188.2c3-7.9,7.9-15.3-1.8-21.5c6.2,0.2,11.6,2.1,17.2,3.4c0.8,0.2,0.8,0.8,0.8,1.4
			c0.1,5.2-1,10-5.9,12.7C473.7,185.9,470.3,186.7,466.3,188.2z"/>
	</g>
</g>
</svg>
