<?xml version="1.0" encoding="utf-8"?>
<!-- Generator: Adobe Illustrator 21.0.0, SVG Export Plug-In . SVG Version: 6.00 Build 0)  -->
<svg version="1.1" id="Layer_1" xmlns="http://www.w3.org/2000/svg" xmlns:xlink="http://www.w3.org/1999/xlink" x="0px" y="0px"
	 viewBox="0 0 780 713.2" style="enable-background:new 0 0 780 713.2;" xml:space="preserve">
<style type="text/css">
	.st0{display:none;fill:#FDFDFD;}
	.st1{fill:#A45F9B;}
	.st2{fill:#874A81;}
	.st3{fill:#4C1F4D;}
	.st4{fill:#FEC1F1;}
	.st5{fill:#874A82;}
	.st6{fill:#C38BBB;}
	.st7{fill:#884A82;}
	.st8{fill:#4C204D;}
	.st9{fill:#4D204E;}
	.st10{fill:#9B829C;}
	.st11{fill:#F57280;}
	.st12{fill:#FEFEFE;}
	.st13{fill:#C3B4C3;}
	.st14{fill:#F5717F;}
	.st15{fill:#F4717F;}
</style>
<g>
	<g>
		<path class="st0" d="M390,713.2c-128.8,0-257.7,0-386.5,0.1c-2.7,0-3.5-0.5-3.5-3.4C0.1,474.4,0.1,239,0,3.6C0,0.4,0.8,0,3.7,0
			c257.5,0.1,515.1,0.1,772.6,0c3,0,3.7,0.5,3.7,3.6c-0.1,235.3-0.1,470.6,0,705.9c0,3.4-0.9,3.8-3.9,3.8
			C647.4,713.2,518.7,713.2,390,713.2z"/>
		<path class="st1" d="M172.6,676.3c-1.1-0.6-0.6-1.4-0.3-2.3c2.4-9,4.8-18,7.2-27c0.5-2,1.9-3.1,3.4-4.2
			c7.9-5.6,15.8-11.2,23.6-16.9c1.1-0.8,2.4-1.4,2.9-2.8c3.6-2.1,7.6-0.9,11.4-1.5c3-0.5,3.8-1.4,3.6-4.5
			c-1.7-18.3-3.2-36.5-4.9-54.8c-1.7-18.1-3.3-36.3-4.9-54.4c-1.6-18-3.2-36-4.8-54.1c-1.4-15.4-2.9-30.8-4.2-46.2
			c-1.3-15.3-3-30.5-4-45.9c-0.3-5.2-0.8-5.6-5.8-4.6c-1.8,0.4-3.7,0.9-5.6,0.3c-1.7-0.5-2.8,0.6-4.1,1.4c-7.4,5-13.2,11.8-19,18.5
			c-6.2,7.2-12.6,14.1-18.8,21.4c-0.6,0.7-1.2,1.3-1.9,1.9c-2.7,2.3-4.1,2.4-6.2-0.5c-5-6.7-10-13.5-14.5-20.5
			c-2.7-4.2-3.7-9.3-5.4-14c-7.1-19.6-14.1-39.3-21.1-58.9c-0.5-1.4-1.1-2.8-0.6-4.4c0.4-0.8,1.1-1.3,1.8-1.7
			c3.8-1.6,7.8-2.5,11.8-3.5c2.9-0.7,4.3-2.4,5.2-5.2c2.4-7.3,3.6-14.4-0.1-21.7c-1.2-2.4-1.6-5.2-2.5-7.9
			c-3.1-9.4-8.6-13.3-18.5-13.3c-2.6,0-5.3,0.5-7.8-0.7c-2.9-4.1-2.3-9-2.8-13.7c-0.1-1.4,1.2-2,2.4-2.5c2.4-0.9,4.7-0.4,6.9,0.4
			c6.7,2.5,13.3,5.1,20.1,7.3c4.2,1.4,6.3,3.9,7.3,8c2.3,9.3,5.3,18.5,7.7,27.8c3.3,12.8,9.4,24.5,14.4,36.6
			c2.6,6.2,5.3,12.4,8,18.6c1.1,2.5,2.2,3.1,4.4,1.2c2-1.7,4.2-3.2,6.4-4.6c2.8-1.8,3-3.8,1.8-6.7c-5.9-13.5-11.2-27.3-16.1-41.2
			c-8-22.7-16.4-45.4-20.6-69.3c-0.3-1.5-0.7-2.9,0.2-4.4c2.8-1.8,5.8-1.9,9-1.4c3.2,0.5,6.4,1,9.6,1.4c0.4,0,0.7,0.1,1.1-0.1
			c-1.4-13.6-10.9-22.6-25.1-23.5c-0.4-0.2-0.7-0.5-0.9-0.9c-1.9-8-2-16.3-3.5-24.4c-2.3-12.1-0.7-24.1,0.6-36.1
			c1.5-14,1.9-27.8-1.3-41.6c-2.1-9-3.2-18.2-4.9-27.2c-0.3-1.5-0.5-3,0-4.4c7.8-1.7,15.5-3.6,23.4-5c10.7-1.9,21.2-4.5,31.4-8.4
			c17.3-6.6,35.4-9.2,53.4-12.8c2.1-0.4,4.2-0.6,6.2-1.3c13.4-4,26.7-1.1,40.1-0.3c1.9,0.1,2.1,1.5,2.6,2.7
			c5.3,13.7,10.5,27.5,16,41.2c5,12.3,10.6,24.5,15.8,36.8c0.6,1.5,1.6,2.4,3,3.2c9.4,5.7,18.8,11.3,28.2,17
			c1.4,0.8,2.6,1.2,4.2,1.1c22.5-2.2,44.9-4.8,67.4-6.3c12.3-0.8,24.7,0.5,37.1,0.6c17.5,0.2,34.3,4.4,51.4,7.3
			c1.3,1.4,0.8,3,0.6,4.6c-0.8,4.9-1.9,9.8-2.6,14.7c-0.6,4.6,1.5,8.3,5.9,9.4c10,2.4,20,5.3,30.3,6.5c8.3,1,16.9-0.4,25.3-0.8
			c2.2-0.1,4.5-1,6.3,0.9c-2.2,5.4-4.5,10.9-6.7,16.4c-1.7,1.2-3.4,0.4-5,0c-10.3-2.6-20.6-5-30.8-8c-7-2.1-13.9-0.8-20.8-0.4
			c-8.5,0.5-16.9,1.4-25.4,1.8c-17.2,0.7-34,3.6-50.6,7.5c-8.7,2.1-17.5,3.9-26.3,5.8c-3,0.6-4.3,2-4.1,5.1
			c0.2,4.9-0.3,9.7,0.6,14.6c-1.5,0.7-2.1,1.9-2.6,3.4c-8.1,20.7-14.5,41.9-19.3,63.6c-2.5,11.2-8.3,21.4-12.4,32
			c-2.4,6-4.8,12.1-7.4,18c-0.9,2.1-0.7,3.6,0.5,5.5c34,52.8,68,105.6,102,158.4c6.3,9.8,12.6,19.5,19,29.2c1.3,2,2,3.9,1.9,6.3
			c-0.2,5.5-0.1,11-0.2,16.5c-2.2,0.5-3.4-1.2-4.8-2.4c-2.2-1.8-4.5-3.1-7.5-2.1c-0.6,0.2-1.2,0.1-1.9,0.2c-7.1,0.3-13,2.4-18,8.1
			c-8.8,10-20,17.1-31.7,23.5c-0.7,0.4-1.4,0.7-2.1,0.7c-3.3-3-4.8-6.6-4.3-11.2c0.6-6.8,0.6-13.7,0.9-20.5c1-5.2,4.1-8.9,7.7-12.5
			c7.6-7.7,7-4.8,0.2-12.9c-13-15.5-26.2-30.8-39.4-46.1c-11-12.7-22.1-25.4-33.2-38c-9.3-10.6-18.5-21.3-27.8-31.9
			c-7.3-8.4-14.6-16.7-21.8-25.2c-2.1-2.5-4.1-3.1-7.1-1.4c-2.9,1.6-6,3.1-9.3,3.8c-2.1-0.9-3.7,0-5.8,1
			c-8.6,4.3-11.2,10.4-10.1,20.3c2.6,23.4,3.7,47,5.3,70.6c1.1,16.1,2.1,32.1,3.2,48.2c1.6,23.7,3.4,47.3,5,71
			c1.1,15.4,2.1,30.9,3.2,46.3c0.7,10.1,1.4,20.2,2.2,30.2c0.2,2.8-0.1,4.9-2.9,6.1c-2.8-3.2-4.6-7.1-6.8-10.7
			c-1.2-2.1-2.5-2.7-4.4-0.9c-9.4,9.2-21.9,12.7-33.4,17.8c-6.3,2.8-12.8,4.8-18.9,8.2c-1.5,0.9-3,1.2-4.7,1.1
			C193.1,676,182.8,675.9,172.6,676.3z"/>
		<path class="st2" d="M99,302.4c2.9,8.4,5.7,16.7,8.6,25.1c5.5,15.5,11.4,30.9,16.6,46.4c2,6,6.3,10.4,9.5,15.5
			c2.3,3.7,5.1,7.1,7.5,10.7c1.3,1.9,2.4,2.2,4.1,0.3c6.8-7.8,13.7-15.4,20.5-23.2c6.7-7.7,13.4-15.4,22.1-21c0.8-0.5,1.1-1.4,2.2,0
			c1.5,2,3.7,0.1,5.5-0.2c6.7-1.1,6.6-1.2,6.9,5.5c0.6,10.6,1.7,21.3,2.9,31.9c0.8,6.9,1,13.9,1.6,20.8c0.9,9.8,1.9,19.5,2.9,29.2
			c0.6,6.2,1.1,12.4,1.6,18.5c1,10.6,2,21.2,2.9,31.9c0.8,9.8,1.5,19.6,2.4,29.3c0.9,9.6,1.9,19.2,2.8,28.9
			c0.6,6.3,1.1,12.6,1.6,18.9c0.9,10.5,2,21,2.9,31.5c0.5,5.8,0.8,11.6,1.6,17.4c0.2,1.6-0.3,2.5-2.2,2.6c-4.7,0.1-9.4,1.1-14.1,0.7
			c-1.8-20.6-3.6-41.3-5.4-61.9c-2.2-25.1-4.3-50.2-6.5-75.4c-1.6-18.9-3.1-37.8-4.8-56.7c-1.7-19.6-3.4-39.3-5.1-59
			c0-0.5-0.2-0.9-0.4-2.1c-1.6,3.1-2.9,5.6-4.1,8.1c-5.8,11.8-11.6,23.5-17.3,35.3c-1.1,2.4-2.6,3.5-5.2,4.2
			c-9.8,2.5-19.5,5.1-29.4,7.4c-4.2,1-7.5,0-10.8-2.4c-6.5-4.7-12.7-9.7-18.5-15.2c-1.3-0.4-2-1.3-2.3-2.6
			c-3.1-13.6-7.9-26.8-12-40.2c-9.6-31.1-19.3-62.3-29-93.4c-0.6-2-1.7-4-1-6.2c4.2-8.8,9.1-17.1,8.1-27.7
			c-1.5-15.5-1.4-31.2-0.8-46.8c0.7-20.1,0.8-40.2,1.1-60.3c0.2-14.2,0.5-28.5,0.7-42.7c0-1.7,0.5-3.1,1.3-4.6
			c4.4-8.1,8.8-16.2,13.1-24.4c0.7-1.3,1.3-2.6,3.1-2.9c9.7-1.8,19.3-3.8,29-5.7c2,6,2.6,12.3,3.7,18.5c1.8,9.6,2.9,19.4,4.8,29
			c1.2,6.1-0.3,11.9-0.5,17.8c-0.2,7.4-1.1,14.8-2,22.2c-1.6,12.7,1.6,24.9,2.9,37.3c0.3,3.1,0.5,6.2,0.8,9.3
			c-1.1,1.7-3,1.7-4.6,2.1c-13.1,3.9-24.3,10.8-32.8,21.7c-1.8,2.3-1.5,5.2-1.9,7.9c-0.4,2.8,0,5.7-0.6,8.6c-0.4,1.8,0.3,2.7,2.2,2
			c3.4-1.1,7-2,9.8-4.4c4-3.4,8.4-6.3,12.4-9.7c2.7-2.3,5.6-3.8,9.1-4c3.8-0.2,7.7-1,11.5-0.7c0.4,0.1,0.7,0.4,0.9,0.7
			c0.9,7.9,2.7,15.7,4.8,23.3c5.5,20.3,12.5,40.2,19.9,59.8c4.2,11.2,8.4,22.4,13.3,33.3c0.8,1.9,0.6,3.3-1.2,4.5
			c-3.5,2.4-7,4.8-10.3,7.4c-1.8,1.5-2.3,0.5-2.9-0.9c-6.8-15.9-14.2-31.6-20.3-47.8c-4.6-12.3-7.4-25.3-10.9-38
			c-1-3.5-2.4-5.7-6.3-6.8c-6.8-2-13.3-4.8-20-7.3c-0.9-0.4-1.9-0.7-2.8-1c-3.9-1-6,0.7-5.4,4.6c0.5,3.6,1,7.1,1.5,10.7
			c0,0.2-0.1,0.4-0.1,0.6c-2.5,3.6-5.9,6.4-9,9.5c-1.8,1.8-2.3,3.6-1.8,6c2.3,12.5,5.6,24.5,11.5,35.9c1.3,2.4,2.5,3,5,2.2
			C95.6,301.9,97.4,300.8,99,302.4z"/>
		<path class="st3" d="M415.4,300.6c19.6,7.8,39.3,15.5,59.3,23.4c0-10.4,0.1-20.3-0.1-30.3c0-2.8,0.6-3.5,3.4-3.5
			c57.5,0.1,114.9,0.1,172.4,0c2.8,0,3.5,0.6,3.5,3.4c-0.1,42.7-0.1,85.5,0,128.2c0,2.8-0.7,3.5-3.5,3.5
			c-57.7-0.1-115.4-0.1-173.2,0c-2.8,0-3.5-0.7-3.5-3.5c0.1-15.4,0-30.7,0.1-46.1c0-2.1-0.6-3.7-2-5.4c-19-23-38-46-57-69
			C415.2,301.1,415.3,300.8,415.4,300.6z"/>
		<path class="st2" d="M93,413c-7.1,2.8-14.1,5.6-21.2,8.4c-1.2,0.5-2.3,0.8-3.6,0.7c-7-0.5-14-1-20.9-1.4c-1.4-0.1-2.3-0.9-3.1-1.8
			c-5.1-5.1-10.2-10.3-15.4-15.3c-1.4-1.3-1.9-2.9-2.2-4.6c-5-27.7-10-55.5-14.9-83.2c-0.2-1.1-0.1-2.2,0.2-3.3
			c3.4-13.8,6.8-27.6,10.1-41.4c0.5-2.1,1.4-2.9,3.6-2.7c2.5,0.2,5,0,7.5,0c2.8-0.5,5.7,0,8.5-0.3c2.3-0.2,3.2,1,3.2,3
			c0.1,3.3,0.5,6.7-0.3,10c-1,2.1-2.5,1.4-3.7,0.4c-2.4-1.9-4.8-1.6-7.3-0.3c-0.4,0.2-0.9,0.4-1.4,0.6c-11.5,5-8.3,2.9-10.6,14.2
			c-2.1,10.2-0.2,19.8,2.6,29.4c0.7,2.4,1.8,3.3,4.3,2.6c2.6-0.7,5.3-1.3,8-1.9c4.7-1,9.6-1.5,12.5-6.2c2.1,0.4,2,2.4,2.4,3.8
			c7.7,25,15.2,50.1,23.6,74.9c1.4,4,3.4,6.7,7.4,8c2.6,0.8,5.1,2.1,7.6,3.2C91.2,410.5,93,410.9,93,413z"/>
		<path class="st2" d="M390.1,201.9c-1.5-0.2-1.6-1.2-1.6-2.5c0-4.9,0.1-9.7,0-14.6c0-1.8,0.7-2.8,2.4-3.2
			c18.8-4,37.5-8.2,56.4-11.9c6.9-1.3,14.1-1.2,21.1-1.7c12.7-1,25.5-1.9,38.2-2.9c5.1-0.4,9.8,1.5,14.6,2.6
			c10.5,2.5,21,5.2,31.4,7.9c0,1.9-1.5,2.7-2.9,3.6c-7.1,4.2-14.2,8.3-21.2,12.6c-1.7,1.1-3.5,1.1-5.4,1.1
			c-24.3-0.7-48.6-1.1-72.9-2c-12.6-0.5-24.8,0.4-36.8,4.6C405.9,197.9,397.9,199.7,390.1,201.9z"/>
		<path class="st1" d="M43.5,281.9c0-3.5,0-6.9,0.1-10.4c0.1-2.2-0.6-3.1-2.9-3c-2.6,0.1-5.2,0-7.8-0.1c0.3-0.1,0.7-0.4,1-0.4
			c8.4,0.5,16.3-1.1,23.8-4.9c3.7,11.6,7.4,23.2,11,34.9c4.5,14.5,9,29,13.5,43.5c5.9,19.1,11.9,38.3,17.9,57.4
			c0.7,2.2-0.4,4.9,1.9,6.6c-0.8,0.1-1.4,0.5-1.6,1.3c-1.1,3.7-3.9,5.4-7.5,6.2c-4.3-3.6-9.9-4.6-14.7-7c-1.6-0.8-2.6-1.7-3.1-3.4
			c-8-23.7-15.8-47.5-22.6-71.5c-1-3.7-2.4-7.3-3.7-10.9c-0.5-0.7-0.2-1.5-0.1-2.2c3.4-5.9,3.6-11.9,1.7-18.4
			c-0.8-2.5-1.1-5.1-1.4-7.7c-0.5-3.5-1.8-6.4-4.8-8.5C43.8,283,43.5,282.5,43.5,281.9z"/>
		<path class="st2" d="M271.4,366.9c3.6-3,8.3-3.8,12.3-6.2c1.6-0.9,2.3,0.6,3,1.4c6.1,6.9,12.2,13.8,18.3,20.7s12,13.9,18.1,20.9
			c8,9.2,15.9,18.4,23.9,27.6c7.6,8.7,15.3,17.3,22.9,26c8.4,9.7,16.6,19.5,24.9,29.2c6.6,7.7,13.2,15.5,20,23.1
			c1.8,2,2.3,3.1,0.1,5c-5.2,4.6-10.1,9.6-12.9,16.2c-5.6-8.7-12.1-16.8-18.3-25.1c-32.3-43.5-64.7-87-97-130.5
			c-1.7-2.3-3.6-4-6.4-4.9C277.4,369.5,274.4,368.1,271.4,366.9z"/>
		<path class="st4" d="M559.3,159.2c-7.8,0.4-15.7,0.3-23.5,1.1c-9.1,0.9-17.4-2.4-26.1-3.8c-3.7-0.6-7.2-2.1-10.9-2.4
			c-4.3-0.4-6.2-3.2-8.4-6.1c-0.8-1-0.5-2.1-0.3-3.2c1.2-7,2.3-14,3.4-21c11.8,2.1,23.7,4.1,35.5,6.2c6.3,1.1,11.2,5.4,16.8,8
			c5.3,2.5,10.2,5.7,15.5,8.3c2.1,1.1,2.7,2.2,1.7,4.3C561.6,153.4,560.5,156.3,559.3,159.2z"/>
		<path class="st5" d="M405.6,562.7c5.9-4.6,12.7-7.8,18.9-11.8c1-0.7,2.1-1.4,3-2.2c5.6-5.3,11.2-10.5,16.7-16c2-2,4.5-1.9,6.9-2.3
			c3.4-0.7,6.9-0.8,10.3-1.5c2.9-0.6,4.3,1.7,6.1,2.9c1.4,0.9,2.6,2.3,4.2,3c0.9,4.7-1.1,8.6-3,12.6c-2,1.3-4.1,0.3-6.1,0
			c-2.1-0.3-3.9,0-5.7,1.1c-9,5.6-17.8,11.3-26.8,16.9c-1.7,1.1-2.5,2.7-2.9,4.6c-0.7,3.7-1.4,7.3-2.2,11c-0.3,1.3-0.3,2.8-1.9,3.4
			c-1.1,0.1-1.8-0.5-2.5-1.4C415.6,576.2,410.6,569.4,405.6,562.7z"/>
		<path class="st6" d="M423,584.3c1-4.8,2.1-9.7,3-14.5c0.5-2.4,1.5-4.2,3.8-5.5c7.5-4.5,15.1-8.8,22.1-14c5.4-4,10.7-4.5,16.7-2.9
			c-2.7,6.7-5.4,13.4-8.1,20.1c-0.6,1.6-1.8,2.7-3.1,3.7c-6.2,5-12.4,10-18.7,15c-0.8,0.6-1.6,1.3-2.7,1
			C431.7,586.2,427.4,585.2,423,584.3z"/>
		<path class="st6" d="M203.9,675.6c1.2-0.7,2.8-0.3,3.9-1.3c11.2-4.3,22.6-7.4,34.8-6.5c4.8,0.4,9.2,1.6,13.3,4.2
			c-17.4,7.5-34.6,15.2-52.1,22.6c-7.8,3.3-15.2,0.4-21.4-7.7c3.7-6.4,9.1-10.2,16.5-11C200.5,675.7,202.2,675,203.9,675.6z"/>
		<path class="st7" d="M255.8,672c-0.6,0-1.3,0.1-1.9-0.1c-14.1-6-27.8-2.4-41.4,1.4c-1.6,0.4-3.1,0.7-4.7,1
			c6-3.5,12.7-5.5,19.1-8.3c7.4-3.2,15.1-5.9,22.3-9.6c4.4-2.3,8.2-6,12.2-9.1c0.8-0.6,1.6-2,2.6-0.2c2.5,4.6,6,8.6,7.6,13.7
			C266.4,664.6,262.1,669.6,255.8,672z"/>
		<path class="st3" d="M553.2,104.8c-7.9-6.6-15-13.1-23.1-18.5c-1.4-0.9-2.7-1.5-4.4-1.6c-7.2-0.6-14.3-1.4-21.5-1.9
			c4.9-1.7,9.7-3.4,14.6-5.1c0.5-0.2,1-0.4,1.4-0.2c7.8,2.8,16.5,2.8,23.5,8.1c0.1,0.1,0.2,0.1,0.3,0.2
			C553.7,92.2,553.7,92.2,553.2,104.8z"/>
		<path class="st8" d="M494.9,213.8c14.9,6.2,29.1,5.2,44-2c-1.7,3.9-4.6,5.9-6.1,8.7c-2,3.8-5.3,3-8.5,2.9
			c-5.9-0.2-11.7-0.5-17.6-0.5c-2.4,0-4.2-0.6-5.8-2.6C499,218.1,496.9,216,494.9,213.8z"/>
		<path class="st9" d="M501.8,105.9c5.2-2,9.9-4.6,15.8-5c7-0.5,13.1,0.7,19.3,3.8c4.8,2.3,8,5.7,11.5,10.7
			c-15.1-5.9-29.2-12.6-45.2-8.7C502.6,106.8,501.7,107.3,501.8,105.9z"/>
		<path class="st9" d="M535.8,233.2c-1.6,4.2-3.2,6.6-7.3,8.2c-8.8,3.4-17.1,1.1-25.6-0.4c-0.9-0.2-1.6-0.6-2.2-1.3
			c-2.9-3.3-5.7-6.5-8.6-9.8c1.2-0.8,2,0,2.9,0.4c2.6,1.2,5.3,2.2,7.7,3.8c7.5,5,15.5,5.6,24.2,4.1
			C530.5,237.5,532.3,234.8,535.8,233.2z"/>
		<path class="st7" d="M203.9,675.6c-8.6,1.1-16,4.5-21.6,11.3c-3.3-3.5-6.5-7-9.8-10.5c0.2-1.3,1.1-1.4,2.2-1.4
			c9.3,0,18.6,0,27.9,0C203.1,675,203.5,675.4,203.9,675.6z"/>
		<path class="st10" d="M501.8,105.9c0.5,0.3,1,0.5,1.5,0.8c-1,0.7-2,0.7-3.3,0.5C500.3,106.3,501,106,501.8,105.9z"/>
		<path class="st11" d="M212.7,191.5c0.3,1.9-1.6,1.6-2.5,1.9c-9.8,2.9-19.6,5.7-29.4,8.5c-3.7,1.1-7.5,1.8-11.1,3.2
			c-2.6,1-3.3-0.2-3.9-2.2c-3.5-12.2-7.1-24.4-10.6-36.5c-6.3-22-12.5-44-18.8-66c-2-7.2-4-14.4-6.2-21.5c-0.6-2.1-0.2-3,1.7-3.6
			c13.7-4,27.5-7.9,41.2-11.9c2-0.6,2.7,0.3,3.3,2.3c5.6,19.6,11.3,39.2,16.9,58.8c6.1,21,12.1,42.1,18.1,63.1
			C212,188.6,212.3,190,212.7,191.5z"/>
		<path class="st11" d="M215.2,206.2c1.9-0.5,2,0.9,2.3,1.9c3.9,13.5,7.8,27,11.7,40.4c0.5,1.8-0.3,2.4-1.9,2.9
			c-14,4-27.9,8-41.9,12c-1.5,0.4-2,0.4-2.5-1.4c-3.8-13.6-7.8-27.2-11.8-40.8c-0.4-1.4-0.3-2.4,1.3-2.8c14.1-4,28.2-8.1,42.3-12.1
			C214.9,206.2,215.2,206.2,215.2,206.2z"/>
		<path class="st12" d="M253.5,280.6c0.8,7.2,1.9,13.8,2.1,20.4c0.2,5.5-1.7,10.8-2.7,16.2c-0.2,1.1-1.1,1.6-1.9,2.2
			c-5.2,3.6-10.5,7.2-15.7,10.9c-1.6,1.2-2.7,0.9-4.2-0.1c-8.6-6-17.3-11.9-25.9-17.8c-1.2-0.8-3.1-1.5-0.5-3
			C220.8,299.8,236.9,290.3,253.5,280.6z"/>
		<path class="st12" d="M228.3,167.5c1.5-7.8,3.1-15.6,4.5-23.5c0.3-1.8,1.2-3.2,2.5-4.5c5.2-5.2,10.4-10.4,15.4-15.9
			c2-2.2,4.2-3.2,7.1-3.5c4-0.4,7.9-1,11.9-1.4c1-0.1,2-0.1,3,0.2c7.2,2.1,14.3,4.3,21.5,6.5c1.3,0.4,2.2,0.9,2.4,2.4
			c0.5,4.1,1.2,8.1,1.9,12.2c0.3,1.8-0.8,1.7-2.1,1.6c-7.7-1-15.3-1.9-23-3.1c-2.3-0.4-4,0.1-6.1,1c-12.3,5.3-22.9,13-32.1,22.7
			c-1.9,2.1-4.1,3.9-6.2,5.9C228.7,167.9,228.5,167.7,228.3,167.5z"/>
		<path class="st4" d="M88.6,248.3c1.6,0,3.3,0.2,4.9,0c6.9-1.1,12.6,1.7,18.2,5.1c1.3,0.8,1.9,1.8,2.4,3.2c2.3,7.4,4.5,14.8,7,22.1
			c0.8,2.4-0.5,4.4-0.7,6.5c-0.7,9.4-5.6,14.5-15.1,15.2c-1.6,0.1-3.1,0.8-4.7,1.2c-2.7,1-3.6-1-4.3-2.8c-1.8-4.6-3.5-9.3-4.2-14.3
			c-1.5-10.5-2.8-21-4.2-31.5C87.6,251.3,87.5,249.7,88.6,248.3L88.6,248.3z"/>
		<path class="st13" d="M128.4,206.1c-3.3,0.3-6.7,0.7-10,1c-3.9,0.3-7.3,1.5-10.4,4.1c-4.4,3.8-9.1,7.4-13.9,10.8
			c-3.5,2.5-7.8,3-12.3,4.6c0.6-6.7,0-13.4,2-19.2c1.7-4.9,6.1-9.1,10.7-12.2c5.4-3.7,11.3-6.9,17.1-10c3.5-1.9,7.7-1.8,11.5-3.1
			c0.2,0,0.5,0.1,0.7,0.1c1.2,1.1,1.3,2.6,1.6,4.1c1.2,5,2.2,10.1,3.3,15.2C129,203,129.6,204.6,128.4,206.1z"/>
		<path class="st6" d="M88.6,248.4c0.8,6.5,1.4,13,2.3,19.5c0.9,6.6,1.8,13.2,2.9,19.8c0.7,4.2,2.5,8.1,3.9,12
			c0.5,1.4,1.4,2,2.8,1.9c-0.5,0.3-1.1,0.6-1.6,0.9c-2.3-0.1-4.4,0.7-6.5,1.5c-1.8,0.6-2.6,0.2-3.5-1.5c-6.4-12.7-10.4-26-12.7-40
			c-0.2-1.2-0.3-2.1,0.6-3C80.9,255.7,84.8,252,88.6,248.4z"/>
		<path class="st12" d="M128.4,206.1c-1.4-6.6-2.8-13.2-4.1-19.9c-0.3-1.3-0.4-2.7-0.6-4c3.4-1.6,6.2,0.8,9.3,1.5
			c5.8,1.3,9.7,4.6,11.8,10.3c1.7,4.5,3.9,8.9,6,13.6c-7.6-0.4-14.6-3.2-21.8-1.2C128.8,206.3,128.6,206.2,128.4,206.1z"/>
		<path class="st12" d="M566.1,357c0,11.2-0.1,22.5,0.1,33.7c0,2.5-0.7,3.2-3.1,3.1c-5-0.2-10-0.2-15,0c-2.4,0.1-3.2-0.6-3.1-3.1
			c0.2-7.5,0-15,0.1-22.5c0-2.2-0.4-3.1-2.9-3c-7.1,0.2-14.2,0.2-21.3,0c-2.4-0.1-2.9,0.8-2.9,3c0.1,7.5,0,15,0.1,22.5
			c0,2.5-0.7,3.2-3.2,3.1c-5.2-0.2-10.5-0.1-15.7,0c-2,0-2.5-0.6-2.5-2.6c0.1-23.1,0.1-46.2,0-69.3c0-2.1,0.9-2.5,2.7-2.4
			c5.4,0.1,10.7,0.1,16.1,0c2.3-0.1,2.6,0.9,2.6,2.9c-0.1,7.1,0.1,14.2-0.1,21.4c0,2.4,0.7,2.9,2.9,2.9c7-0.1,14-0.2,21,0
			c2.8,0.1,3.2-1,3.2-3.5c-0.2-6.9,0.1-13.7-0.1-20.6c-0.1-2.5,0.7-3.1,3.1-3.1c5,0.2,10,0.2,15,0c2.4-0.1,3.2,0.6,3.1,3.1
			C566.1,334,566.1,345.5,566.1,357z"/>
		<path class="st12" d="M580,356.2c0-11.1,0.1-22.2-0.1-33.3c0-2.9,0.8-3.6,3.6-3.5c5.1,0.2,10.2,0.1,15.3,0c2,0,2.5,0.6,2.5,2.6
			c-0.1,23.1-0.1,46.2,0,69.2c0,2-0.7,2.5-2.6,2.5c-5.2-0.1-10.5-0.2-15.7,0c-2.5,0.1-3.1-0.8-3.1-3.1
			C580,379.2,580,367.7,580,356.2z"/>
		<path class="st14" d="M633.6,345.1c0,7.8-0.1,15.5,0,23.2c0,2.2-0.6,3.1-2.9,3c-4.4-0.2-8.7-0.1-13.1,0c-1.9,0-2.6-0.6-2.6-2.6
			c0.1-15.6,0-31.2,0-46.9c0-1.8,0.6-2.5,2.4-2.4c4.6,0.1,9.2,0.1,13.9,0c2.2-0.1,2.4,1,2.4,2.8
			C633.6,329.9,633.6,337.5,633.6,345.1z"/>
		<path class="st15" d="M624.1,394.5c-2.5-0.3-6.5,1.4-8.4-0.6c-2-2-0.6-5.9-0.6-9c-0.1-8.3,0-8.3,8.4-8.2c3.2,0,7.3-1.3,9.4,0.5
			c2.2,1.9,0.7,6.1,0.7,9.3c0.1,8,0,8-8.2,8C625.2,394.5,624.9,394.5,624.1,394.5z"/>
		<path class="st6" d="M43.5,281.9c0.3,0.3,0.5,0.6,0.8,0.8c0.7,3.1-0.4,6.2-0.5,9.3c-0.3,5.5,1,10.6,2.7,15.8
			c1.2,3.6,2.2,7.1,3,10.8c-0.2,0.5-0.4,1.1-0.6,1.6c-1.2,3.5-3.6,5.2-7.3,5.9c-4.9,0.8-9.7,2-14.5,3.2c-2.1,0.6-3.1,0.2-3.6-2.1
			c-1.3-5.7-3.2-11.3-4.1-17c-0.9-5.4,1.6-10.8,1.4-16.2c-0.3-7.6,3.6-11.2,10.4-12.8c0.7-0.2,1.4-0.6,2-1c3.2-1.9,6.2-2.1,8.9,1.1
			C42.3,281.9,42.9,282,43.5,281.9z"/>
		<path class="st4" d="M49.5,318.6c-2.5-2.2-2.2-5.6-3.3-8.4c-3.3-8.2-4.2-16.8-2.6-25.5c0.1-0.7,0.1-1.5,0.8-1.9
			c6.4,2.6,5,9,6.6,13.9c0.4,1.4,0.4,3,0.8,4.4C53.9,307.3,52.7,313.1,49.5,318.6z"/>
	</g>
</g>
</svg>
